<mxfile host="Electron" agent="Mozilla/5.0 (Macintosh; Intel Mac OS X 10_15_7) AppleWebKit/537.36 (KHTML, like Gecko) draw.io/24.7.17 Chrome/128.0.6613.36 Electron/32.0.1 Safari/537.36" version="24.7.17">
  <diagram name="Page-1" id="mTaThZvrZ4iqHnapH3oN">
    <mxGraphModel dx="1026" dy="691" grid="1" gridSize="10" guides="1" tooltips="1" connect="1" arrows="1" fold="1" page="1" pageScale="1" pageWidth="827" pageHeight="1169" math="0" shadow="0">
      <root>
        <mxCell id="0" />
        <mxCell id="1" parent="0" />
        <mxCell id="GqbEpFNVcH-FoVS1KwiD-1" value="" style="html=1;whiteSpace=wrap;shape=isoCube2;backgroundOutline=1;isoAngle=15;" parent="1" vertex="1">
          <mxGeometry x="140" y="420" width="40" height="40" as="geometry" />
        </mxCell>
        <mxCell id="GqbEpFNVcH-FoVS1KwiD-2" value="" style="html=1;whiteSpace=wrap;shape=isoCube2;backgroundOutline=1;isoAngle=15;" parent="1" vertex="1">
          <mxGeometry x="120" y="430" width="40" height="40" as="geometry" />
        </mxCell>
        <mxCell id="GqbEpFNVcH-FoVS1KwiD-3" value="" style="html=1;whiteSpace=wrap;shape=isoCube2;backgroundOutline=1;isoAngle=15;fontStyle=1" parent="1" vertex="1">
          <mxGeometry x="100" y="440" width="40" height="40" as="geometry" />
        </mxCell>
        <mxCell id="GqbEpFNVcH-FoVS1KwiD-4" value="" style="html=1;whiteSpace=wrap;shape=isoCube2;backgroundOutline=1;isoAngle=15;fillColor=#dae8fc;strokeColor=#6c8ebf;fontStyle=1" parent="1" vertex="1">
          <mxGeometry x="80" y="450" width="40" height="40" as="geometry" />
        </mxCell>
        <mxCell id="GqbEpFNVcH-FoVS1KwiD-5" value="" style="html=1;whiteSpace=wrap;shape=isoCube2;backgroundOutline=1;isoAngle=15;fillColor=#d5e8d4;strokeColor=#82b366;" parent="1" vertex="1">
          <mxGeometry x="160" y="430" width="40" height="40" as="geometry" />
        </mxCell>
        <mxCell id="GqbEpFNVcH-FoVS1KwiD-6" value="" style="html=1;whiteSpace=wrap;shape=isoCube2;backgroundOutline=1;isoAngle=15;" parent="1" vertex="1">
          <mxGeometry x="140" y="440" width="40" height="40" as="geometry" />
        </mxCell>
        <mxCell id="GqbEpFNVcH-FoVS1KwiD-7" value="" style="html=1;whiteSpace=wrap;shape=isoCube2;backgroundOutline=1;isoAngle=15;" parent="1" vertex="1">
          <mxGeometry x="120" y="450" width="40" height="40" as="geometry" />
        </mxCell>
        <mxCell id="GqbEpFNVcH-FoVS1KwiD-8" value="" style="html=1;whiteSpace=wrap;shape=isoCube2;backgroundOutline=1;isoAngle=15;fillColor=#dae8fc;strokeColor=#6c8ebf;fontStyle=1" parent="1" vertex="1">
          <mxGeometry x="100" y="460" width="40" height="40" as="geometry" />
        </mxCell>
        <mxCell id="GqbEpFNVcH-FoVS1KwiD-9" value="" style="html=1;whiteSpace=wrap;shape=isoCube2;backgroundOutline=1;isoAngle=15;fillColor=#d5e8d4;strokeColor=#82b366;" parent="1" vertex="1">
          <mxGeometry x="180" y="440" width="40" height="40" as="geometry" />
        </mxCell>
        <mxCell id="GqbEpFNVcH-FoVS1KwiD-10" value="" style="html=1;whiteSpace=wrap;shape=isoCube2;backgroundOutline=1;isoAngle=15;fillColor=#d5e8d4;strokeColor=#82b366;" parent="1" vertex="1">
          <mxGeometry x="160" y="450" width="40" height="40" as="geometry" />
        </mxCell>
        <mxCell id="GqbEpFNVcH-FoVS1KwiD-11" value="" style="html=1;whiteSpace=wrap;shape=isoCube2;backgroundOutline=1;isoAngle=15;" parent="1" vertex="1">
          <mxGeometry x="140" y="460" width="40" height="40" as="geometry" />
        </mxCell>
        <mxCell id="GqbEpFNVcH-FoVS1KwiD-12" value="" style="html=1;whiteSpace=wrap;shape=isoCube2;backgroundOutline=1;isoAngle=15;fillColor=#d5e8d4;strokeColor=#82b366;" parent="1" vertex="1">
          <mxGeometry x="120" y="470" width="40" height="40" as="geometry" />
        </mxCell>
        <mxCell id="GqbEpFNVcH-FoVS1KwiD-13" value="" style="html=1;whiteSpace=wrap;shape=isoCube2;backgroundOutline=1;isoAngle=15;fillColor=#d5e8d4;strokeColor=#82b366;" parent="1" vertex="1">
          <mxGeometry x="200" y="450" width="40" height="40" as="geometry" />
        </mxCell>
        <mxCell id="GqbEpFNVcH-FoVS1KwiD-14" value="" style="html=1;whiteSpace=wrap;shape=isoCube2;backgroundOutline=1;isoAngle=15;fillColor=#d5e8d4;strokeColor=#82b366;" parent="1" vertex="1">
          <mxGeometry x="180" y="460" width="40" height="40" as="geometry" />
        </mxCell>
        <mxCell id="GqbEpFNVcH-FoVS1KwiD-15" value="" style="html=1;whiteSpace=wrap;shape=isoCube2;backgroundOutline=1;isoAngle=15;fillColor=#d5e8d4;strokeColor=#82b366;" parent="1" vertex="1">
          <mxGeometry x="160" y="470" width="40" height="40" as="geometry" />
        </mxCell>
        <mxCell id="GqbEpFNVcH-FoVS1KwiD-16" value="" style="html=1;whiteSpace=wrap;shape=isoCube2;backgroundOutline=1;isoAngle=15;fillColor=#d5e8d4;strokeColor=#82b366;" parent="1" vertex="1">
          <mxGeometry x="140" y="480" width="40" height="40" as="geometry" />
        </mxCell>
        <mxCell id="GqbEpFNVcH-FoVS1KwiD-17" value="" style="html=1;whiteSpace=wrap;shape=isoCube2;backgroundOutline=1;isoAngle=15;fillColor=#d5e8d4;strokeColor=#82b366;" parent="1" vertex="1">
          <mxGeometry x="140" y="400" width="40" height="40" as="geometry" />
        </mxCell>
        <mxCell id="GqbEpFNVcH-FoVS1KwiD-18" value="" style="html=1;whiteSpace=wrap;shape=isoCube2;backgroundOutline=1;isoAngle=15;" parent="1" vertex="1">
          <mxGeometry x="120" y="410" width="40" height="40" as="geometry" />
        </mxCell>
        <mxCell id="GqbEpFNVcH-FoVS1KwiD-19" value="" style="html=1;whiteSpace=wrap;shape=isoCube2;backgroundOutline=1;isoAngle=15;fontStyle=1" parent="1" vertex="1">
          <mxGeometry x="100" y="420" width="40" height="40" as="geometry" />
        </mxCell>
        <mxCell id="GqbEpFNVcH-FoVS1KwiD-20" value="" style="html=1;whiteSpace=wrap;shape=isoCube2;backgroundOutline=1;isoAngle=15;fillColor=#dae8fc;strokeColor=#6c8ebf;fontStyle=1" parent="1" vertex="1">
          <mxGeometry x="80" y="430" width="40" height="40" as="geometry" />
        </mxCell>
        <mxCell id="GqbEpFNVcH-FoVS1KwiD-21" value="" style="html=1;whiteSpace=wrap;shape=isoCube2;backgroundOutline=1;isoAngle=15;" parent="1" vertex="1">
          <mxGeometry x="160" y="410" width="40" height="40" as="geometry" />
        </mxCell>
        <mxCell id="GqbEpFNVcH-FoVS1KwiD-22" value="" style="html=1;whiteSpace=wrap;shape=isoCube2;backgroundOutline=1;isoAngle=15;" parent="1" vertex="1">
          <mxGeometry x="140" y="420" width="40" height="40" as="geometry" />
        </mxCell>
        <mxCell id="GqbEpFNVcH-FoVS1KwiD-23" value="" style="html=1;whiteSpace=wrap;shape=isoCube2;backgroundOutline=1;isoAngle=15;" parent="1" vertex="1">
          <mxGeometry x="120" y="430" width="40" height="40" as="geometry" />
        </mxCell>
        <mxCell id="GqbEpFNVcH-FoVS1KwiD-24" value="" style="html=1;whiteSpace=wrap;shape=isoCube2;backgroundOutline=1;isoAngle=15;fillColor=#dae8fc;strokeColor=#6c8ebf;fontStyle=1" parent="1" vertex="1">
          <mxGeometry x="100" y="440" width="40" height="40" as="geometry" />
        </mxCell>
        <mxCell id="GqbEpFNVcH-FoVS1KwiD-25" value="" style="html=1;whiteSpace=wrap;shape=isoCube2;backgroundOutline=1;isoAngle=15;fillColor=#d5e8d4;strokeColor=#82b366;" parent="1" vertex="1">
          <mxGeometry x="180" y="420" width="40" height="40" as="geometry" />
        </mxCell>
        <mxCell id="GqbEpFNVcH-FoVS1KwiD-26" value="" style="html=1;whiteSpace=wrap;shape=isoCube2;backgroundOutline=1;isoAngle=15;fillColor=#d5e8d4;strokeColor=#82b366;" parent="1" vertex="1">
          <mxGeometry x="160" y="430" width="40" height="40" as="geometry" />
        </mxCell>
        <mxCell id="GqbEpFNVcH-FoVS1KwiD-27" value="" style="html=1;whiteSpace=wrap;shape=isoCube2;backgroundOutline=1;isoAngle=15;" parent="1" vertex="1">
          <mxGeometry x="140" y="440" width="40" height="40" as="geometry" />
        </mxCell>
        <mxCell id="GqbEpFNVcH-FoVS1KwiD-28" value="" style="html=1;whiteSpace=wrap;shape=isoCube2;backgroundOutline=1;isoAngle=15;fillColor=#d5e8d4;strokeColor=#82b366;" parent="1" vertex="1">
          <mxGeometry x="120" y="450" width="40" height="40" as="geometry" />
        </mxCell>
        <mxCell id="GqbEpFNVcH-FoVS1KwiD-29" value="" style="html=1;whiteSpace=wrap;shape=isoCube2;backgroundOutline=1;isoAngle=15;fillColor=#d5e8d4;strokeColor=#82b366;" parent="1" vertex="1">
          <mxGeometry x="200" y="430" width="40" height="40" as="geometry" />
        </mxCell>
        <mxCell id="GqbEpFNVcH-FoVS1KwiD-30" value="" style="html=1;whiteSpace=wrap;shape=isoCube2;backgroundOutline=1;isoAngle=15;fillColor=#d5e8d4;strokeColor=#82b366;" parent="1" vertex="1">
          <mxGeometry x="180" y="440" width="40" height="40" as="geometry" />
        </mxCell>
        <mxCell id="GqbEpFNVcH-FoVS1KwiD-31" value="" style="html=1;whiteSpace=wrap;shape=isoCube2;backgroundOutline=1;isoAngle=15;fillColor=#d5e8d4;strokeColor=#82b366;" parent="1" vertex="1">
          <mxGeometry x="160" y="450" width="40" height="40" as="geometry" />
        </mxCell>
        <mxCell id="GqbEpFNVcH-FoVS1KwiD-32" value="" style="html=1;whiteSpace=wrap;shape=isoCube2;backgroundOutline=1;isoAngle=15;fillColor=#d5e8d4;strokeColor=#82b366;" parent="1" vertex="1">
          <mxGeometry x="140" y="460" width="40" height="40" as="geometry" />
        </mxCell>
        <mxCell id="GqbEpFNVcH-FoVS1KwiD-49" value="" style="html=1;whiteSpace=wrap;shape=isoCube2;backgroundOutline=1;isoAngle=15;" parent="1" vertex="1">
          <mxGeometry x="140" y="380" width="40" height="40" as="geometry" />
        </mxCell>
        <mxCell id="GqbEpFNVcH-FoVS1KwiD-50" value="" style="html=1;whiteSpace=wrap;shape=isoCube2;backgroundOutline=1;isoAngle=15;" parent="1" vertex="1">
          <mxGeometry x="120" y="390" width="40" height="40" as="geometry" />
        </mxCell>
        <mxCell id="GqbEpFNVcH-FoVS1KwiD-51" value="" style="html=1;whiteSpace=wrap;shape=isoCube2;backgroundOutline=1;isoAngle=15;fontStyle=1" parent="1" vertex="1">
          <mxGeometry x="100" y="400" width="40" height="40" as="geometry" />
        </mxCell>
        <mxCell id="GqbEpFNVcH-FoVS1KwiD-52" value="" style="html=1;whiteSpace=wrap;shape=isoCube2;backgroundOutline=1;isoAngle=15;fillColor=#dae8fc;strokeColor=#6c8ebf;fontStyle=1" parent="1" vertex="1">
          <mxGeometry x="80" y="410" width="40" height="40" as="geometry" />
        </mxCell>
        <mxCell id="GqbEpFNVcH-FoVS1KwiD-53" value="" style="html=1;whiteSpace=wrap;shape=isoCube2;backgroundOutline=1;isoAngle=15;" parent="1" vertex="1">
          <mxGeometry x="160" y="390" width="40" height="40" as="geometry" />
        </mxCell>
        <mxCell id="GqbEpFNVcH-FoVS1KwiD-54" value="" style="html=1;whiteSpace=wrap;shape=isoCube2;backgroundOutline=1;isoAngle=15;fillColor=#d5e8d4;strokeColor=#82b366;" parent="1" vertex="1">
          <mxGeometry x="140" y="400" width="40" height="40" as="geometry" />
        </mxCell>
        <mxCell id="GqbEpFNVcH-FoVS1KwiD-55" value="" style="html=1;whiteSpace=wrap;shape=isoCube2;backgroundOutline=1;isoAngle=15;" parent="1" vertex="1">
          <mxGeometry x="120" y="410" width="40" height="40" as="geometry" />
        </mxCell>
        <mxCell id="GqbEpFNVcH-FoVS1KwiD-56" value="" style="html=1;whiteSpace=wrap;shape=isoCube2;backgroundOutline=1;isoAngle=15;fillColor=#dae8fc;strokeColor=#6c8ebf;fontStyle=1" parent="1" vertex="1">
          <mxGeometry x="100" y="420" width="40" height="40" as="geometry" />
        </mxCell>
        <mxCell id="GqbEpFNVcH-FoVS1KwiD-57" value="" style="html=1;whiteSpace=wrap;shape=isoCube2;backgroundOutline=1;isoAngle=15;fillColor=#d5e8d4;strokeColor=#82b366;" parent="1" vertex="1">
          <mxGeometry x="180" y="400" width="40" height="40" as="geometry" />
        </mxCell>
        <mxCell id="GqbEpFNVcH-FoVS1KwiD-58" value="" style="html=1;whiteSpace=wrap;shape=isoCube2;backgroundOutline=1;isoAngle=15;" parent="1" vertex="1">
          <mxGeometry x="160" y="410" width="40" height="40" as="geometry" />
        </mxCell>
        <mxCell id="GqbEpFNVcH-FoVS1KwiD-59" value="" style="html=1;whiteSpace=wrap;shape=isoCube2;backgroundOutline=1;isoAngle=15;" parent="1" vertex="1">
          <mxGeometry x="140" y="420" width="40" height="40" as="geometry" />
        </mxCell>
        <mxCell id="GqbEpFNVcH-FoVS1KwiD-60" value="" style="html=1;whiteSpace=wrap;shape=isoCube2;backgroundOutline=1;isoAngle=15;fillColor=#d5e8d4;strokeColor=#82b366;" parent="1" vertex="1">
          <mxGeometry x="120" y="430" width="40" height="40" as="geometry" />
        </mxCell>
        <mxCell id="GqbEpFNVcH-FoVS1KwiD-61" value="" style="html=1;whiteSpace=wrap;shape=isoCube2;backgroundOutline=1;isoAngle=15;fillColor=#d5e8d4;strokeColor=#82b366;" parent="1" vertex="1">
          <mxGeometry x="200" y="410" width="40" height="40" as="geometry" />
        </mxCell>
        <mxCell id="GqbEpFNVcH-FoVS1KwiD-62" value="" style="html=1;whiteSpace=wrap;shape=isoCube2;backgroundOutline=1;isoAngle=15;fillColor=#d5e8d4;strokeColor=#82b366;" parent="1" vertex="1">
          <mxGeometry x="180" y="420" width="40" height="40" as="geometry" />
        </mxCell>
        <mxCell id="GqbEpFNVcH-FoVS1KwiD-63" value="" style="html=1;whiteSpace=wrap;shape=isoCube2;backgroundOutline=1;isoAngle=15;fillColor=#d5e8d4;strokeColor=#82b366;" parent="1" vertex="1">
          <mxGeometry x="160" y="430" width="40" height="40" as="geometry" />
        </mxCell>
        <mxCell id="GqbEpFNVcH-FoVS1KwiD-64" value="" style="html=1;whiteSpace=wrap;shape=isoCube2;backgroundOutline=1;isoAngle=15;fillColor=#d5e8d4;strokeColor=#82b366;" parent="1" vertex="1">
          <mxGeometry x="140" y="440" width="40" height="40" as="geometry" />
        </mxCell>
        <mxCell id="GqbEpFNVcH-FoVS1KwiD-65" value="" style="html=1;whiteSpace=wrap;shape=isoCube2;backgroundOutline=1;isoAngle=15;fillColor=#dae8fc;strokeColor=#6c8ebf;" parent="1" vertex="1">
          <mxGeometry x="140" y="360" width="40" height="40" as="geometry" />
        </mxCell>
        <mxCell id="GqbEpFNVcH-FoVS1KwiD-66" value="" style="html=1;whiteSpace=wrap;shape=isoCube2;backgroundOutline=1;isoAngle=15;fillColor=#dae8fc;strokeColor=#6c8ebf;" parent="1" vertex="1">
          <mxGeometry x="120" y="370" width="40" height="40" as="geometry" />
        </mxCell>
        <mxCell id="GqbEpFNVcH-FoVS1KwiD-67" value="" style="html=1;whiteSpace=wrap;shape=isoCube2;backgroundOutline=1;isoAngle=15;fillColor=#dae8fc;strokeColor=#6c8ebf;fontStyle=1" parent="1" vertex="1">
          <mxGeometry x="100" y="380" width="40" height="40" as="geometry" />
        </mxCell>
        <mxCell id="GqbEpFNVcH-FoVS1KwiD-68" value="" style="html=1;whiteSpace=wrap;shape=isoCube2;backgroundOutline=1;isoAngle=15;fillColor=#dae8fc;strokeColor=#6c8ebf;fontStyle=1" parent="1" vertex="1">
          <mxGeometry x="80" y="390" width="40" height="40" as="geometry" />
        </mxCell>
        <mxCell id="GqbEpFNVcH-FoVS1KwiD-69" value="" style="html=1;whiteSpace=wrap;shape=isoCube2;backgroundOutline=1;isoAngle=15;fillColor=#dae8fc;strokeColor=#6c8ebf;" parent="1" vertex="1">
          <mxGeometry x="160" y="370" width="40" height="40" as="geometry" />
        </mxCell>
        <mxCell id="GqbEpFNVcH-FoVS1KwiD-70" value="" style="html=1;whiteSpace=wrap;shape=isoCube2;backgroundOutline=1;isoAngle=15;fillColor=#dae8fc;strokeColor=#6c8ebf;" parent="1" vertex="1">
          <mxGeometry x="140" y="380" width="40" height="40" as="geometry" />
        </mxCell>
        <mxCell id="GqbEpFNVcH-FoVS1KwiD-71" value="" style="html=1;whiteSpace=wrap;shape=isoCube2;backgroundOutline=1;isoAngle=15;fillColor=#dae8fc;strokeColor=#6c8ebf;" parent="1" vertex="1">
          <mxGeometry x="120" y="390" width="40" height="40" as="geometry" />
        </mxCell>
        <mxCell id="GqbEpFNVcH-FoVS1KwiD-72" value="" style="html=1;whiteSpace=wrap;shape=isoCube2;backgroundOutline=1;isoAngle=15;fillColor=#dae8fc;strokeColor=#6c8ebf;fontStyle=1" parent="1" vertex="1">
          <mxGeometry x="100" y="400" width="40" height="40" as="geometry" />
        </mxCell>
        <mxCell id="GqbEpFNVcH-FoVS1KwiD-73" value="" style="html=1;whiteSpace=wrap;shape=isoCube2;backgroundOutline=1;isoAngle=15;fillColor=#d5e8d4;strokeColor=#82b366;" parent="1" vertex="1">
          <mxGeometry x="180" y="380" width="40" height="40" as="geometry" />
        </mxCell>
        <mxCell id="GqbEpFNVcH-FoVS1KwiD-74" value="" style="html=1;whiteSpace=wrap;shape=isoCube2;backgroundOutline=1;isoAngle=15;fillColor=#d5e8d4;strokeColor=#82b366;" parent="1" vertex="1">
          <mxGeometry x="160" y="390" width="40" height="40" as="geometry" />
        </mxCell>
        <mxCell id="GqbEpFNVcH-FoVS1KwiD-75" value="" style="html=1;whiteSpace=wrap;shape=isoCube2;backgroundOutline=1;isoAngle=15;fillColor=#d5e8d4;strokeColor=#82b366;" parent="1" vertex="1">
          <mxGeometry x="140" y="400" width="40" height="40" as="geometry" />
        </mxCell>
        <mxCell id="GqbEpFNVcH-FoVS1KwiD-76" value="" style="html=1;whiteSpace=wrap;shape=isoCube2;backgroundOutline=1;isoAngle=15;fillColor=#d5e8d4;strokeColor=#82b366;" parent="1" vertex="1">
          <mxGeometry x="120" y="410" width="40" height="40" as="geometry" />
        </mxCell>
        <mxCell id="GqbEpFNVcH-FoVS1KwiD-77" value="" style="html=1;whiteSpace=wrap;shape=isoCube2;backgroundOutline=1;isoAngle=15;fillColor=#d5e8d4;strokeColor=#82b366;" parent="1" vertex="1">
          <mxGeometry x="200" y="390" width="40" height="40" as="geometry" />
        </mxCell>
        <mxCell id="GqbEpFNVcH-FoVS1KwiD-78" value="" style="html=1;whiteSpace=wrap;shape=isoCube2;backgroundOutline=1;isoAngle=15;fillColor=#d5e8d4;strokeColor=#82b366;" parent="1" vertex="1">
          <mxGeometry x="180" y="400" width="40" height="40" as="geometry" />
        </mxCell>
        <mxCell id="GqbEpFNVcH-FoVS1KwiD-79" value="" style="html=1;whiteSpace=wrap;shape=isoCube2;backgroundOutline=1;isoAngle=15;fillColor=#d5e8d4;strokeColor=#82b366;" parent="1" vertex="1">
          <mxGeometry x="160" y="410" width="40" height="40" as="geometry" />
        </mxCell>
        <mxCell id="GqbEpFNVcH-FoVS1KwiD-80" value="" style="html=1;whiteSpace=wrap;shape=isoCube2;backgroundOutline=1;isoAngle=15;fillColor=#d5e8d4;strokeColor=#82b366;" parent="1" vertex="1">
          <mxGeometry x="140" y="420" width="40" height="40" as="geometry" />
        </mxCell>
        <mxCell id="GqbEpFNVcH-FoVS1KwiD-81" value="H" style="text;html=1;align=center;verticalAlign=middle;whiteSpace=wrap;rounded=0;fontStyle=1" parent="1" vertex="1">
          <mxGeometry x="50" y="425" width="20" height="30" as="geometry" />
        </mxCell>
        <mxCell id="GqbEpFNVcH-FoVS1KwiD-82" value="T" style="text;html=1;align=center;verticalAlign=middle;whiteSpace=wrap;rounded=0;fontStyle=1" parent="1" vertex="1">
          <mxGeometry x="100" y="500" width="20" height="30" as="geometry" />
        </mxCell>
        <mxCell id="GqbEpFNVcH-FoVS1KwiD-83" value="B" style="text;html=1;align=center;verticalAlign=middle;whiteSpace=wrap;rounded=0;fontStyle=1" parent="1" vertex="1">
          <mxGeometry x="90" y="353" width="40" height="30" as="geometry" />
        </mxCell>
        <mxCell id="KzxnbteXfyFtNd1PhaOD-3" value="" style="html=1;whiteSpace=wrap;shape=isoCube2;backgroundOutline=1;isoAngle=15;fillColor=#d5e8d4;strokeColor=#82b366;" parent="1" vertex="1">
          <mxGeometry x="220" y="460" width="40" height="40" as="geometry" />
        </mxCell>
        <mxCell id="KzxnbteXfyFtNd1PhaOD-4" value="" style="html=1;whiteSpace=wrap;shape=isoCube2;backgroundOutline=1;isoAngle=15;fillColor=#d5e8d4;strokeColor=#82b366;" parent="1" vertex="1">
          <mxGeometry x="200" y="470" width="40" height="40" as="geometry" />
        </mxCell>
        <mxCell id="KzxnbteXfyFtNd1PhaOD-5" value="" style="html=1;whiteSpace=wrap;shape=isoCube2;backgroundOutline=1;isoAngle=15;fillColor=#d5e8d4;strokeColor=#82b366;" parent="1" vertex="1">
          <mxGeometry x="180" y="480" width="40" height="40" as="geometry" />
        </mxCell>
        <mxCell id="KzxnbteXfyFtNd1PhaOD-6" value="" style="html=1;whiteSpace=wrap;shape=isoCube2;backgroundOutline=1;isoAngle=15;fillColor=#d5e8d4;strokeColor=#82b366;" parent="1" vertex="1">
          <mxGeometry x="160" y="490" width="40" height="40" as="geometry" />
        </mxCell>
        <mxCell id="KzxnbteXfyFtNd1PhaOD-7" value="" style="html=1;whiteSpace=wrap;shape=isoCube2;backgroundOutline=1;isoAngle=15;fillColor=#d5e8d4;strokeColor=#82b366;" parent="1" vertex="1">
          <mxGeometry x="220" y="440" width="40" height="40" as="geometry" />
        </mxCell>
        <mxCell id="KzxnbteXfyFtNd1PhaOD-8" value="" style="html=1;whiteSpace=wrap;shape=isoCube2;backgroundOutline=1;isoAngle=15;fillColor=#d5e8d4;strokeColor=#82b366;" parent="1" vertex="1">
          <mxGeometry x="200" y="450" width="40" height="40" as="geometry" />
        </mxCell>
        <mxCell id="KzxnbteXfyFtNd1PhaOD-9" value="" style="html=1;whiteSpace=wrap;shape=isoCube2;backgroundOutline=1;isoAngle=15;fillColor=#d5e8d4;strokeColor=#82b366;" parent="1" vertex="1">
          <mxGeometry x="180" y="460" width="40" height="40" as="geometry" />
        </mxCell>
        <mxCell id="KzxnbteXfyFtNd1PhaOD-10" value="" style="html=1;whiteSpace=wrap;shape=isoCube2;backgroundOutline=1;isoAngle=15;fillColor=#d5e8d4;strokeColor=#82b366;" parent="1" vertex="1">
          <mxGeometry x="160" y="470" width="40" height="40" as="geometry" />
        </mxCell>
        <mxCell id="KzxnbteXfyFtNd1PhaOD-11" value="" style="html=1;whiteSpace=wrap;shape=isoCube2;backgroundOutline=1;isoAngle=15;fillColor=#d5e8d4;strokeColor=#82b366;" parent="1" vertex="1">
          <mxGeometry x="220" y="420" width="40" height="40" as="geometry" />
        </mxCell>
        <mxCell id="KzxnbteXfyFtNd1PhaOD-12" value="" style="html=1;whiteSpace=wrap;shape=isoCube2;backgroundOutline=1;isoAngle=15;fillColor=#d5e8d4;strokeColor=#82b366;" parent="1" vertex="1">
          <mxGeometry x="200" y="430" width="40" height="40" as="geometry" />
        </mxCell>
        <mxCell id="KzxnbteXfyFtNd1PhaOD-13" value="" style="html=1;whiteSpace=wrap;shape=isoCube2;backgroundOutline=1;isoAngle=15;fillColor=#d5e8d4;strokeColor=#82b366;" parent="1" vertex="1">
          <mxGeometry x="180" y="440" width="40" height="40" as="geometry" />
        </mxCell>
        <mxCell id="KzxnbteXfyFtNd1PhaOD-14" value="" style="html=1;whiteSpace=wrap;shape=isoCube2;backgroundOutline=1;isoAngle=15;fillColor=#d5e8d4;strokeColor=#82b366;" parent="1" vertex="1">
          <mxGeometry x="160" y="450" width="40" height="40" as="geometry" />
        </mxCell>
        <mxCell id="KzxnbteXfyFtNd1PhaOD-15" value="" style="html=1;whiteSpace=wrap;shape=isoCube2;backgroundOutline=1;isoAngle=15;fillColor=#d5e8d4;strokeColor=#82b366;" parent="1" vertex="1">
          <mxGeometry x="220" y="400" width="40" height="40" as="geometry" />
        </mxCell>
        <mxCell id="KzxnbteXfyFtNd1PhaOD-16" value="" style="html=1;whiteSpace=wrap;shape=isoCube2;backgroundOutline=1;isoAngle=15;fillColor=#d5e8d4;strokeColor=#82b366;" parent="1" vertex="1">
          <mxGeometry x="200" y="410" width="40" height="40" as="geometry" />
        </mxCell>
        <mxCell id="KzxnbteXfyFtNd1PhaOD-17" value="" style="html=1;whiteSpace=wrap;shape=isoCube2;backgroundOutline=1;isoAngle=15;fillColor=#d5e8d4;strokeColor=#82b366;" parent="1" vertex="1">
          <mxGeometry x="180" y="420" width="40" height="40" as="geometry" />
        </mxCell>
        <mxCell id="KzxnbteXfyFtNd1PhaOD-18" value="" style="html=1;whiteSpace=wrap;shape=isoCube2;backgroundOutline=1;isoAngle=15;fillColor=#d5e8d4;strokeColor=#82b366;" parent="1" vertex="1">
          <mxGeometry x="160" y="430" width="40" height="40" as="geometry" />
        </mxCell>
        <mxCell id="KzxnbteXfyFtNd1PhaOD-19" value="" style="html=1;whiteSpace=wrap;shape=isoCube2;backgroundOutline=1;isoAngle=15;" parent="1" vertex="1">
          <mxGeometry x="500" y="417" width="40" height="40" as="geometry" />
        </mxCell>
        <mxCell id="KzxnbteXfyFtNd1PhaOD-20" value="" style="html=1;whiteSpace=wrap;shape=isoCube2;backgroundOutline=1;isoAngle=15;" parent="1" vertex="1">
          <mxGeometry x="480" y="427" width="40" height="40" as="geometry" />
        </mxCell>
        <mxCell id="KzxnbteXfyFtNd1PhaOD-21" value="" style="html=1;whiteSpace=wrap;shape=isoCube2;backgroundOutline=1;isoAngle=15;" parent="1" vertex="1">
          <mxGeometry x="460" y="437" width="40" height="40" as="geometry" />
        </mxCell>
        <mxCell id="KzxnbteXfyFtNd1PhaOD-22" value="" style="html=1;whiteSpace=wrap;shape=isoCube2;backgroundOutline=1;isoAngle=15;fillColor=#d5e8d4;strokeColor=#82b366;" parent="1" vertex="1">
          <mxGeometry x="440" y="447" width="40" height="40" as="geometry" />
        </mxCell>
        <mxCell id="KzxnbteXfyFtNd1PhaOD-23" value="" style="html=1;whiteSpace=wrap;shape=isoCube2;backgroundOutline=1;isoAngle=15;" parent="1" vertex="1">
          <mxGeometry x="520" y="427" width="40" height="40" as="geometry" />
        </mxCell>
        <mxCell id="KzxnbteXfyFtNd1PhaOD-24" value="" style="html=1;whiteSpace=wrap;shape=isoCube2;backgroundOutline=1;isoAngle=15;" parent="1" vertex="1">
          <mxGeometry x="500" y="437" width="40" height="40" as="geometry" />
        </mxCell>
        <mxCell id="KzxnbteXfyFtNd1PhaOD-25" value="" style="html=1;whiteSpace=wrap;shape=isoCube2;backgroundOutline=1;isoAngle=15;" parent="1" vertex="1">
          <mxGeometry x="480" y="447" width="40" height="40" as="geometry" />
        </mxCell>
        <mxCell id="KzxnbteXfyFtNd1PhaOD-26" value="" style="html=1;whiteSpace=wrap;shape=isoCube2;backgroundOutline=1;isoAngle=15;fillColor=#d5e8d4;strokeColor=#82b366;" parent="1" vertex="1">
          <mxGeometry x="460" y="457" width="40" height="40" as="geometry" />
        </mxCell>
        <mxCell id="KzxnbteXfyFtNd1PhaOD-27" value="" style="html=1;whiteSpace=wrap;shape=isoCube2;backgroundOutline=1;isoAngle=15;" parent="1" vertex="1">
          <mxGeometry x="540" y="437" width="40" height="40" as="geometry" />
        </mxCell>
        <mxCell id="KzxnbteXfyFtNd1PhaOD-28" value="" style="html=1;whiteSpace=wrap;shape=isoCube2;backgroundOutline=1;isoAngle=15;" parent="1" vertex="1">
          <mxGeometry x="520" y="447" width="40" height="40" as="geometry" />
        </mxCell>
        <mxCell id="KzxnbteXfyFtNd1PhaOD-29" value="" style="html=1;whiteSpace=wrap;shape=isoCube2;backgroundOutline=1;isoAngle=15;" parent="1" vertex="1">
          <mxGeometry x="500" y="457" width="40" height="40" as="geometry" />
        </mxCell>
        <mxCell id="KzxnbteXfyFtNd1PhaOD-30" value="" style="html=1;whiteSpace=wrap;shape=isoCube2;backgroundOutline=1;isoAngle=15;fillColor=#d5e8d4;strokeColor=#82b366;" parent="1" vertex="1">
          <mxGeometry x="480" y="467" width="40" height="40" as="geometry" />
        </mxCell>
        <mxCell id="KzxnbteXfyFtNd1PhaOD-31" value="" style="html=1;whiteSpace=wrap;shape=isoCube2;backgroundOutline=1;isoAngle=15;" parent="1" vertex="1">
          <mxGeometry x="560" y="447" width="40" height="40" as="geometry" />
        </mxCell>
        <mxCell id="KzxnbteXfyFtNd1PhaOD-32" value="" style="html=1;whiteSpace=wrap;shape=isoCube2;backgroundOutline=1;isoAngle=15;" parent="1" vertex="1">
          <mxGeometry x="540" y="457" width="40" height="40" as="geometry" />
        </mxCell>
        <mxCell id="KzxnbteXfyFtNd1PhaOD-33" value="" style="html=1;whiteSpace=wrap;shape=isoCube2;backgroundOutline=1;isoAngle=15;" parent="1" vertex="1">
          <mxGeometry x="520" y="467" width="40" height="40" as="geometry" />
        </mxCell>
        <mxCell id="KzxnbteXfyFtNd1PhaOD-34" value="" style="html=1;whiteSpace=wrap;shape=isoCube2;backgroundOutline=1;isoAngle=15;fillColor=#d5e8d4;strokeColor=#82b366;" parent="1" vertex="1">
          <mxGeometry x="500" y="477" width="40" height="40" as="geometry" />
        </mxCell>
        <mxCell id="KzxnbteXfyFtNd1PhaOD-35" value="" style="html=1;whiteSpace=wrap;shape=isoCube2;backgroundOutline=1;isoAngle=15;" parent="1" vertex="1">
          <mxGeometry x="500" y="397" width="40" height="40" as="geometry" />
        </mxCell>
        <mxCell id="KzxnbteXfyFtNd1PhaOD-36" value="" style="html=1;whiteSpace=wrap;shape=isoCube2;backgroundOutline=1;isoAngle=15;" parent="1" vertex="1">
          <mxGeometry x="480" y="407" width="40" height="40" as="geometry" />
        </mxCell>
        <mxCell id="KzxnbteXfyFtNd1PhaOD-37" value="" style="html=1;whiteSpace=wrap;shape=isoCube2;backgroundOutline=1;isoAngle=15;" parent="1" vertex="1">
          <mxGeometry x="460" y="417" width="40" height="40" as="geometry" />
        </mxCell>
        <mxCell id="KzxnbteXfyFtNd1PhaOD-38" value="" style="html=1;whiteSpace=wrap;shape=isoCube2;backgroundOutline=1;isoAngle=15;fillColor=#d5e8d4;strokeColor=#82b366;" parent="1" vertex="1">
          <mxGeometry x="440" y="427" width="40" height="40" as="geometry" />
        </mxCell>
        <mxCell id="KzxnbteXfyFtNd1PhaOD-39" value="" style="html=1;whiteSpace=wrap;shape=isoCube2;backgroundOutline=1;isoAngle=15;" parent="1" vertex="1">
          <mxGeometry x="520" y="407" width="40" height="40" as="geometry" />
        </mxCell>
        <mxCell id="KzxnbteXfyFtNd1PhaOD-40" value="" style="html=1;whiteSpace=wrap;shape=isoCube2;backgroundOutline=1;isoAngle=15;" parent="1" vertex="1">
          <mxGeometry x="500" y="417" width="40" height="40" as="geometry" />
        </mxCell>
        <mxCell id="KzxnbteXfyFtNd1PhaOD-41" value="" style="html=1;whiteSpace=wrap;shape=isoCube2;backgroundOutline=1;isoAngle=15;" parent="1" vertex="1">
          <mxGeometry x="480" y="427" width="40" height="40" as="geometry" />
        </mxCell>
        <mxCell id="KzxnbteXfyFtNd1PhaOD-42" value="" style="html=1;whiteSpace=wrap;shape=isoCube2;backgroundOutline=1;isoAngle=15;fillColor=#d5e8d4;strokeColor=#82b366;" parent="1" vertex="1">
          <mxGeometry x="460" y="437" width="40" height="40" as="geometry" />
        </mxCell>
        <mxCell id="KzxnbteXfyFtNd1PhaOD-43" value="" style="html=1;whiteSpace=wrap;shape=isoCube2;backgroundOutline=1;isoAngle=15;" parent="1" vertex="1">
          <mxGeometry x="540" y="417" width="40" height="40" as="geometry" />
        </mxCell>
        <mxCell id="KzxnbteXfyFtNd1PhaOD-44" value="" style="html=1;whiteSpace=wrap;shape=isoCube2;backgroundOutline=1;isoAngle=15;" parent="1" vertex="1">
          <mxGeometry x="520" y="427" width="40" height="40" as="geometry" />
        </mxCell>
        <mxCell id="KzxnbteXfyFtNd1PhaOD-45" value="" style="html=1;whiteSpace=wrap;shape=isoCube2;backgroundOutline=1;isoAngle=15;" parent="1" vertex="1">
          <mxGeometry x="500" y="437" width="40" height="40" as="geometry" />
        </mxCell>
        <mxCell id="KzxnbteXfyFtNd1PhaOD-46" value="" style="html=1;whiteSpace=wrap;shape=isoCube2;backgroundOutline=1;isoAngle=15;fillColor=#d5e8d4;strokeColor=#82b366;" parent="1" vertex="1">
          <mxGeometry x="480" y="447" width="40" height="40" as="geometry" />
        </mxCell>
        <mxCell id="KzxnbteXfyFtNd1PhaOD-47" value="" style="html=1;whiteSpace=wrap;shape=isoCube2;backgroundOutline=1;isoAngle=15;" parent="1" vertex="1">
          <mxGeometry x="560" y="427" width="40" height="40" as="geometry" />
        </mxCell>
        <mxCell id="KzxnbteXfyFtNd1PhaOD-48" value="" style="html=1;whiteSpace=wrap;shape=isoCube2;backgroundOutline=1;isoAngle=15;" parent="1" vertex="1">
          <mxGeometry x="540" y="437" width="40" height="40" as="geometry" />
        </mxCell>
        <mxCell id="KzxnbteXfyFtNd1PhaOD-49" value="" style="html=1;whiteSpace=wrap;shape=isoCube2;backgroundOutline=1;isoAngle=15;" parent="1" vertex="1">
          <mxGeometry x="520" y="447" width="40" height="40" as="geometry" />
        </mxCell>
        <mxCell id="KzxnbteXfyFtNd1PhaOD-50" value="" style="html=1;whiteSpace=wrap;shape=isoCube2;backgroundOutline=1;isoAngle=15;fillColor=#d5e8d4;strokeColor=#82b366;" parent="1" vertex="1">
          <mxGeometry x="500" y="457" width="40" height="40" as="geometry" />
        </mxCell>
        <mxCell id="KzxnbteXfyFtNd1PhaOD-51" value="" style="html=1;whiteSpace=wrap;shape=isoCube2;backgroundOutline=1;isoAngle=15;" parent="1" vertex="1">
          <mxGeometry x="500" y="377" width="40" height="40" as="geometry" />
        </mxCell>
        <mxCell id="KzxnbteXfyFtNd1PhaOD-52" value="" style="html=1;whiteSpace=wrap;shape=isoCube2;backgroundOutline=1;isoAngle=15;" parent="1" vertex="1">
          <mxGeometry x="480" y="387" width="40" height="40" as="geometry" />
        </mxCell>
        <mxCell id="KzxnbteXfyFtNd1PhaOD-53" value="" style="html=1;whiteSpace=wrap;shape=isoCube2;backgroundOutline=1;isoAngle=15;" parent="1" vertex="1">
          <mxGeometry x="460" y="397" width="40" height="40" as="geometry" />
        </mxCell>
        <mxCell id="KzxnbteXfyFtNd1PhaOD-54" value="" style="html=1;whiteSpace=wrap;shape=isoCube2;backgroundOutline=1;isoAngle=15;fillColor=#dae8fc;strokeColor=#6c8ebf;" parent="1" vertex="1">
          <mxGeometry x="440" y="407" width="40" height="40" as="geometry" />
        </mxCell>
        <mxCell id="KzxnbteXfyFtNd1PhaOD-55" value="" style="html=1;whiteSpace=wrap;shape=isoCube2;backgroundOutline=1;isoAngle=15;" parent="1" vertex="1">
          <mxGeometry x="520" y="387" width="40" height="40" as="geometry" />
        </mxCell>
        <mxCell id="KzxnbteXfyFtNd1PhaOD-56" value="" style="html=1;whiteSpace=wrap;shape=isoCube2;backgroundOutline=1;isoAngle=15;" parent="1" vertex="1">
          <mxGeometry x="500" y="397" width="40" height="40" as="geometry" />
        </mxCell>
        <mxCell id="KzxnbteXfyFtNd1PhaOD-57" value="" style="html=1;whiteSpace=wrap;shape=isoCube2;backgroundOutline=1;isoAngle=15;" parent="1" vertex="1">
          <mxGeometry x="480" y="407" width="40" height="40" as="geometry" />
        </mxCell>
        <mxCell id="KzxnbteXfyFtNd1PhaOD-58" value="" style="html=1;whiteSpace=wrap;shape=isoCube2;backgroundOutline=1;isoAngle=15;fillColor=#dae8fc;strokeColor=#6c8ebf;" parent="1" vertex="1">
          <mxGeometry x="460" y="417" width="40" height="40" as="geometry" />
        </mxCell>
        <mxCell id="KzxnbteXfyFtNd1PhaOD-59" value="" style="html=1;whiteSpace=wrap;shape=isoCube2;backgroundOutline=1;isoAngle=15;" parent="1" vertex="1">
          <mxGeometry x="540" y="397" width="40" height="40" as="geometry" />
        </mxCell>
        <mxCell id="KzxnbteXfyFtNd1PhaOD-60" value="" style="html=1;whiteSpace=wrap;shape=isoCube2;backgroundOutline=1;isoAngle=15;" parent="1" vertex="1">
          <mxGeometry x="520" y="407" width="40" height="40" as="geometry" />
        </mxCell>
        <mxCell id="KzxnbteXfyFtNd1PhaOD-61" value="" style="html=1;whiteSpace=wrap;shape=isoCube2;backgroundOutline=1;isoAngle=15;" parent="1" vertex="1">
          <mxGeometry x="500" y="417" width="40" height="40" as="geometry" />
        </mxCell>
        <mxCell id="KzxnbteXfyFtNd1PhaOD-62" value="" style="html=1;whiteSpace=wrap;shape=isoCube2;backgroundOutline=1;isoAngle=15;fillColor=#dae8fc;strokeColor=#6c8ebf;" parent="1" vertex="1">
          <mxGeometry x="480" y="427" width="40" height="40" as="geometry" />
        </mxCell>
        <mxCell id="KzxnbteXfyFtNd1PhaOD-63" value="" style="html=1;whiteSpace=wrap;shape=isoCube2;backgroundOutline=1;isoAngle=15;" parent="1" vertex="1">
          <mxGeometry x="560" y="407" width="40" height="40" as="geometry" />
        </mxCell>
        <mxCell id="KzxnbteXfyFtNd1PhaOD-64" value="" style="html=1;whiteSpace=wrap;shape=isoCube2;backgroundOutline=1;isoAngle=15;" parent="1" vertex="1">
          <mxGeometry x="540" y="417" width="40" height="40" as="geometry" />
        </mxCell>
        <mxCell id="KzxnbteXfyFtNd1PhaOD-65" value="" style="html=1;whiteSpace=wrap;shape=isoCube2;backgroundOutline=1;isoAngle=15;" parent="1" vertex="1">
          <mxGeometry x="520" y="427" width="40" height="40" as="geometry" />
        </mxCell>
        <mxCell id="KzxnbteXfyFtNd1PhaOD-66" value="" style="html=1;whiteSpace=wrap;shape=isoCube2;backgroundOutline=1;isoAngle=15;fillColor=#dae8fc;strokeColor=#6c8ebf;" parent="1" vertex="1">
          <mxGeometry x="500" y="437" width="40" height="40" as="geometry" />
        </mxCell>
        <mxCell id="KzxnbteXfyFtNd1PhaOD-67" value="" style="html=1;whiteSpace=wrap;shape=isoCube2;backgroundOutline=1;isoAngle=15;fillColor=#dae8fc;strokeColor=#6c8ebf;" parent="1" vertex="1">
          <mxGeometry x="500" y="357" width="40" height="40" as="geometry" />
        </mxCell>
        <mxCell id="KzxnbteXfyFtNd1PhaOD-68" value="" style="html=1;whiteSpace=wrap;shape=isoCube2;backgroundOutline=1;isoAngle=15;fillColor=#dae8fc;strokeColor=#6c8ebf;" parent="1" vertex="1">
          <mxGeometry x="480" y="367" width="40" height="40" as="geometry" />
        </mxCell>
        <mxCell id="KzxnbteXfyFtNd1PhaOD-69" value="" style="html=1;whiteSpace=wrap;shape=isoCube2;backgroundOutline=1;isoAngle=15;fillColor=#dae8fc;strokeColor=#6c8ebf;" parent="1" vertex="1">
          <mxGeometry x="460" y="377" width="40" height="40" as="geometry" />
        </mxCell>
        <mxCell id="KzxnbteXfyFtNd1PhaOD-70" value="" style="html=1;whiteSpace=wrap;shape=isoCube2;backgroundOutline=1;isoAngle=15;fillColor=#dae8fc;strokeColor=#6c8ebf;" parent="1" vertex="1">
          <mxGeometry x="440" y="387" width="40" height="40" as="geometry" />
        </mxCell>
        <mxCell id="KzxnbteXfyFtNd1PhaOD-71" value="" style="html=1;whiteSpace=wrap;shape=isoCube2;backgroundOutline=1;isoAngle=15;fillColor=#dae8fc;strokeColor=#6c8ebf;" parent="1" vertex="1">
          <mxGeometry x="520" y="367" width="40" height="40" as="geometry" />
        </mxCell>
        <mxCell id="KzxnbteXfyFtNd1PhaOD-72" value="" style="html=1;whiteSpace=wrap;shape=isoCube2;backgroundOutline=1;isoAngle=15;fillColor=#dae8fc;strokeColor=#6c8ebf;" parent="1" vertex="1">
          <mxGeometry x="500" y="377" width="40" height="40" as="geometry" />
        </mxCell>
        <mxCell id="KzxnbteXfyFtNd1PhaOD-73" value="" style="html=1;whiteSpace=wrap;shape=isoCube2;backgroundOutline=1;isoAngle=15;fillColor=#dae8fc;strokeColor=#6c8ebf;" parent="1" vertex="1">
          <mxGeometry x="480" y="387" width="40" height="40" as="geometry" />
        </mxCell>
        <mxCell id="KzxnbteXfyFtNd1PhaOD-74" value="" style="html=1;whiteSpace=wrap;shape=isoCube2;backgroundOutline=1;isoAngle=15;fillColor=#dae8fc;strokeColor=#6c8ebf;" parent="1" vertex="1">
          <mxGeometry x="460" y="397" width="40" height="40" as="geometry" />
        </mxCell>
        <mxCell id="KzxnbteXfyFtNd1PhaOD-75" value="" style="html=1;whiteSpace=wrap;shape=isoCube2;backgroundOutline=1;isoAngle=15;fillColor=#dae8fc;strokeColor=#6c8ebf;" parent="1" vertex="1">
          <mxGeometry x="540" y="377" width="40" height="40" as="geometry" />
        </mxCell>
        <mxCell id="KzxnbteXfyFtNd1PhaOD-76" value="" style="html=1;whiteSpace=wrap;shape=isoCube2;backgroundOutline=1;isoAngle=15;fillColor=#dae8fc;strokeColor=#6c8ebf;" parent="1" vertex="1">
          <mxGeometry x="520" y="387" width="40" height="40" as="geometry" />
        </mxCell>
        <mxCell id="KzxnbteXfyFtNd1PhaOD-77" value="" style="html=1;whiteSpace=wrap;shape=isoCube2;backgroundOutline=1;isoAngle=15;fillColor=#dae8fc;strokeColor=#6c8ebf;" parent="1" vertex="1">
          <mxGeometry x="500" y="397" width="40" height="40" as="geometry" />
        </mxCell>
        <mxCell id="KzxnbteXfyFtNd1PhaOD-78" value="" style="html=1;whiteSpace=wrap;shape=isoCube2;backgroundOutline=1;isoAngle=15;fillColor=#dae8fc;strokeColor=#6c8ebf;" parent="1" vertex="1">
          <mxGeometry x="480" y="407" width="40" height="40" as="geometry" />
        </mxCell>
        <mxCell id="KzxnbteXfyFtNd1PhaOD-79" value="" style="html=1;whiteSpace=wrap;shape=isoCube2;backgroundOutline=1;isoAngle=15;fillColor=#dae8fc;strokeColor=#6c8ebf;" parent="1" vertex="1">
          <mxGeometry x="560" y="387" width="40" height="40" as="geometry" />
        </mxCell>
        <mxCell id="KzxnbteXfyFtNd1PhaOD-80" value="" style="html=1;whiteSpace=wrap;shape=isoCube2;backgroundOutline=1;isoAngle=15;fillColor=#dae8fc;strokeColor=#6c8ebf;" parent="1" vertex="1">
          <mxGeometry x="540" y="397" width="40" height="40" as="geometry" />
        </mxCell>
        <mxCell id="KzxnbteXfyFtNd1PhaOD-81" value="" style="html=1;whiteSpace=wrap;shape=isoCube2;backgroundOutline=1;isoAngle=15;fillColor=#dae8fc;strokeColor=#6c8ebf;" parent="1" vertex="1">
          <mxGeometry x="520" y="407" width="40" height="40" as="geometry" />
        </mxCell>
        <mxCell id="KzxnbteXfyFtNd1PhaOD-82" value="" style="html=1;whiteSpace=wrap;shape=isoCube2;backgroundOutline=1;isoAngle=15;fillColor=#dae8fc;strokeColor=#6c8ebf;" parent="1" vertex="1">
          <mxGeometry x="500" y="417" width="40" height="40" as="geometry" />
        </mxCell>
        <mxCell id="KzxnbteXfyFtNd1PhaOD-83" value="H" style="text;html=1;align=center;verticalAlign=middle;whiteSpace=wrap;rounded=0;fontStyle=1" parent="1" vertex="1">
          <mxGeometry x="415" y="417" width="20" height="30" as="geometry" />
        </mxCell>
        <mxCell id="KzxnbteXfyFtNd1PhaOD-84" value="T" style="text;html=1;align=center;verticalAlign=middle;whiteSpace=wrap;rounded=0;fontStyle=1" parent="1" vertex="1">
          <mxGeometry x="475" y="497" width="20" height="30" as="geometry" />
        </mxCell>
        <mxCell id="KzxnbteXfyFtNd1PhaOD-85" value="B" style="text;html=1;align=center;verticalAlign=middle;whiteSpace=wrap;rounded=0;fontStyle=1" parent="1" vertex="1">
          <mxGeometry x="442" y="357" width="40" height="30" as="geometry" />
        </mxCell>
        <mxCell id="KzxnbteXfyFtNd1PhaOD-86" value="" style="html=1;whiteSpace=wrap;shape=isoCube2;backgroundOutline=1;isoAngle=15;fillColor=#d5e8d4;strokeColor=#82b366;" parent="1" vertex="1">
          <mxGeometry x="580" y="457" width="40" height="40" as="geometry" />
        </mxCell>
        <mxCell id="KzxnbteXfyFtNd1PhaOD-87" value="" style="html=1;whiteSpace=wrap;shape=isoCube2;backgroundOutline=1;isoAngle=15;fillColor=#d5e8d4;strokeColor=#82b366;" parent="1" vertex="1">
          <mxGeometry x="560" y="467" width="40" height="40" as="geometry" />
        </mxCell>
        <mxCell id="KzxnbteXfyFtNd1PhaOD-88" value="" style="html=1;whiteSpace=wrap;shape=isoCube2;backgroundOutline=1;isoAngle=15;fillColor=#d5e8d4;strokeColor=#82b366;" parent="1" vertex="1">
          <mxGeometry x="540" y="477" width="40" height="40" as="geometry" />
        </mxCell>
        <mxCell id="KzxnbteXfyFtNd1PhaOD-89" value="" style="html=1;whiteSpace=wrap;shape=isoCube2;backgroundOutline=1;isoAngle=15;fillColor=#d5e8d4;strokeColor=#82b366;" parent="1" vertex="1">
          <mxGeometry x="520" y="487" width="40" height="40" as="geometry" />
        </mxCell>
        <mxCell id="KzxnbteXfyFtNd1PhaOD-90" value="" style="html=1;whiteSpace=wrap;shape=isoCube2;backgroundOutline=1;isoAngle=15;fillColor=#d5e8d4;strokeColor=#82b366;" parent="1" vertex="1">
          <mxGeometry x="580" y="437" width="40" height="40" as="geometry" />
        </mxCell>
        <mxCell id="KzxnbteXfyFtNd1PhaOD-91" value="" style="html=1;whiteSpace=wrap;shape=isoCube2;backgroundOutline=1;isoAngle=15;fillColor=#d5e8d4;strokeColor=#82b366;" parent="1" vertex="1">
          <mxGeometry x="560" y="447" width="40" height="40" as="geometry" />
        </mxCell>
        <mxCell id="KzxnbteXfyFtNd1PhaOD-92" value="" style="html=1;whiteSpace=wrap;shape=isoCube2;backgroundOutline=1;isoAngle=15;fillColor=#d5e8d4;strokeColor=#82b366;" parent="1" vertex="1">
          <mxGeometry x="540" y="457" width="40" height="40" as="geometry" />
        </mxCell>
        <mxCell id="KzxnbteXfyFtNd1PhaOD-93" value="" style="html=1;whiteSpace=wrap;shape=isoCube2;backgroundOutline=1;isoAngle=15;fillColor=#d5e8d4;strokeColor=#82b366;" parent="1" vertex="1">
          <mxGeometry x="520" y="467" width="40" height="40" as="geometry" />
        </mxCell>
        <mxCell id="KzxnbteXfyFtNd1PhaOD-94" value="" style="html=1;whiteSpace=wrap;shape=isoCube2;backgroundOutline=1;isoAngle=15;fillColor=#dae8fc;strokeColor=#6c8ebf;" parent="1" vertex="1">
          <mxGeometry x="580" y="417" width="40" height="40" as="geometry" />
        </mxCell>
        <mxCell id="KzxnbteXfyFtNd1PhaOD-95" value="" style="html=1;whiteSpace=wrap;shape=isoCube2;backgroundOutline=1;isoAngle=15;fillColor=#dae8fc;strokeColor=#6c8ebf;" parent="1" vertex="1">
          <mxGeometry x="560" y="427" width="40" height="40" as="geometry" />
        </mxCell>
        <mxCell id="KzxnbteXfyFtNd1PhaOD-96" value="" style="html=1;whiteSpace=wrap;shape=isoCube2;backgroundOutline=1;isoAngle=15;fillColor=#dae8fc;strokeColor=#6c8ebf;" parent="1" vertex="1">
          <mxGeometry x="540" y="437" width="40" height="40" as="geometry" />
        </mxCell>
        <mxCell id="KzxnbteXfyFtNd1PhaOD-97" value="" style="html=1;whiteSpace=wrap;shape=isoCube2;backgroundOutline=1;isoAngle=15;fillColor=#dae8fc;strokeColor=#6c8ebf;" parent="1" vertex="1">
          <mxGeometry x="520" y="447" width="40" height="40" as="geometry" />
        </mxCell>
        <mxCell id="KzxnbteXfyFtNd1PhaOD-98" value="" style="html=1;whiteSpace=wrap;shape=isoCube2;backgroundOutline=1;isoAngle=15;fillColor=#dae8fc;strokeColor=#6c8ebf;" parent="1" vertex="1">
          <mxGeometry x="580" y="397" width="40" height="40" as="geometry" />
        </mxCell>
        <mxCell id="KzxnbteXfyFtNd1PhaOD-99" value="" style="html=1;whiteSpace=wrap;shape=isoCube2;backgroundOutline=1;isoAngle=15;fillColor=#dae8fc;strokeColor=#6c8ebf;" parent="1" vertex="1">
          <mxGeometry x="560" y="407" width="40" height="40" as="geometry" />
        </mxCell>
        <mxCell id="KzxnbteXfyFtNd1PhaOD-100" value="" style="html=1;whiteSpace=wrap;shape=isoCube2;backgroundOutline=1;isoAngle=15;fillColor=#dae8fc;strokeColor=#6c8ebf;" parent="1" vertex="1">
          <mxGeometry x="540" y="417" width="40" height="40" as="geometry" />
        </mxCell>
        <mxCell id="KzxnbteXfyFtNd1PhaOD-101" value="" style="html=1;whiteSpace=wrap;shape=isoCube2;backgroundOutline=1;isoAngle=15;fillColor=#dae8fc;strokeColor=#6c8ebf;" parent="1" vertex="1">
          <mxGeometry x="520" y="427" width="40" height="40" as="geometry" />
        </mxCell>
        <mxCell id="KzxnbteXfyFtNd1PhaOD-102" value="" style="html=1;whiteSpace=wrap;shape=isoCube2;backgroundOutline=1;isoAngle=15;" parent="1" vertex="1">
          <mxGeometry x="500" y="700" width="40" height="40" as="geometry" />
        </mxCell>
        <mxCell id="KzxnbteXfyFtNd1PhaOD-103" value="" style="html=1;whiteSpace=wrap;shape=isoCube2;backgroundOutline=1;isoAngle=15;fontStyle=1" parent="1" vertex="1">
          <mxGeometry x="480" y="710" width="40" height="40" as="geometry" />
        </mxCell>
        <mxCell id="KzxnbteXfyFtNd1PhaOD-104" value="" style="html=1;whiteSpace=wrap;shape=isoCube2;backgroundOutline=1;isoAngle=15;fontStyle=1" parent="1" vertex="1">
          <mxGeometry x="460" y="720" width="40" height="40" as="geometry" />
        </mxCell>
        <mxCell id="KzxnbteXfyFtNd1PhaOD-105" value="" style="html=1;whiteSpace=wrap;shape=isoCube2;backgroundOutline=1;isoAngle=15;fillColor=#d5e8d4;strokeColor=#82b366;fontStyle=1" parent="1" vertex="1">
          <mxGeometry x="440" y="730" width="40" height="40" as="geometry" />
        </mxCell>
        <mxCell id="KzxnbteXfyFtNd1PhaOD-106" value="" style="html=1;whiteSpace=wrap;shape=isoCube2;backgroundOutline=1;isoAngle=15;" parent="1" vertex="1">
          <mxGeometry x="520" y="710" width="40" height="40" as="geometry" />
        </mxCell>
        <mxCell id="KzxnbteXfyFtNd1PhaOD-107" value="" style="html=1;whiteSpace=wrap;shape=isoCube2;backgroundOutline=1;isoAngle=15;" parent="1" vertex="1">
          <mxGeometry x="500" y="720" width="40" height="40" as="geometry" />
        </mxCell>
        <mxCell id="KzxnbteXfyFtNd1PhaOD-108" value="" style="html=1;whiteSpace=wrap;shape=isoCube2;backgroundOutline=1;isoAngle=15;fontStyle=1" parent="1" vertex="1">
          <mxGeometry x="480" y="730" width="40" height="40" as="geometry" />
        </mxCell>
        <mxCell id="KzxnbteXfyFtNd1PhaOD-109" value="" style="html=1;whiteSpace=wrap;shape=isoCube2;backgroundOutline=1;isoAngle=15;fillColor=#d5e8d4;strokeColor=#82b366;fontStyle=1" parent="1" vertex="1">
          <mxGeometry x="460" y="740" width="40" height="40" as="geometry" />
        </mxCell>
        <mxCell id="KzxnbteXfyFtNd1PhaOD-110" value="" style="html=1;whiteSpace=wrap;shape=isoCube2;backgroundOutline=1;isoAngle=15;" parent="1" vertex="1">
          <mxGeometry x="540" y="720" width="40" height="40" as="geometry" />
        </mxCell>
        <mxCell id="KzxnbteXfyFtNd1PhaOD-111" value="" style="html=1;whiteSpace=wrap;shape=isoCube2;backgroundOutline=1;isoAngle=15;" parent="1" vertex="1">
          <mxGeometry x="520" y="730" width="40" height="40" as="geometry" />
        </mxCell>
        <mxCell id="KzxnbteXfyFtNd1PhaOD-112" value="" style="html=1;whiteSpace=wrap;shape=isoCube2;backgroundOutline=1;isoAngle=15;" parent="1" vertex="1">
          <mxGeometry x="500" y="740" width="40" height="40" as="geometry" />
        </mxCell>
        <mxCell id="KzxnbteXfyFtNd1PhaOD-113" value="" style="html=1;whiteSpace=wrap;shape=isoCube2;backgroundOutline=1;isoAngle=15;fillColor=#d5e8d4;strokeColor=#82b366;fontStyle=1" parent="1" vertex="1">
          <mxGeometry x="480" y="750" width="40" height="40" as="geometry" />
        </mxCell>
        <mxCell id="KzxnbteXfyFtNd1PhaOD-114" value="" style="html=1;whiteSpace=wrap;shape=isoCube2;backgroundOutline=1;isoAngle=15;" parent="1" vertex="1">
          <mxGeometry x="560" y="730" width="40" height="40" as="geometry" />
        </mxCell>
        <mxCell id="KzxnbteXfyFtNd1PhaOD-115" value="" style="html=1;whiteSpace=wrap;shape=isoCube2;backgroundOutline=1;isoAngle=15;" parent="1" vertex="1">
          <mxGeometry x="540" y="740" width="40" height="40" as="geometry" />
        </mxCell>
        <mxCell id="KzxnbteXfyFtNd1PhaOD-116" value="" style="html=1;whiteSpace=wrap;shape=isoCube2;backgroundOutline=1;isoAngle=15;" parent="1" vertex="1">
          <mxGeometry x="520" y="750" width="40" height="40" as="geometry" />
        </mxCell>
        <mxCell id="KzxnbteXfyFtNd1PhaOD-117" value="" style="html=1;whiteSpace=wrap;shape=isoCube2;backgroundOutline=1;isoAngle=15;fillColor=#d5e8d4;strokeColor=#82b366;" parent="1" vertex="1">
          <mxGeometry x="500" y="760" width="40" height="40" as="geometry" />
        </mxCell>
        <mxCell id="KzxnbteXfyFtNd1PhaOD-118" value="" style="html=1;whiteSpace=wrap;shape=isoCube2;backgroundOutline=1;isoAngle=15;" parent="1" vertex="1">
          <mxGeometry x="500" y="680" width="40" height="40" as="geometry" />
        </mxCell>
        <mxCell id="KzxnbteXfyFtNd1PhaOD-119" value="" style="html=1;whiteSpace=wrap;shape=isoCube2;backgroundOutline=1;isoAngle=15;fontStyle=1" parent="1" vertex="1">
          <mxGeometry x="480" y="690" width="40" height="40" as="geometry" />
        </mxCell>
        <mxCell id="KzxnbteXfyFtNd1PhaOD-120" value="" style="html=1;whiteSpace=wrap;shape=isoCube2;backgroundOutline=1;isoAngle=15;fontStyle=1" parent="1" vertex="1">
          <mxGeometry x="460" y="700" width="40" height="40" as="geometry" />
        </mxCell>
        <mxCell id="KzxnbteXfyFtNd1PhaOD-121" value="" style="html=1;whiteSpace=wrap;shape=isoCube2;backgroundOutline=1;isoAngle=15;fillColor=#d5e8d4;strokeColor=#82b366;fontStyle=1" parent="1" vertex="1">
          <mxGeometry x="440" y="710" width="40" height="40" as="geometry" />
        </mxCell>
        <mxCell id="KzxnbteXfyFtNd1PhaOD-122" value="" style="html=1;whiteSpace=wrap;shape=isoCube2;backgroundOutline=1;isoAngle=15;" parent="1" vertex="1">
          <mxGeometry x="520" y="690" width="40" height="40" as="geometry" />
        </mxCell>
        <mxCell id="KzxnbteXfyFtNd1PhaOD-123" value="" style="html=1;whiteSpace=wrap;shape=isoCube2;backgroundOutline=1;isoAngle=15;" parent="1" vertex="1">
          <mxGeometry x="500" y="700" width="40" height="40" as="geometry" />
        </mxCell>
        <mxCell id="KzxnbteXfyFtNd1PhaOD-124" value="" style="html=1;whiteSpace=wrap;shape=isoCube2;backgroundOutline=1;isoAngle=15;fontStyle=1" parent="1" vertex="1">
          <mxGeometry x="480" y="710" width="40" height="40" as="geometry" />
        </mxCell>
        <mxCell id="KzxnbteXfyFtNd1PhaOD-125" value="" style="html=1;whiteSpace=wrap;shape=isoCube2;backgroundOutline=1;isoAngle=15;fillColor=#d5e8d4;strokeColor=#82b366;fontStyle=1" parent="1" vertex="1">
          <mxGeometry x="460" y="720" width="40" height="40" as="geometry" />
        </mxCell>
        <mxCell id="KzxnbteXfyFtNd1PhaOD-126" value="" style="html=1;whiteSpace=wrap;shape=isoCube2;backgroundOutline=1;isoAngle=15;" parent="1" vertex="1">
          <mxGeometry x="540" y="700" width="40" height="40" as="geometry" />
        </mxCell>
        <mxCell id="KzxnbteXfyFtNd1PhaOD-127" value="" style="html=1;whiteSpace=wrap;shape=isoCube2;backgroundOutline=1;isoAngle=15;" parent="1" vertex="1">
          <mxGeometry x="520" y="710" width="40" height="40" as="geometry" />
        </mxCell>
        <mxCell id="KzxnbteXfyFtNd1PhaOD-128" value="" style="html=1;whiteSpace=wrap;shape=isoCube2;backgroundOutline=1;isoAngle=15;" parent="1" vertex="1">
          <mxGeometry x="500" y="720" width="40" height="40" as="geometry" />
        </mxCell>
        <mxCell id="KzxnbteXfyFtNd1PhaOD-129" value="" style="html=1;whiteSpace=wrap;shape=isoCube2;backgroundOutline=1;isoAngle=15;fillColor=#d5e8d4;strokeColor=#82b366;fontStyle=1" parent="1" vertex="1">
          <mxGeometry x="480" y="730" width="40" height="40" as="geometry" />
        </mxCell>
        <mxCell id="KzxnbteXfyFtNd1PhaOD-130" value="" style="html=1;whiteSpace=wrap;shape=isoCube2;backgroundOutline=1;isoAngle=15;" parent="1" vertex="1">
          <mxGeometry x="560" y="710" width="40" height="40" as="geometry" />
        </mxCell>
        <mxCell id="KzxnbteXfyFtNd1PhaOD-131" value="" style="html=1;whiteSpace=wrap;shape=isoCube2;backgroundOutline=1;isoAngle=15;" parent="1" vertex="1">
          <mxGeometry x="540" y="720" width="40" height="40" as="geometry" />
        </mxCell>
        <mxCell id="KzxnbteXfyFtNd1PhaOD-132" value="" style="html=1;whiteSpace=wrap;shape=isoCube2;backgroundOutline=1;isoAngle=15;" parent="1" vertex="1">
          <mxGeometry x="520" y="730" width="40" height="40" as="geometry" />
        </mxCell>
        <mxCell id="KzxnbteXfyFtNd1PhaOD-133" value="" style="html=1;whiteSpace=wrap;shape=isoCube2;backgroundOutline=1;isoAngle=15;fillColor=#d5e8d4;strokeColor=#82b366;" parent="1" vertex="1">
          <mxGeometry x="500" y="740" width="40" height="40" as="geometry" />
        </mxCell>
        <mxCell id="KzxnbteXfyFtNd1PhaOD-134" value="" style="html=1;whiteSpace=wrap;shape=isoCube2;backgroundOutline=1;isoAngle=15;" parent="1" vertex="1">
          <mxGeometry x="500" y="660" width="40" height="40" as="geometry" />
        </mxCell>
        <mxCell id="KzxnbteXfyFtNd1PhaOD-135" value="" style="html=1;whiteSpace=wrap;shape=isoCube2;backgroundOutline=1;isoAngle=15;fontStyle=1" parent="1" vertex="1">
          <mxGeometry x="480" y="670" width="40" height="40" as="geometry" />
        </mxCell>
        <mxCell id="KzxnbteXfyFtNd1PhaOD-136" value="" style="html=1;whiteSpace=wrap;shape=isoCube2;backgroundOutline=1;isoAngle=15;fontStyle=1" parent="1" vertex="1">
          <mxGeometry x="460" y="680" width="40" height="40" as="geometry" />
        </mxCell>
        <mxCell id="KzxnbteXfyFtNd1PhaOD-137" value="" style="html=1;whiteSpace=wrap;shape=isoCube2;backgroundOutline=1;isoAngle=15;fillColor=#dae8fc;strokeColor=#6c8ebf;fontStyle=1" parent="1" vertex="1">
          <mxGeometry x="440" y="690" width="40" height="40" as="geometry" />
        </mxCell>
        <mxCell id="KzxnbteXfyFtNd1PhaOD-138" value="" style="html=1;whiteSpace=wrap;shape=isoCube2;backgroundOutline=1;isoAngle=15;" parent="1" vertex="1">
          <mxGeometry x="520" y="670" width="40" height="40" as="geometry" />
        </mxCell>
        <mxCell id="KzxnbteXfyFtNd1PhaOD-139" value="" style="html=1;whiteSpace=wrap;shape=isoCube2;backgroundOutline=1;isoAngle=15;" parent="1" vertex="1">
          <mxGeometry x="500" y="680" width="40" height="40" as="geometry" />
        </mxCell>
        <mxCell id="KzxnbteXfyFtNd1PhaOD-140" value="" style="html=1;whiteSpace=wrap;shape=isoCube2;backgroundOutline=1;isoAngle=15;fontStyle=1" parent="1" vertex="1">
          <mxGeometry x="480" y="690" width="40" height="40" as="geometry" />
        </mxCell>
        <mxCell id="KzxnbteXfyFtNd1PhaOD-141" value="" style="html=1;whiteSpace=wrap;shape=isoCube2;backgroundOutline=1;isoAngle=15;fillColor=#dae8fc;strokeColor=#6c8ebf;fontStyle=1" parent="1" vertex="1">
          <mxGeometry x="460" y="700" width="40" height="40" as="geometry" />
        </mxCell>
        <mxCell id="KzxnbteXfyFtNd1PhaOD-142" value="" style="html=1;whiteSpace=wrap;shape=isoCube2;backgroundOutline=1;isoAngle=15;" parent="1" vertex="1">
          <mxGeometry x="540" y="680" width="40" height="40" as="geometry" />
        </mxCell>
        <mxCell id="KzxnbteXfyFtNd1PhaOD-143" value="" style="html=1;whiteSpace=wrap;shape=isoCube2;backgroundOutline=1;isoAngle=15;" parent="1" vertex="1">
          <mxGeometry x="520" y="690" width="40" height="40" as="geometry" />
        </mxCell>
        <mxCell id="KzxnbteXfyFtNd1PhaOD-144" value="" style="html=1;whiteSpace=wrap;shape=isoCube2;backgroundOutline=1;isoAngle=15;" parent="1" vertex="1">
          <mxGeometry x="500" y="700" width="40" height="40" as="geometry" />
        </mxCell>
        <mxCell id="KzxnbteXfyFtNd1PhaOD-145" value="" style="html=1;whiteSpace=wrap;shape=isoCube2;backgroundOutline=1;isoAngle=15;fillColor=#dae8fc;strokeColor=#6c8ebf;fontStyle=1" parent="1" vertex="1">
          <mxGeometry x="480" y="710" width="40" height="40" as="geometry" />
        </mxCell>
        <mxCell id="KzxnbteXfyFtNd1PhaOD-146" value="" style="html=1;whiteSpace=wrap;shape=isoCube2;backgroundOutline=1;isoAngle=15;" parent="1" vertex="1">
          <mxGeometry x="560" y="690" width="40" height="40" as="geometry" />
        </mxCell>
        <mxCell id="KzxnbteXfyFtNd1PhaOD-147" value="" style="html=1;whiteSpace=wrap;shape=isoCube2;backgroundOutline=1;isoAngle=15;" parent="1" vertex="1">
          <mxGeometry x="540" y="700" width="40" height="40" as="geometry" />
        </mxCell>
        <mxCell id="KzxnbteXfyFtNd1PhaOD-148" value="" style="html=1;whiteSpace=wrap;shape=isoCube2;backgroundOutline=1;isoAngle=15;" parent="1" vertex="1">
          <mxGeometry x="520" y="710" width="40" height="40" as="geometry" />
        </mxCell>
        <mxCell id="KzxnbteXfyFtNd1PhaOD-149" value="" style="html=1;whiteSpace=wrap;shape=isoCube2;backgroundOutline=1;isoAngle=15;fillColor=#dae8fc;strokeColor=#6c8ebf;" parent="1" vertex="1">
          <mxGeometry x="500" y="720" width="40" height="40" as="geometry" />
        </mxCell>
        <mxCell id="KzxnbteXfyFtNd1PhaOD-150" value="" style="html=1;whiteSpace=wrap;shape=isoCube2;backgroundOutline=1;isoAngle=15;fillColor=#fff2cc;strokeColor=#d6b656;" parent="1" vertex="1">
          <mxGeometry x="500" y="640" width="40" height="40" as="geometry" />
        </mxCell>
        <mxCell id="KzxnbteXfyFtNd1PhaOD-151" value="" style="html=1;whiteSpace=wrap;shape=isoCube2;backgroundOutline=1;isoAngle=15;fillColor=#fff2cc;strokeColor=#d6b656;fontStyle=1" parent="1" vertex="1">
          <mxGeometry x="480" y="650" width="40" height="40" as="geometry" />
        </mxCell>
        <mxCell id="KzxnbteXfyFtNd1PhaOD-152" value="" style="html=1;whiteSpace=wrap;shape=isoCube2;backgroundOutline=1;isoAngle=15;fillColor=#dae8fc;strokeColor=#6c8ebf;fontStyle=1" parent="1" vertex="1">
          <mxGeometry x="460" y="660" width="40" height="40" as="geometry" />
        </mxCell>
        <mxCell id="KzxnbteXfyFtNd1PhaOD-153" value="" style="html=1;whiteSpace=wrap;shape=isoCube2;backgroundOutline=1;isoAngle=15;fillColor=#dae8fc;strokeColor=#6c8ebf;fontStyle=1" parent="1" vertex="1">
          <mxGeometry x="440" y="670" width="40" height="40" as="geometry" />
        </mxCell>
        <mxCell id="KzxnbteXfyFtNd1PhaOD-154" value="" style="html=1;whiteSpace=wrap;shape=isoCube2;backgroundOutline=1;isoAngle=15;fillColor=#fff2cc;strokeColor=#d6b656;" parent="1" vertex="1">
          <mxGeometry x="520" y="650" width="40" height="40" as="geometry" />
        </mxCell>
        <mxCell id="KzxnbteXfyFtNd1PhaOD-155" value="" style="html=1;whiteSpace=wrap;shape=isoCube2;backgroundOutline=1;isoAngle=15;fillColor=#fff2cc;strokeColor=#d6b656;" parent="1" vertex="1">
          <mxGeometry x="500" y="660" width="40" height="40" as="geometry" />
        </mxCell>
        <mxCell id="KzxnbteXfyFtNd1PhaOD-156" value="" style="html=1;whiteSpace=wrap;shape=isoCube2;backgroundOutline=1;isoAngle=15;fillColor=#dae8fc;strokeColor=#6c8ebf;fontStyle=1" parent="1" vertex="1">
          <mxGeometry x="480" y="670" width="40" height="40" as="geometry" />
        </mxCell>
        <mxCell id="KzxnbteXfyFtNd1PhaOD-157" value="" style="html=1;whiteSpace=wrap;shape=isoCube2;backgroundOutline=1;isoAngle=15;fillColor=#dae8fc;strokeColor=#6c8ebf;fontStyle=1" parent="1" vertex="1">
          <mxGeometry x="460" y="680" width="40" height="40" as="geometry" />
        </mxCell>
        <mxCell id="KzxnbteXfyFtNd1PhaOD-158" value="" style="html=1;whiteSpace=wrap;shape=isoCube2;backgroundOutline=1;isoAngle=15;fillColor=#fff2cc;strokeColor=#d6b656;" parent="1" vertex="1">
          <mxGeometry x="540" y="660" width="40" height="40" as="geometry" />
        </mxCell>
        <mxCell id="KzxnbteXfyFtNd1PhaOD-159" value="" style="html=1;whiteSpace=wrap;shape=isoCube2;backgroundOutline=1;isoAngle=15;fillColor=#fff2cc;strokeColor=#d6b656;" parent="1" vertex="1">
          <mxGeometry x="520" y="670" width="40" height="40" as="geometry" />
        </mxCell>
        <mxCell id="KzxnbteXfyFtNd1PhaOD-160" value="" style="html=1;whiteSpace=wrap;shape=isoCube2;backgroundOutline=1;isoAngle=15;fillColor=#dae8fc;strokeColor=#6c8ebf;" parent="1" vertex="1">
          <mxGeometry x="500" y="680" width="40" height="40" as="geometry" />
        </mxCell>
        <mxCell id="KzxnbteXfyFtNd1PhaOD-161" value="" style="html=1;whiteSpace=wrap;shape=isoCube2;backgroundOutline=1;isoAngle=15;fillColor=#dae8fc;strokeColor=#6c8ebf;fontStyle=1" parent="1" vertex="1">
          <mxGeometry x="480" y="690" width="40" height="40" as="geometry" />
        </mxCell>
        <mxCell id="KzxnbteXfyFtNd1PhaOD-162" value="" style="html=1;whiteSpace=wrap;shape=isoCube2;backgroundOutline=1;isoAngle=15;fillColor=#fff2cc;strokeColor=#d6b656;" parent="1" vertex="1">
          <mxGeometry x="560" y="670" width="40" height="40" as="geometry" />
        </mxCell>
        <mxCell id="KzxnbteXfyFtNd1PhaOD-163" value="" style="html=1;whiteSpace=wrap;shape=isoCube2;backgroundOutline=1;isoAngle=15;fillColor=#fff2cc;strokeColor=#d6b656;" parent="1" vertex="1">
          <mxGeometry x="540" y="680" width="40" height="40" as="geometry" />
        </mxCell>
        <mxCell id="KzxnbteXfyFtNd1PhaOD-164" value="" style="html=1;whiteSpace=wrap;shape=isoCube2;backgroundOutline=1;isoAngle=15;fillColor=#dae8fc;strokeColor=#6c8ebf;" parent="1" vertex="1">
          <mxGeometry x="520" y="690" width="40" height="40" as="geometry" />
        </mxCell>
        <mxCell id="KzxnbteXfyFtNd1PhaOD-165" value="" style="html=1;whiteSpace=wrap;shape=isoCube2;backgroundOutline=1;isoAngle=15;fillColor=#dae8fc;strokeColor=#6c8ebf;" parent="1" vertex="1">
          <mxGeometry x="500" y="700" width="40" height="40" as="geometry" />
        </mxCell>
        <mxCell id="KzxnbteXfyFtNd1PhaOD-166" value="T" style="text;html=1;align=center;verticalAlign=middle;whiteSpace=wrap;rounded=0;fontStyle=1" parent="1" vertex="1">
          <mxGeometry x="475" y="780" width="20" height="30" as="geometry" />
        </mxCell>
        <mxCell id="KzxnbteXfyFtNd1PhaOD-167" value="B" style="text;html=1;align=center;verticalAlign=middle;whiteSpace=wrap;rounded=0;fontStyle=1" parent="1" vertex="1">
          <mxGeometry x="442" y="640" width="40" height="30" as="geometry" />
        </mxCell>
        <mxCell id="KzxnbteXfyFtNd1PhaOD-168" value="" style="html=1;whiteSpace=wrap;shape=isoCube2;backgroundOutline=1;isoAngle=15;fillColor=#f8cecc;strokeColor=#b85450;" parent="1" vertex="1">
          <mxGeometry x="580" y="740" width="40" height="40" as="geometry" />
        </mxCell>
        <mxCell id="KzxnbteXfyFtNd1PhaOD-169" value="" style="html=1;whiteSpace=wrap;shape=isoCube2;backgroundOutline=1;isoAngle=15;fillColor=#f8cecc;strokeColor=#b85450;" parent="1" vertex="1">
          <mxGeometry x="560" y="750" width="40" height="40" as="geometry" />
        </mxCell>
        <mxCell id="KzxnbteXfyFtNd1PhaOD-170" value="" style="html=1;whiteSpace=wrap;shape=isoCube2;backgroundOutline=1;isoAngle=15;fillColor=#d5e8d4;strokeColor=#82b366;" parent="1" vertex="1">
          <mxGeometry x="540" y="760" width="40" height="40" as="geometry" />
        </mxCell>
        <mxCell id="KzxnbteXfyFtNd1PhaOD-171" value="" style="html=1;whiteSpace=wrap;shape=isoCube2;backgroundOutline=1;isoAngle=15;fillColor=#d5e8d4;strokeColor=#82b366;" parent="1" vertex="1">
          <mxGeometry x="520" y="770" width="40" height="40" as="geometry" />
        </mxCell>
        <mxCell id="KzxnbteXfyFtNd1PhaOD-172" value="" style="html=1;whiteSpace=wrap;shape=isoCube2;backgroundOutline=1;isoAngle=15;fillColor=#f8cecc;strokeColor=#b85450;" parent="1" vertex="1">
          <mxGeometry x="580" y="720" width="40" height="40" as="geometry" />
        </mxCell>
        <mxCell id="KzxnbteXfyFtNd1PhaOD-173" value="" style="html=1;whiteSpace=wrap;shape=isoCube2;backgroundOutline=1;isoAngle=15;fillColor=#f8cecc;strokeColor=#b85450;" parent="1" vertex="1">
          <mxGeometry x="560" y="730" width="40" height="40" as="geometry" />
        </mxCell>
        <mxCell id="KzxnbteXfyFtNd1PhaOD-174" value="" style="html=1;whiteSpace=wrap;shape=isoCube2;backgroundOutline=1;isoAngle=15;fillColor=#d5e8d4;strokeColor=#82b366;" parent="1" vertex="1">
          <mxGeometry x="540" y="740" width="40" height="40" as="geometry" />
        </mxCell>
        <mxCell id="KzxnbteXfyFtNd1PhaOD-175" value="" style="html=1;whiteSpace=wrap;shape=isoCube2;backgroundOutline=1;isoAngle=15;fillColor=#d5e8d4;strokeColor=#82b366;" parent="1" vertex="1">
          <mxGeometry x="520" y="750" width="40" height="40" as="geometry" />
        </mxCell>
        <mxCell id="KzxnbteXfyFtNd1PhaOD-176" value="" style="html=1;whiteSpace=wrap;shape=isoCube2;backgroundOutline=1;isoAngle=15;fillColor=#fff2cc;strokeColor=#d6b656;" parent="1" vertex="1">
          <mxGeometry x="580" y="700" width="40" height="40" as="geometry" />
        </mxCell>
        <mxCell id="KzxnbteXfyFtNd1PhaOD-177" value="" style="html=1;whiteSpace=wrap;shape=isoCube2;backgroundOutline=1;isoAngle=15;fillColor=#fff2cc;strokeColor=#d6b656;" parent="1" vertex="1">
          <mxGeometry x="560" y="710" width="40" height="40" as="geometry" />
        </mxCell>
        <mxCell id="KzxnbteXfyFtNd1PhaOD-178" value="" style="html=1;whiteSpace=wrap;shape=isoCube2;backgroundOutline=1;isoAngle=15;fillColor=#dae8fc;strokeColor=#6c8ebf;" parent="1" vertex="1">
          <mxGeometry x="540" y="720" width="40" height="40" as="geometry" />
        </mxCell>
        <mxCell id="KzxnbteXfyFtNd1PhaOD-179" value="" style="html=1;whiteSpace=wrap;shape=isoCube2;backgroundOutline=1;isoAngle=15;fillColor=#dae8fc;strokeColor=#6c8ebf;" parent="1" vertex="1">
          <mxGeometry x="520" y="730" width="40" height="40" as="geometry" />
        </mxCell>
        <mxCell id="KzxnbteXfyFtNd1PhaOD-180" value="" style="html=1;whiteSpace=wrap;shape=isoCube2;backgroundOutline=1;isoAngle=15;fillColor=#fff2cc;strokeColor=#d6b656;" parent="1" vertex="1">
          <mxGeometry x="580" y="680" width="40" height="40" as="geometry" />
        </mxCell>
        <mxCell id="KzxnbteXfyFtNd1PhaOD-181" value="" style="html=1;whiteSpace=wrap;shape=isoCube2;backgroundOutline=1;isoAngle=15;fillColor=#fff2cc;strokeColor=#d6b656;" parent="1" vertex="1">
          <mxGeometry x="560" y="690" width="40" height="40" as="geometry" />
        </mxCell>
        <mxCell id="KzxnbteXfyFtNd1PhaOD-182" value="" style="html=1;whiteSpace=wrap;shape=isoCube2;backgroundOutline=1;isoAngle=15;fillColor=#dae8fc;strokeColor=#6c8ebf;" parent="1" vertex="1">
          <mxGeometry x="540" y="700" width="40" height="40" as="geometry" />
        </mxCell>
        <mxCell id="KzxnbteXfyFtNd1PhaOD-183" value="" style="html=1;whiteSpace=wrap;shape=isoCube2;backgroundOutline=1;isoAngle=15;fillColor=#dae8fc;strokeColor=#6c8ebf;" parent="1" vertex="1">
          <mxGeometry x="520" y="710" width="40" height="40" as="geometry" />
        </mxCell>
        <mxCell id="KzxnbteXfyFtNd1PhaOD-184" value="" style="html=1;whiteSpace=wrap;shape=isoCube2;backgroundOutline=1;isoAngle=15;" parent="1" vertex="1">
          <mxGeometry x="135" y="700" width="40" height="40" as="geometry" />
        </mxCell>
        <mxCell id="KzxnbteXfyFtNd1PhaOD-185" value="" style="html=1;whiteSpace=wrap;shape=isoCube2;backgroundOutline=1;isoAngle=15;fontStyle=1" parent="1" vertex="1">
          <mxGeometry x="115" y="710" width="40" height="40" as="geometry" />
        </mxCell>
        <mxCell id="KzxnbteXfyFtNd1PhaOD-186" value="" style="html=1;whiteSpace=wrap;shape=isoCube2;backgroundOutline=1;isoAngle=15;fontStyle=1" parent="1" vertex="1">
          <mxGeometry x="95" y="720" width="40" height="40" as="geometry" />
        </mxCell>
        <mxCell id="KzxnbteXfyFtNd1PhaOD-187" value="" style="html=1;whiteSpace=wrap;shape=isoCube2;backgroundOutline=1;isoAngle=15;fillColor=#dae8fc;strokeColor=#6c8ebf;fontStyle=1" parent="1" vertex="1">
          <mxGeometry x="75" y="730" width="40" height="40" as="geometry" />
        </mxCell>
        <mxCell id="KzxnbteXfyFtNd1PhaOD-188" value="" style="html=1;whiteSpace=wrap;shape=isoCube2;backgroundOutline=1;isoAngle=15;fillColor=#d5e8d4;strokeColor=#82b366;" parent="1" vertex="1">
          <mxGeometry x="155" y="710" width="40" height="40" as="geometry" />
        </mxCell>
        <mxCell id="KzxnbteXfyFtNd1PhaOD-189" value="" style="html=1;whiteSpace=wrap;shape=isoCube2;backgroundOutline=1;isoAngle=15;" parent="1" vertex="1">
          <mxGeometry x="135" y="720" width="40" height="40" as="geometry" />
        </mxCell>
        <mxCell id="KzxnbteXfyFtNd1PhaOD-190" value="" style="html=1;whiteSpace=wrap;shape=isoCube2;backgroundOutline=1;isoAngle=15;fontStyle=1" parent="1" vertex="1">
          <mxGeometry x="115" y="730" width="40" height="40" as="geometry" />
        </mxCell>
        <mxCell id="KzxnbteXfyFtNd1PhaOD-191" value="" style="html=1;whiteSpace=wrap;shape=isoCube2;backgroundOutline=1;isoAngle=15;fillColor=#dae8fc;strokeColor=#6c8ebf;fontStyle=1" parent="1" vertex="1">
          <mxGeometry x="95" y="740" width="40" height="40" as="geometry" />
        </mxCell>
        <mxCell id="KzxnbteXfyFtNd1PhaOD-192" value="" style="html=1;whiteSpace=wrap;shape=isoCube2;backgroundOutline=1;isoAngle=15;fillColor=#d5e8d4;strokeColor=#82b366;" parent="1" vertex="1">
          <mxGeometry x="175" y="720" width="40" height="40" as="geometry" />
        </mxCell>
        <mxCell id="KzxnbteXfyFtNd1PhaOD-193" value="" style="html=1;whiteSpace=wrap;shape=isoCube2;backgroundOutline=1;isoAngle=15;fillColor=#d5e8d4;strokeColor=#82b366;" parent="1" vertex="1">
          <mxGeometry x="155" y="730" width="40" height="40" as="geometry" />
        </mxCell>
        <mxCell id="KzxnbteXfyFtNd1PhaOD-194" value="" style="html=1;whiteSpace=wrap;shape=isoCube2;backgroundOutline=1;isoAngle=15;" parent="1" vertex="1">
          <mxGeometry x="135" y="740" width="40" height="40" as="geometry" />
        </mxCell>
        <mxCell id="KzxnbteXfyFtNd1PhaOD-195" value="" style="html=1;whiteSpace=wrap;shape=isoCube2;backgroundOutline=1;isoAngle=15;fillColor=#d5e8d4;strokeColor=#82b366;fontStyle=1" parent="1" vertex="1">
          <mxGeometry x="115" y="750" width="40" height="40" as="geometry" />
        </mxCell>
        <mxCell id="KzxnbteXfyFtNd1PhaOD-196" value="" style="html=1;whiteSpace=wrap;shape=isoCube2;backgroundOutline=1;isoAngle=15;fillColor=#d5e8d4;strokeColor=#82b366;" parent="1" vertex="1">
          <mxGeometry x="195" y="730" width="40" height="40" as="geometry" />
        </mxCell>
        <mxCell id="KzxnbteXfyFtNd1PhaOD-197" value="" style="html=1;whiteSpace=wrap;shape=isoCube2;backgroundOutline=1;isoAngle=15;fillColor=#d5e8d4;strokeColor=#82b366;" parent="1" vertex="1">
          <mxGeometry x="175" y="740" width="40" height="40" as="geometry" />
        </mxCell>
        <mxCell id="KzxnbteXfyFtNd1PhaOD-198" value="" style="html=1;whiteSpace=wrap;shape=isoCube2;backgroundOutline=1;isoAngle=15;fillColor=#d5e8d4;strokeColor=#82b366;" parent="1" vertex="1">
          <mxGeometry x="155" y="750" width="40" height="40" as="geometry" />
        </mxCell>
        <mxCell id="KzxnbteXfyFtNd1PhaOD-199" value="" style="html=1;whiteSpace=wrap;shape=isoCube2;backgroundOutline=1;isoAngle=15;fillColor=#d5e8d4;strokeColor=#82b366;" parent="1" vertex="1">
          <mxGeometry x="135" y="760" width="40" height="40" as="geometry" />
        </mxCell>
        <mxCell id="KzxnbteXfyFtNd1PhaOD-200" value="" style="html=1;whiteSpace=wrap;shape=isoCube2;backgroundOutline=1;isoAngle=15;fillColor=#d5e8d4;strokeColor=#82b366;" parent="1" vertex="1">
          <mxGeometry x="135" y="680" width="40" height="40" as="geometry" />
        </mxCell>
        <mxCell id="KzxnbteXfyFtNd1PhaOD-201" value="" style="html=1;whiteSpace=wrap;shape=isoCube2;backgroundOutline=1;isoAngle=15;fontStyle=1" parent="1" vertex="1">
          <mxGeometry x="115" y="690" width="40" height="40" as="geometry" />
        </mxCell>
        <mxCell id="KzxnbteXfyFtNd1PhaOD-202" value="" style="html=1;whiteSpace=wrap;shape=isoCube2;backgroundOutline=1;isoAngle=15;fontStyle=1" parent="1" vertex="1">
          <mxGeometry x="95" y="700" width="40" height="40" as="geometry" />
        </mxCell>
        <mxCell id="KzxnbteXfyFtNd1PhaOD-203" value="" style="html=1;whiteSpace=wrap;shape=isoCube2;backgroundOutline=1;isoAngle=15;fillColor=#dae8fc;strokeColor=#6c8ebf;fontStyle=1" parent="1" vertex="1">
          <mxGeometry x="75" y="710" width="40" height="40" as="geometry" />
        </mxCell>
        <mxCell id="KzxnbteXfyFtNd1PhaOD-204" value="" style="html=1;whiteSpace=wrap;shape=isoCube2;backgroundOutline=1;isoAngle=15;" parent="1" vertex="1">
          <mxGeometry x="155" y="690" width="40" height="40" as="geometry" />
        </mxCell>
        <mxCell id="KzxnbteXfyFtNd1PhaOD-205" value="" style="html=1;whiteSpace=wrap;shape=isoCube2;backgroundOutline=1;isoAngle=15;" parent="1" vertex="1">
          <mxGeometry x="135" y="700" width="40" height="40" as="geometry" />
        </mxCell>
        <mxCell id="KzxnbteXfyFtNd1PhaOD-206" value="" style="html=1;whiteSpace=wrap;shape=isoCube2;backgroundOutline=1;isoAngle=15;fontStyle=1" parent="1" vertex="1">
          <mxGeometry x="115" y="710" width="40" height="40" as="geometry" />
        </mxCell>
        <mxCell id="KzxnbteXfyFtNd1PhaOD-207" value="" style="html=1;whiteSpace=wrap;shape=isoCube2;backgroundOutline=1;isoAngle=15;fillColor=#dae8fc;strokeColor=#6c8ebf;fontStyle=1" parent="1" vertex="1">
          <mxGeometry x="95" y="720" width="40" height="40" as="geometry" />
        </mxCell>
        <mxCell id="KzxnbteXfyFtNd1PhaOD-208" value="" style="html=1;whiteSpace=wrap;shape=isoCube2;backgroundOutline=1;isoAngle=15;fillColor=#d5e8d4;strokeColor=#82b366;" parent="1" vertex="1">
          <mxGeometry x="175" y="700" width="40" height="40" as="geometry" />
        </mxCell>
        <mxCell id="KzxnbteXfyFtNd1PhaOD-209" value="" style="html=1;whiteSpace=wrap;shape=isoCube2;backgroundOutline=1;isoAngle=15;fillColor=#d5e8d4;strokeColor=#82b366;" parent="1" vertex="1">
          <mxGeometry x="155" y="710" width="40" height="40" as="geometry" />
        </mxCell>
        <mxCell id="KzxnbteXfyFtNd1PhaOD-210" value="" style="html=1;whiteSpace=wrap;shape=isoCube2;backgroundOutline=1;isoAngle=15;" parent="1" vertex="1">
          <mxGeometry x="135" y="720" width="40" height="40" as="geometry" />
        </mxCell>
        <mxCell id="KzxnbteXfyFtNd1PhaOD-211" value="" style="html=1;whiteSpace=wrap;shape=isoCube2;backgroundOutline=1;isoAngle=15;fillColor=#d5e8d4;strokeColor=#82b366;fontStyle=1" parent="1" vertex="1">
          <mxGeometry x="115" y="730" width="40" height="40" as="geometry" />
        </mxCell>
        <mxCell id="KzxnbteXfyFtNd1PhaOD-212" value="" style="html=1;whiteSpace=wrap;shape=isoCube2;backgroundOutline=1;isoAngle=15;fillColor=#d5e8d4;strokeColor=#82b366;" parent="1" vertex="1">
          <mxGeometry x="195" y="710" width="40" height="40" as="geometry" />
        </mxCell>
        <mxCell id="KzxnbteXfyFtNd1PhaOD-213" value="" style="html=1;whiteSpace=wrap;shape=isoCube2;backgroundOutline=1;isoAngle=15;fillColor=#d5e8d4;strokeColor=#82b366;" parent="1" vertex="1">
          <mxGeometry x="175" y="720" width="40" height="40" as="geometry" />
        </mxCell>
        <mxCell id="KzxnbteXfyFtNd1PhaOD-214" value="" style="html=1;whiteSpace=wrap;shape=isoCube2;backgroundOutline=1;isoAngle=15;fillColor=#d5e8d4;strokeColor=#82b366;" parent="1" vertex="1">
          <mxGeometry x="155" y="730" width="40" height="40" as="geometry" />
        </mxCell>
        <mxCell id="KzxnbteXfyFtNd1PhaOD-215" value="" style="html=1;whiteSpace=wrap;shape=isoCube2;backgroundOutline=1;isoAngle=15;fillColor=#d5e8d4;strokeColor=#82b366;" parent="1" vertex="1">
          <mxGeometry x="135" y="740" width="40" height="40" as="geometry" />
        </mxCell>
        <mxCell id="KzxnbteXfyFtNd1PhaOD-216" value="" style="html=1;whiteSpace=wrap;shape=isoCube2;backgroundOutline=1;isoAngle=15;" parent="1" vertex="1">
          <mxGeometry x="135" y="660" width="40" height="40" as="geometry" />
        </mxCell>
        <mxCell id="KzxnbteXfyFtNd1PhaOD-217" value="" style="html=1;whiteSpace=wrap;shape=isoCube2;backgroundOutline=1;isoAngle=15;fontStyle=1" parent="1" vertex="1">
          <mxGeometry x="115" y="670" width="40" height="40" as="geometry" />
        </mxCell>
        <mxCell id="KzxnbteXfyFtNd1PhaOD-218" value="" style="html=1;whiteSpace=wrap;shape=isoCube2;backgroundOutline=1;isoAngle=15;fontStyle=1" parent="1" vertex="1">
          <mxGeometry x="95" y="680" width="40" height="40" as="geometry" />
        </mxCell>
        <mxCell id="KzxnbteXfyFtNd1PhaOD-219" value="" style="html=1;whiteSpace=wrap;shape=isoCube2;backgroundOutline=1;isoAngle=15;fillColor=#dae8fc;strokeColor=#6c8ebf;fontStyle=1" parent="1" vertex="1">
          <mxGeometry x="75" y="690" width="40" height="40" as="geometry" />
        </mxCell>
        <mxCell id="KzxnbteXfyFtNd1PhaOD-220" value="" style="html=1;whiteSpace=wrap;shape=isoCube2;backgroundOutline=1;isoAngle=15;" parent="1" vertex="1">
          <mxGeometry x="155" y="670" width="40" height="40" as="geometry" />
        </mxCell>
        <mxCell id="KzxnbteXfyFtNd1PhaOD-221" value="" style="html=1;whiteSpace=wrap;shape=isoCube2;backgroundOutline=1;isoAngle=15;fillColor=#d5e8d4;strokeColor=#82b366;" parent="1" vertex="1">
          <mxGeometry x="135" y="680" width="40" height="40" as="geometry" />
        </mxCell>
        <mxCell id="KzxnbteXfyFtNd1PhaOD-222" value="" style="html=1;whiteSpace=wrap;shape=isoCube2;backgroundOutline=1;isoAngle=15;fontStyle=1" parent="1" vertex="1">
          <mxGeometry x="115" y="690" width="40" height="40" as="geometry" />
        </mxCell>
        <mxCell id="KzxnbteXfyFtNd1PhaOD-223" value="" style="html=1;whiteSpace=wrap;shape=isoCube2;backgroundOutline=1;isoAngle=15;fillColor=#dae8fc;strokeColor=#6c8ebf;fontStyle=1" parent="1" vertex="1">
          <mxGeometry x="95" y="700" width="40" height="40" as="geometry" />
        </mxCell>
        <mxCell id="KzxnbteXfyFtNd1PhaOD-224" value="" style="html=1;whiteSpace=wrap;shape=isoCube2;backgroundOutline=1;isoAngle=15;fillColor=#d5e8d4;strokeColor=#82b366;" parent="1" vertex="1">
          <mxGeometry x="175" y="680" width="40" height="40" as="geometry" />
        </mxCell>
        <mxCell id="KzxnbteXfyFtNd1PhaOD-225" value="" style="html=1;whiteSpace=wrap;shape=isoCube2;backgroundOutline=1;isoAngle=15;" parent="1" vertex="1">
          <mxGeometry x="155" y="690" width="40" height="40" as="geometry" />
        </mxCell>
        <mxCell id="KzxnbteXfyFtNd1PhaOD-226" value="" style="html=1;whiteSpace=wrap;shape=isoCube2;backgroundOutline=1;isoAngle=15;" parent="1" vertex="1">
          <mxGeometry x="135" y="700" width="40" height="40" as="geometry" />
        </mxCell>
        <mxCell id="KzxnbteXfyFtNd1PhaOD-227" value="" style="html=1;whiteSpace=wrap;shape=isoCube2;backgroundOutline=1;isoAngle=15;fillColor=#d5e8d4;strokeColor=#82b366;fontStyle=1" parent="1" vertex="1">
          <mxGeometry x="115" y="710" width="40" height="40" as="geometry" />
        </mxCell>
        <mxCell id="KzxnbteXfyFtNd1PhaOD-228" value="" style="html=1;whiteSpace=wrap;shape=isoCube2;backgroundOutline=1;isoAngle=15;fillColor=#d5e8d4;strokeColor=#82b366;" parent="1" vertex="1">
          <mxGeometry x="195" y="690" width="40" height="40" as="geometry" />
        </mxCell>
        <mxCell id="KzxnbteXfyFtNd1PhaOD-229" value="" style="html=1;whiteSpace=wrap;shape=isoCube2;backgroundOutline=1;isoAngle=15;fillColor=#d5e8d4;strokeColor=#82b366;" parent="1" vertex="1">
          <mxGeometry x="175" y="700" width="40" height="40" as="geometry" />
        </mxCell>
        <mxCell id="KzxnbteXfyFtNd1PhaOD-230" value="" style="html=1;whiteSpace=wrap;shape=isoCube2;backgroundOutline=1;isoAngle=15;fillColor=#d5e8d4;strokeColor=#82b366;" parent="1" vertex="1">
          <mxGeometry x="155" y="710" width="40" height="40" as="geometry" />
        </mxCell>
        <mxCell id="KzxnbteXfyFtNd1PhaOD-231" value="" style="html=1;whiteSpace=wrap;shape=isoCube2;backgroundOutline=1;isoAngle=15;fillColor=#d5e8d4;strokeColor=#82b366;" parent="1" vertex="1">
          <mxGeometry x="135" y="720" width="40" height="40" as="geometry" />
        </mxCell>
        <mxCell id="KzxnbteXfyFtNd1PhaOD-232" value="" style="html=1;whiteSpace=wrap;shape=isoCube2;backgroundOutline=1;isoAngle=15;fillColor=#ffe6cc;strokeColor=#d79b00;" parent="1" vertex="1">
          <mxGeometry x="135" y="640" width="40" height="40" as="geometry" />
        </mxCell>
        <mxCell id="KzxnbteXfyFtNd1PhaOD-233" value="" style="html=1;whiteSpace=wrap;shape=isoCube2;backgroundOutline=1;isoAngle=15;fillColor=#ffe6cc;strokeColor=#d79b00;fontStyle=1" parent="1" vertex="1">
          <mxGeometry x="115" y="650" width="40" height="40" as="geometry" />
        </mxCell>
        <mxCell id="KzxnbteXfyFtNd1PhaOD-234" value="" style="html=1;whiteSpace=wrap;shape=isoCube2;backgroundOutline=1;isoAngle=15;fillColor=#dae8fc;strokeColor=#6c8ebf;fontStyle=1" parent="1" vertex="1">
          <mxGeometry x="95" y="660" width="40" height="40" as="geometry" />
        </mxCell>
        <mxCell id="KzxnbteXfyFtNd1PhaOD-235" value="" style="html=1;whiteSpace=wrap;shape=isoCube2;backgroundOutline=1;isoAngle=15;fillColor=#dae8fc;strokeColor=#6c8ebf;fontStyle=1" parent="1" vertex="1">
          <mxGeometry x="75" y="670" width="40" height="40" as="geometry" />
        </mxCell>
        <mxCell id="KzxnbteXfyFtNd1PhaOD-236" value="" style="html=1;whiteSpace=wrap;shape=isoCube2;backgroundOutline=1;isoAngle=15;fillColor=#ffe6cc;strokeColor=#d79b00;" parent="1" vertex="1">
          <mxGeometry x="155" y="650" width="40" height="40" as="geometry" />
        </mxCell>
        <mxCell id="KzxnbteXfyFtNd1PhaOD-237" value="" style="html=1;whiteSpace=wrap;shape=isoCube2;backgroundOutline=1;isoAngle=15;fillColor=#ffe6cc;strokeColor=#d79b00;" parent="1" vertex="1">
          <mxGeometry x="135" y="660" width="40" height="40" as="geometry" />
        </mxCell>
        <mxCell id="KzxnbteXfyFtNd1PhaOD-238" value="" style="html=1;whiteSpace=wrap;shape=isoCube2;backgroundOutline=1;isoAngle=15;fillColor=#dae8fc;strokeColor=#6c8ebf;fontStyle=1" parent="1" vertex="1">
          <mxGeometry x="115" y="670" width="40" height="40" as="geometry" />
        </mxCell>
        <mxCell id="KzxnbteXfyFtNd1PhaOD-239" value="" style="html=1;whiteSpace=wrap;shape=isoCube2;backgroundOutline=1;isoAngle=15;fillColor=#dae8fc;strokeColor=#6c8ebf;fontStyle=1" parent="1" vertex="1">
          <mxGeometry x="95" y="680" width="40" height="40" as="geometry" />
        </mxCell>
        <mxCell id="KzxnbteXfyFtNd1PhaOD-240" value="" style="html=1;whiteSpace=wrap;shape=isoCube2;backgroundOutline=1;isoAngle=15;fillColor=#f8cecc;strokeColor=#b85450;" parent="1" vertex="1">
          <mxGeometry x="175" y="660" width="40" height="40" as="geometry" />
        </mxCell>
        <mxCell id="KzxnbteXfyFtNd1PhaOD-241" value="" style="html=1;whiteSpace=wrap;shape=isoCube2;backgroundOutline=1;isoAngle=15;fillColor=#f8cecc;strokeColor=#b85450;" parent="1" vertex="1">
          <mxGeometry x="155" y="670" width="40" height="40" as="geometry" />
        </mxCell>
        <mxCell id="KzxnbteXfyFtNd1PhaOD-242" value="" style="html=1;whiteSpace=wrap;shape=isoCube2;backgroundOutline=1;isoAngle=15;fillColor=#d5e8d4;strokeColor=#82b366;" parent="1" vertex="1">
          <mxGeometry x="135" y="680" width="40" height="40" as="geometry" />
        </mxCell>
        <mxCell id="KzxnbteXfyFtNd1PhaOD-243" value="" style="html=1;whiteSpace=wrap;shape=isoCube2;backgroundOutline=1;isoAngle=15;fillColor=#d5e8d4;strokeColor=#82b366;fontStyle=1" parent="1" vertex="1">
          <mxGeometry x="115" y="690" width="40" height="40" as="geometry" />
        </mxCell>
        <mxCell id="KzxnbteXfyFtNd1PhaOD-244" value="" style="html=1;whiteSpace=wrap;shape=isoCube2;backgroundOutline=1;isoAngle=15;fillColor=#f8cecc;strokeColor=#b85450;" parent="1" vertex="1">
          <mxGeometry x="195" y="670" width="40" height="40" as="geometry" />
        </mxCell>
        <mxCell id="KzxnbteXfyFtNd1PhaOD-245" value="" style="html=1;whiteSpace=wrap;shape=isoCube2;backgroundOutline=1;isoAngle=15;fillColor=#f8cecc;strokeColor=#b85450;" parent="1" vertex="1">
          <mxGeometry x="175" y="680" width="40" height="40" as="geometry" />
        </mxCell>
        <mxCell id="KzxnbteXfyFtNd1PhaOD-246" value="" style="html=1;whiteSpace=wrap;shape=isoCube2;backgroundOutline=1;isoAngle=15;fillColor=#d5e8d4;strokeColor=#82b366;" parent="1" vertex="1">
          <mxGeometry x="155" y="690" width="40" height="40" as="geometry" />
        </mxCell>
        <mxCell id="KzxnbteXfyFtNd1PhaOD-247" value="" style="html=1;whiteSpace=wrap;shape=isoCube2;backgroundOutline=1;isoAngle=15;fillColor=#d5e8d4;strokeColor=#82b366;" parent="1" vertex="1">
          <mxGeometry x="135" y="700" width="40" height="40" as="geometry" />
        </mxCell>
        <mxCell id="KzxnbteXfyFtNd1PhaOD-248" value="H" style="text;html=1;align=center;verticalAlign=middle;whiteSpace=wrap;rounded=0;fontStyle=1" parent="1" vertex="1">
          <mxGeometry x="45" y="705" width="20" height="30" as="geometry" />
        </mxCell>
        <mxCell id="KzxnbteXfyFtNd1PhaOD-249" value="T" style="text;html=1;align=center;verticalAlign=middle;whiteSpace=wrap;rounded=0;fontStyle=1" parent="1" vertex="1">
          <mxGeometry x="95" y="780" width="20" height="30" as="geometry" />
        </mxCell>
        <mxCell id="KzxnbteXfyFtNd1PhaOD-250" value="B" style="text;html=1;align=center;verticalAlign=middle;whiteSpace=wrap;rounded=0;fontStyle=1" parent="1" vertex="1">
          <mxGeometry x="85" y="635" width="40" height="30" as="geometry" />
        </mxCell>
        <mxCell id="KzxnbteXfyFtNd1PhaOD-251" value="" style="html=1;whiteSpace=wrap;shape=isoCube2;backgroundOutline=1;isoAngle=15;fillColor=#f8cecc;strokeColor=#b85450;" parent="1" vertex="1">
          <mxGeometry x="215" y="740" width="40" height="40" as="geometry" />
        </mxCell>
        <mxCell id="KzxnbteXfyFtNd1PhaOD-252" value="" style="html=1;whiteSpace=wrap;shape=isoCube2;backgroundOutline=1;isoAngle=15;fillColor=#f8cecc;strokeColor=#b85450;" parent="1" vertex="1">
          <mxGeometry x="195" y="750" width="40" height="40" as="geometry" />
        </mxCell>
        <mxCell id="KzxnbteXfyFtNd1PhaOD-253" value="" style="html=1;whiteSpace=wrap;shape=isoCube2;backgroundOutline=1;isoAngle=15;fillColor=#d5e8d4;strokeColor=#82b366;" parent="1" vertex="1">
          <mxGeometry x="175" y="760" width="40" height="40" as="geometry" />
        </mxCell>
        <mxCell id="KzxnbteXfyFtNd1PhaOD-254" value="" style="html=1;whiteSpace=wrap;shape=isoCube2;backgroundOutline=1;isoAngle=15;fillColor=#d5e8d4;strokeColor=#82b366;" parent="1" vertex="1">
          <mxGeometry x="155" y="770" width="40" height="40" as="geometry" />
        </mxCell>
        <mxCell id="KzxnbteXfyFtNd1PhaOD-255" value="" style="html=1;whiteSpace=wrap;shape=isoCube2;backgroundOutline=1;isoAngle=15;fillColor=#f8cecc;strokeColor=#b85450;" parent="1" vertex="1">
          <mxGeometry x="215" y="720" width="40" height="40" as="geometry" />
        </mxCell>
        <mxCell id="KzxnbteXfyFtNd1PhaOD-256" value="" style="html=1;whiteSpace=wrap;shape=isoCube2;backgroundOutline=1;isoAngle=15;fillColor=#f8cecc;strokeColor=#b85450;" parent="1" vertex="1">
          <mxGeometry x="195" y="730" width="40" height="40" as="geometry" />
        </mxCell>
        <mxCell id="KzxnbteXfyFtNd1PhaOD-257" value="" style="html=1;whiteSpace=wrap;shape=isoCube2;backgroundOutline=1;isoAngle=15;fillColor=#d5e8d4;strokeColor=#82b366;" parent="1" vertex="1">
          <mxGeometry x="175" y="740" width="40" height="40" as="geometry" />
        </mxCell>
        <mxCell id="KzxnbteXfyFtNd1PhaOD-258" value="" style="html=1;whiteSpace=wrap;shape=isoCube2;backgroundOutline=1;isoAngle=15;fillColor=#d5e8d4;strokeColor=#82b366;" parent="1" vertex="1">
          <mxGeometry x="155" y="750" width="40" height="40" as="geometry" />
        </mxCell>
        <mxCell id="KzxnbteXfyFtNd1PhaOD-259" value="" style="html=1;whiteSpace=wrap;shape=isoCube2;backgroundOutline=1;isoAngle=15;fillColor=#f8cecc;strokeColor=#b85450;" parent="1" vertex="1">
          <mxGeometry x="215" y="700" width="40" height="40" as="geometry" />
        </mxCell>
        <mxCell id="KzxnbteXfyFtNd1PhaOD-260" value="" style="html=1;whiteSpace=wrap;shape=isoCube2;backgroundOutline=1;isoAngle=15;fillColor=#f8cecc;strokeColor=#b85450;" parent="1" vertex="1">
          <mxGeometry x="195" y="710" width="40" height="40" as="geometry" />
        </mxCell>
        <mxCell id="KzxnbteXfyFtNd1PhaOD-261" value="" style="html=1;whiteSpace=wrap;shape=isoCube2;backgroundOutline=1;isoAngle=15;fillColor=#d5e8d4;strokeColor=#82b366;" parent="1" vertex="1">
          <mxGeometry x="175" y="720" width="40" height="40" as="geometry" />
        </mxCell>
        <mxCell id="KzxnbteXfyFtNd1PhaOD-262" value="" style="html=1;whiteSpace=wrap;shape=isoCube2;backgroundOutline=1;isoAngle=15;fillColor=#d5e8d4;strokeColor=#82b366;" parent="1" vertex="1">
          <mxGeometry x="155" y="730" width="40" height="40" as="geometry" />
        </mxCell>
        <mxCell id="KzxnbteXfyFtNd1PhaOD-263" value="" style="html=1;whiteSpace=wrap;shape=isoCube2;backgroundOutline=1;isoAngle=15;fillColor=#f8cecc;strokeColor=#b85450;" parent="1" vertex="1">
          <mxGeometry x="215" y="680" width="40" height="40" as="geometry" />
        </mxCell>
        <mxCell id="KzxnbteXfyFtNd1PhaOD-264" value="" style="html=1;whiteSpace=wrap;shape=isoCube2;backgroundOutline=1;isoAngle=15;fillColor=#f8cecc;strokeColor=#b85450;" parent="1" vertex="1">
          <mxGeometry x="195" y="690" width="40" height="40" as="geometry" />
        </mxCell>
        <mxCell id="KzxnbteXfyFtNd1PhaOD-265" value="" style="html=1;whiteSpace=wrap;shape=isoCube2;backgroundOutline=1;isoAngle=15;fillColor=#d5e8d4;strokeColor=#82b366;" parent="1" vertex="1">
          <mxGeometry x="175" y="700" width="40" height="40" as="geometry" />
        </mxCell>
        <mxCell id="KzxnbteXfyFtNd1PhaOD-266" value="" style="html=1;whiteSpace=wrap;shape=isoCube2;backgroundOutline=1;isoAngle=15;fillColor=#d5e8d4;strokeColor=#82b366;" parent="1" vertex="1">
          <mxGeometry x="155" y="710" width="40" height="40" as="geometry" />
        </mxCell>
        <mxCell id="KzxnbteXfyFtNd1PhaOD-267" value="H" style="text;html=1;align=center;verticalAlign=middle;whiteSpace=wrap;rounded=0;fontStyle=1" parent="1" vertex="1">
          <mxGeometry x="415" y="710" width="20" height="30" as="geometry" />
        </mxCell>
        <mxCell id="KzxnbteXfyFtNd1PhaOD-274" value="before MHA" style="html=1;shadow=0;dashed=0;align=center;verticalAlign=middle;shape=mxgraph.arrows2.arrow;dy=0.32;dx=19.14;notch=11.85;fillColor=#f5f5f5;fontColor=#333333;strokeColor=#B3B3B3;fontSize=14;" parent="1" vertex="1">
          <mxGeometry x="294" y="398" width="100" height="30" as="geometry" />
        </mxCell>
        <mxCell id="KzxnbteXfyFtNd1PhaOD-275" value="" style="html=1;shadow=0;align=center;verticalAlign=middle;shape=mxgraph.arrows2.arrow;dy=0.36;dx=12.24;notch=12.85;fontSize=14;strokeColor=#B3B3B3;fillColor=#f5f5f5;fontColor=#333333;rotation=-180;" parent="1" vertex="1">
          <mxGeometry x="295" y="440" width="100" height="30" as="geometry" />
        </mxCell>
        <mxCell id="KzxnbteXfyFtNd1PhaOD-276" value="&lt;span style=&quot;color: rgb(51, 51, 51); font-family: Helvetica; font-size: 14px; font-style: normal; font-variant-ligatures: normal; font-variant-caps: normal; font-weight: 400; letter-spacing: normal; orphans: 2; text-align: center; text-indent: 0px; text-transform: none; widows: 2; word-spacing: 0px; -webkit-text-stroke-width: 0px; white-space: nowrap; background-color: rgb(251, 251, 251); text-decoration-thickness: initial; text-decoration-style: initial; text-decoration-color: initial; display: inline !important; float: none;&quot;&gt;after MHA&lt;/span&gt;" style="text;whiteSpace=wrap;html=1;fillColor=none;" parent="1" vertex="1">
          <mxGeometry x="315" y="441" width="61" height="27" as="geometry" />
        </mxCell>
        <mxCell id="KzxnbteXfyFtNd1PhaOD-277" value="Data and Sequence Parallelism" style="text;strokeColor=none;fillColor=none;align=left;verticalAlign=middle;spacingLeft=4;spacingRight=4;overflow=hidden;points=[[0,0.5],[1,0.5]];portConstraint=eastwest;rotatable=0;whiteSpace=wrap;html=1;fontSize=18;" parent="1" vertex="1">
          <mxGeometry x="40" y="591" width="340" height="30" as="geometry" />
        </mxCell>
        <mxCell id="KzxnbteXfyFtNd1PhaOD-278" value="Sequence Parallelism" style="text;strokeColor=none;fillColor=none;align=left;verticalAlign=middle;spacingLeft=4;spacingRight=4;overflow=hidden;points=[[0,0.5],[1,0.5]];portConstraint=eastwest;rotatable=0;whiteSpace=wrap;html=1;fontSize=18;" parent="1" vertex="1">
          <mxGeometry x="45" y="316" width="340" height="30" as="geometry" />
        </mxCell>
        <mxCell id="KzxnbteXfyFtNd1PhaOD-279" value="" style="html=1;whiteSpace=wrap;shape=isoCube2;backgroundOutline=1;isoAngle=15;fillColor=#dae8fc;strokeColor=#6c8ebf;" parent="1" vertex="1">
          <mxGeometry x="140" y="160" width="40" height="40" as="geometry" />
        </mxCell>
        <mxCell id="KzxnbteXfyFtNd1PhaOD-280" value="" style="html=1;whiteSpace=wrap;shape=isoCube2;backgroundOutline=1;isoAngle=15;fillColor=#dae8fc;strokeColor=#6c8ebf;" parent="1" vertex="1">
          <mxGeometry x="120" y="170" width="40" height="40" as="geometry" />
        </mxCell>
        <mxCell id="KzxnbteXfyFtNd1PhaOD-281" value="" style="html=1;whiteSpace=wrap;shape=isoCube2;backgroundOutline=1;isoAngle=15;fontStyle=1;fillColor=#dae8fc;strokeColor=#6c8ebf;" parent="1" vertex="1">
          <mxGeometry x="100" y="180" width="40" height="40" as="geometry" />
        </mxCell>
        <mxCell id="KzxnbteXfyFtNd1PhaOD-282" value="" style="html=1;whiteSpace=wrap;shape=isoCube2;backgroundOutline=1;isoAngle=15;fontStyle=1;fillColor=#dae8fc;strokeColor=#6c8ebf;" parent="1" vertex="1">
          <mxGeometry x="80" y="190" width="40" height="40" as="geometry" />
        </mxCell>
        <mxCell id="KzxnbteXfyFtNd1PhaOD-283" value="" style="html=1;whiteSpace=wrap;shape=isoCube2;backgroundOutline=1;isoAngle=15;fillColor=#dae8fc;strokeColor=#6c8ebf;" parent="1" vertex="1">
          <mxGeometry x="160" y="170" width="40" height="40" as="geometry" />
        </mxCell>
        <mxCell id="KzxnbteXfyFtNd1PhaOD-284" value="" style="html=1;whiteSpace=wrap;shape=isoCube2;backgroundOutline=1;isoAngle=15;fillColor=#dae8fc;strokeColor=#6c8ebf;" parent="1" vertex="1">
          <mxGeometry x="140" y="180" width="40" height="40" as="geometry" />
        </mxCell>
        <mxCell id="KzxnbteXfyFtNd1PhaOD-285" value="" style="html=1;whiteSpace=wrap;shape=isoCube2;backgroundOutline=1;isoAngle=15;fillColor=#dae8fc;strokeColor=#6c8ebf;" parent="1" vertex="1">
          <mxGeometry x="120" y="190" width="40" height="40" as="geometry" />
        </mxCell>
        <mxCell id="KzxnbteXfyFtNd1PhaOD-286" value="" style="html=1;whiteSpace=wrap;shape=isoCube2;backgroundOutline=1;isoAngle=15;fontStyle=1;fillColor=#dae8fc;strokeColor=#6c8ebf;" parent="1" vertex="1">
          <mxGeometry x="100" y="200" width="40" height="40" as="geometry" />
        </mxCell>
        <mxCell id="KzxnbteXfyFtNd1PhaOD-287" value="" style="html=1;whiteSpace=wrap;shape=isoCube2;backgroundOutline=1;isoAngle=15;fillColor=#dae8fc;strokeColor=#6c8ebf;" parent="1" vertex="1">
          <mxGeometry x="180" y="180" width="40" height="40" as="geometry" />
        </mxCell>
        <mxCell id="KzxnbteXfyFtNd1PhaOD-288" value="" style="html=1;whiteSpace=wrap;shape=isoCube2;backgroundOutline=1;isoAngle=15;fillColor=#dae8fc;strokeColor=#6c8ebf;" parent="1" vertex="1">
          <mxGeometry x="160" y="190" width="40" height="40" as="geometry" />
        </mxCell>
        <mxCell id="KzxnbteXfyFtNd1PhaOD-289" value="" style="html=1;whiteSpace=wrap;shape=isoCube2;backgroundOutline=1;isoAngle=15;fillColor=#dae8fc;strokeColor=#6c8ebf;" parent="1" vertex="1">
          <mxGeometry x="140" y="200" width="40" height="40" as="geometry" />
        </mxCell>
        <mxCell id="KzxnbteXfyFtNd1PhaOD-290" value="" style="html=1;whiteSpace=wrap;shape=isoCube2;backgroundOutline=1;isoAngle=15;fillColor=#dae8fc;strokeColor=#6c8ebf;" parent="1" vertex="1">
          <mxGeometry x="120" y="210" width="40" height="40" as="geometry" />
        </mxCell>
        <mxCell id="KzxnbteXfyFtNd1PhaOD-291" value="" style="html=1;whiteSpace=wrap;shape=isoCube2;backgroundOutline=1;isoAngle=15;fillColor=#ffe6cc;strokeColor=#d79b00;" parent="1" vertex="1">
          <mxGeometry x="200" y="190" width="40" height="40" as="geometry" />
        </mxCell>
        <mxCell id="KzxnbteXfyFtNd1PhaOD-292" value="" style="html=1;whiteSpace=wrap;shape=isoCube2;backgroundOutline=1;isoAngle=15;fillColor=#dae8fc;strokeColor=#6c8ebf;" parent="1" vertex="1">
          <mxGeometry x="180" y="200" width="40" height="40" as="geometry" />
        </mxCell>
        <mxCell id="KzxnbteXfyFtNd1PhaOD-293" value="" style="html=1;whiteSpace=wrap;shape=isoCube2;backgroundOutline=1;isoAngle=15;fillColor=#dae8fc;strokeColor=#6c8ebf;" parent="1" vertex="1">
          <mxGeometry x="160" y="210" width="40" height="40" as="geometry" />
        </mxCell>
        <mxCell id="KzxnbteXfyFtNd1PhaOD-294" value="" style="html=1;whiteSpace=wrap;shape=isoCube2;backgroundOutline=1;isoAngle=15;fillColor=#dae8fc;strokeColor=#6c8ebf;" parent="1" vertex="1">
          <mxGeometry x="140" y="220" width="40" height="40" as="geometry" />
        </mxCell>
        <mxCell id="KzxnbteXfyFtNd1PhaOD-295" value="" style="html=1;whiteSpace=wrap;shape=isoCube2;backgroundOutline=1;isoAngle=15;" parent="1" vertex="1">
          <mxGeometry x="140" y="140" width="40" height="40" as="geometry" />
        </mxCell>
        <mxCell id="KzxnbteXfyFtNd1PhaOD-296" value="" style="html=1;whiteSpace=wrap;shape=isoCube2;backgroundOutline=1;isoAngle=15;fillColor=#dae8fc;strokeColor=#6c8ebf;" parent="1" vertex="1">
          <mxGeometry x="120" y="150" width="40" height="40" as="geometry" />
        </mxCell>
        <mxCell id="KzxnbteXfyFtNd1PhaOD-297" value="" style="html=1;whiteSpace=wrap;shape=isoCube2;backgroundOutline=1;isoAngle=15;fontStyle=1;fillColor=#dae8fc;strokeColor=#6c8ebf;" parent="1" vertex="1">
          <mxGeometry x="100" y="160" width="40" height="40" as="geometry" />
        </mxCell>
        <mxCell id="KzxnbteXfyFtNd1PhaOD-298" value="" style="html=1;whiteSpace=wrap;shape=isoCube2;backgroundOutline=1;isoAngle=15;fontStyle=1;fillColor=#dae8fc;strokeColor=#6c8ebf;" parent="1" vertex="1">
          <mxGeometry x="80" y="170" width="40" height="40" as="geometry" />
        </mxCell>
        <mxCell id="KzxnbteXfyFtNd1PhaOD-299" value="" style="html=1;whiteSpace=wrap;shape=isoCube2;backgroundOutline=1;isoAngle=15;fillColor=#dae8fc;strokeColor=#6c8ebf;" parent="1" vertex="1">
          <mxGeometry x="160" y="150" width="40" height="40" as="geometry" />
        </mxCell>
        <mxCell id="KzxnbteXfyFtNd1PhaOD-300" value="" style="html=1;whiteSpace=wrap;shape=isoCube2;backgroundOutline=1;isoAngle=15;fillColor=#dae8fc;strokeColor=#6c8ebf;" parent="1" vertex="1">
          <mxGeometry x="140" y="160" width="40" height="40" as="geometry" />
        </mxCell>
        <mxCell id="KzxnbteXfyFtNd1PhaOD-301" value="" style="html=1;whiteSpace=wrap;shape=isoCube2;backgroundOutline=1;isoAngle=15;fillColor=#dae8fc;strokeColor=#6c8ebf;" parent="1" vertex="1">
          <mxGeometry x="120" y="170" width="40" height="40" as="geometry" />
        </mxCell>
        <mxCell id="KzxnbteXfyFtNd1PhaOD-302" value="" style="html=1;whiteSpace=wrap;shape=isoCube2;backgroundOutline=1;isoAngle=15;fontStyle=1;fillColor=#dae8fc;strokeColor=#6c8ebf;" parent="1" vertex="1">
          <mxGeometry x="100" y="180" width="40" height="40" as="geometry" />
        </mxCell>
        <mxCell id="KzxnbteXfyFtNd1PhaOD-303" value="" style="html=1;whiteSpace=wrap;shape=isoCube2;backgroundOutline=1;isoAngle=15;fillColor=#dae8fc;strokeColor=#6c8ebf;" parent="1" vertex="1">
          <mxGeometry x="180" y="160" width="40" height="40" as="geometry" />
        </mxCell>
        <mxCell id="KzxnbteXfyFtNd1PhaOD-304" value="" style="html=1;whiteSpace=wrap;shape=isoCube2;backgroundOutline=1;isoAngle=15;fillColor=#dae8fc;strokeColor=#6c8ebf;" parent="1" vertex="1">
          <mxGeometry x="160" y="170" width="40" height="40" as="geometry" />
        </mxCell>
        <mxCell id="KzxnbteXfyFtNd1PhaOD-305" value="" style="html=1;whiteSpace=wrap;shape=isoCube2;backgroundOutline=1;isoAngle=15;fillColor=#dae8fc;strokeColor=#6c8ebf;" parent="1" vertex="1">
          <mxGeometry x="140" y="180" width="40" height="40" as="geometry" />
        </mxCell>
        <mxCell id="KzxnbteXfyFtNd1PhaOD-306" value="" style="html=1;whiteSpace=wrap;shape=isoCube2;backgroundOutline=1;isoAngle=15;fillColor=#dae8fc;strokeColor=#6c8ebf;" parent="1" vertex="1">
          <mxGeometry x="120" y="190" width="40" height="40" as="geometry" />
        </mxCell>
        <mxCell id="KzxnbteXfyFtNd1PhaOD-307" value="" style="html=1;whiteSpace=wrap;shape=isoCube2;backgroundOutline=1;isoAngle=15;fillColor=#ffe6cc;strokeColor=#d79b00;" parent="1" vertex="1">
          <mxGeometry x="200" y="170" width="40" height="40" as="geometry" />
        </mxCell>
        <mxCell id="KzxnbteXfyFtNd1PhaOD-308" value="" style="html=1;whiteSpace=wrap;shape=isoCube2;backgroundOutline=1;isoAngle=15;fillColor=#dae8fc;strokeColor=#6c8ebf;" parent="1" vertex="1">
          <mxGeometry x="180" y="180" width="40" height="40" as="geometry" />
        </mxCell>
        <mxCell id="KzxnbteXfyFtNd1PhaOD-309" value="" style="html=1;whiteSpace=wrap;shape=isoCube2;backgroundOutline=1;isoAngle=15;fillColor=#dae8fc;strokeColor=#6c8ebf;" parent="1" vertex="1">
          <mxGeometry x="160" y="190" width="40" height="40" as="geometry" />
        </mxCell>
        <mxCell id="KzxnbteXfyFtNd1PhaOD-310" value="" style="html=1;whiteSpace=wrap;shape=isoCube2;backgroundOutline=1;isoAngle=15;fillColor=#dae8fc;strokeColor=#6c8ebf;" parent="1" vertex="1">
          <mxGeometry x="140" y="200" width="40" height="40" as="geometry" />
        </mxCell>
        <mxCell id="KzxnbteXfyFtNd1PhaOD-311" value="" style="html=1;whiteSpace=wrap;shape=isoCube2;backgroundOutline=1;isoAngle=15;" parent="1" vertex="1">
          <mxGeometry x="140" y="120" width="40" height="40" as="geometry" />
        </mxCell>
        <mxCell id="KzxnbteXfyFtNd1PhaOD-312" value="" style="html=1;whiteSpace=wrap;shape=isoCube2;backgroundOutline=1;isoAngle=15;fillColor=#dae8fc;strokeColor=#6c8ebf;" parent="1" vertex="1">
          <mxGeometry x="120" y="130" width="40" height="40" as="geometry" />
        </mxCell>
        <mxCell id="KzxnbteXfyFtNd1PhaOD-313" value="" style="html=1;whiteSpace=wrap;shape=isoCube2;backgroundOutline=1;isoAngle=15;fontStyle=1;fillColor=#dae8fc;strokeColor=#6c8ebf;" parent="1" vertex="1">
          <mxGeometry x="100" y="140" width="40" height="40" as="geometry" />
        </mxCell>
        <mxCell id="KzxnbteXfyFtNd1PhaOD-314" value="" style="html=1;whiteSpace=wrap;shape=isoCube2;backgroundOutline=1;isoAngle=15;fontStyle=1;fillColor=#dae8fc;strokeColor=#6c8ebf;" parent="1" vertex="1">
          <mxGeometry x="80" y="150" width="40" height="40" as="geometry" />
        </mxCell>
        <mxCell id="KzxnbteXfyFtNd1PhaOD-315" value="" style="html=1;whiteSpace=wrap;shape=isoCube2;backgroundOutline=1;isoAngle=15;" parent="1" vertex="1">
          <mxGeometry x="160" y="130" width="40" height="40" as="geometry" />
        </mxCell>
        <mxCell id="KzxnbteXfyFtNd1PhaOD-316" value="" style="html=1;whiteSpace=wrap;shape=isoCube2;backgroundOutline=1;isoAngle=15;" parent="1" vertex="1">
          <mxGeometry x="140" y="140" width="40" height="40" as="geometry" />
        </mxCell>
        <mxCell id="KzxnbteXfyFtNd1PhaOD-317" value="" style="html=1;whiteSpace=wrap;shape=isoCube2;backgroundOutline=1;isoAngle=15;fillColor=#dae8fc;strokeColor=#6c8ebf;" parent="1" vertex="1">
          <mxGeometry x="120" y="150" width="40" height="40" as="geometry" />
        </mxCell>
        <mxCell id="KzxnbteXfyFtNd1PhaOD-318" value="" style="html=1;whiteSpace=wrap;shape=isoCube2;backgroundOutline=1;isoAngle=15;fontStyle=1;fillColor=#dae8fc;strokeColor=#6c8ebf;" parent="1" vertex="1">
          <mxGeometry x="100" y="160" width="40" height="40" as="geometry" />
        </mxCell>
        <mxCell id="KzxnbteXfyFtNd1PhaOD-319" value="" style="html=1;whiteSpace=wrap;shape=isoCube2;backgroundOutline=1;isoAngle=15;" parent="1" vertex="1">
          <mxGeometry x="180" y="140" width="40" height="40" as="geometry" />
        </mxCell>
        <mxCell id="KzxnbteXfyFtNd1PhaOD-320" value="" style="html=1;whiteSpace=wrap;shape=isoCube2;backgroundOutline=1;isoAngle=15;fillColor=#dae8fc;strokeColor=#6c8ebf;" parent="1" vertex="1">
          <mxGeometry x="160" y="150" width="40" height="40" as="geometry" />
        </mxCell>
        <mxCell id="KzxnbteXfyFtNd1PhaOD-321" value="" style="html=1;whiteSpace=wrap;shape=isoCube2;backgroundOutline=1;isoAngle=15;fillColor=#dae8fc;strokeColor=#6c8ebf;" parent="1" vertex="1">
          <mxGeometry x="140" y="160" width="40" height="40" as="geometry" />
        </mxCell>
        <mxCell id="KzxnbteXfyFtNd1PhaOD-322" value="" style="html=1;whiteSpace=wrap;shape=isoCube2;backgroundOutline=1;isoAngle=15;fillColor=#dae8fc;strokeColor=#6c8ebf;" parent="1" vertex="1">
          <mxGeometry x="120" y="170" width="40" height="40" as="geometry" />
        </mxCell>
        <mxCell id="KzxnbteXfyFtNd1PhaOD-323" value="" style="html=1;whiteSpace=wrap;shape=isoCube2;backgroundOutline=1;isoAngle=15;fillColor=#ffe6cc;strokeColor=#d79b00;" parent="1" vertex="1">
          <mxGeometry x="200" y="150" width="40" height="40" as="geometry" />
        </mxCell>
        <mxCell id="KzxnbteXfyFtNd1PhaOD-324" value="" style="html=1;whiteSpace=wrap;shape=isoCube2;backgroundOutline=1;isoAngle=15;fillColor=#dae8fc;strokeColor=#6c8ebf;" parent="1" vertex="1">
          <mxGeometry x="180" y="160" width="40" height="40" as="geometry" />
        </mxCell>
        <mxCell id="KzxnbteXfyFtNd1PhaOD-325" value="" style="html=1;whiteSpace=wrap;shape=isoCube2;backgroundOutline=1;isoAngle=15;fillColor=#dae8fc;strokeColor=#6c8ebf;" parent="1" vertex="1">
          <mxGeometry x="160" y="170" width="40" height="40" as="geometry" />
        </mxCell>
        <mxCell id="KzxnbteXfyFtNd1PhaOD-326" value="" style="html=1;whiteSpace=wrap;shape=isoCube2;backgroundOutline=1;isoAngle=15;fillColor=#dae8fc;strokeColor=#6c8ebf;" parent="1" vertex="1">
          <mxGeometry x="140" y="180" width="40" height="40" as="geometry" />
        </mxCell>
        <mxCell id="KzxnbteXfyFtNd1PhaOD-327" value="" style="html=1;whiteSpace=wrap;shape=isoCube2;backgroundOutline=1;isoAngle=15;fillColor=#ffe6cc;strokeColor=#d79b00;" parent="1" vertex="1">
          <mxGeometry x="140" y="100" width="40" height="40" as="geometry" />
        </mxCell>
        <mxCell id="KzxnbteXfyFtNd1PhaOD-328" value="" style="html=1;whiteSpace=wrap;shape=isoCube2;backgroundOutline=1;isoAngle=15;fillColor=#ffe6cc;strokeColor=#d79b00;" parent="1" vertex="1">
          <mxGeometry x="120" y="110" width="40" height="40" as="geometry" />
        </mxCell>
        <mxCell id="KzxnbteXfyFtNd1PhaOD-329" value="" style="html=1;whiteSpace=wrap;shape=isoCube2;backgroundOutline=1;isoAngle=15;fontStyle=1;fillColor=#dae8fc;strokeColor=#6c8ebf;" parent="1" vertex="1">
          <mxGeometry x="100" y="120" width="40" height="40" as="geometry" />
        </mxCell>
        <mxCell id="KzxnbteXfyFtNd1PhaOD-330" value="" style="html=1;whiteSpace=wrap;shape=isoCube2;backgroundOutline=1;isoAngle=15;fontStyle=1;fillColor=#dae8fc;strokeColor=#6c8ebf;" parent="1" vertex="1">
          <mxGeometry x="80" y="130" width="40" height="40" as="geometry" />
        </mxCell>
        <mxCell id="KzxnbteXfyFtNd1PhaOD-331" value="" style="html=1;whiteSpace=wrap;shape=isoCube2;backgroundOutline=1;isoAngle=15;fillColor=#ffe6cc;strokeColor=#d79b00;" parent="1" vertex="1">
          <mxGeometry x="160" y="110" width="40" height="40" as="geometry" />
        </mxCell>
        <mxCell id="KzxnbteXfyFtNd1PhaOD-332" value="" style="html=1;whiteSpace=wrap;shape=isoCube2;backgroundOutline=1;isoAngle=15;fillColor=#ffe6cc;strokeColor=#d79b00;" parent="1" vertex="1">
          <mxGeometry x="140" y="120" width="40" height="40" as="geometry" />
        </mxCell>
        <mxCell id="KzxnbteXfyFtNd1PhaOD-333" value="" style="html=1;whiteSpace=wrap;shape=isoCube2;backgroundOutline=1;isoAngle=15;fillColor=#dae8fc;strokeColor=#6c8ebf;" parent="1" vertex="1">
          <mxGeometry x="120" y="130" width="40" height="40" as="geometry" />
        </mxCell>
        <mxCell id="KzxnbteXfyFtNd1PhaOD-334" value="" style="html=1;whiteSpace=wrap;shape=isoCube2;backgroundOutline=1;isoAngle=15;fontStyle=1;fillColor=#dae8fc;strokeColor=#6c8ebf;" parent="1" vertex="1">
          <mxGeometry x="100" y="140" width="40" height="40" as="geometry" />
        </mxCell>
        <mxCell id="KzxnbteXfyFtNd1PhaOD-335" value="" style="html=1;whiteSpace=wrap;shape=isoCube2;backgroundOutline=1;isoAngle=15;fillColor=#ffe6cc;strokeColor=#d79b00;" parent="1" vertex="1">
          <mxGeometry x="180" y="120" width="40" height="40" as="geometry" />
        </mxCell>
        <mxCell id="KzxnbteXfyFtNd1PhaOD-336" value="" style="html=1;whiteSpace=wrap;shape=isoCube2;backgroundOutline=1;isoAngle=15;fillColor=#ffe6cc;strokeColor=#d79b00;" parent="1" vertex="1">
          <mxGeometry x="160" y="130" width="40" height="40" as="geometry" />
        </mxCell>
        <mxCell id="KzxnbteXfyFtNd1PhaOD-337" value="" style="html=1;whiteSpace=wrap;shape=isoCube2;backgroundOutline=1;isoAngle=15;fillColor=#dae8fc;strokeColor=#6c8ebf;" parent="1" vertex="1">
          <mxGeometry x="140" y="140" width="40" height="40" as="geometry" />
        </mxCell>
        <mxCell id="KzxnbteXfyFtNd1PhaOD-338" value="" style="html=1;whiteSpace=wrap;shape=isoCube2;backgroundOutline=1;isoAngle=15;fillColor=#dae8fc;strokeColor=#6c8ebf;" parent="1" vertex="1">
          <mxGeometry x="120" y="150" width="40" height="40" as="geometry" />
        </mxCell>
        <mxCell id="KzxnbteXfyFtNd1PhaOD-339" value="" style="html=1;whiteSpace=wrap;shape=isoCube2;backgroundOutline=1;isoAngle=15;fillColor=#ffe6cc;strokeColor=#d79b00;" parent="1" vertex="1">
          <mxGeometry x="200" y="130" width="40" height="40" as="geometry" />
        </mxCell>
        <mxCell id="KzxnbteXfyFtNd1PhaOD-340" value="" style="html=1;whiteSpace=wrap;shape=isoCube2;backgroundOutline=1;isoAngle=15;fillColor=#ffe6cc;strokeColor=#d79b00;" parent="1" vertex="1">
          <mxGeometry x="180" y="140" width="40" height="40" as="geometry" />
        </mxCell>
        <mxCell id="KzxnbteXfyFtNd1PhaOD-341" value="" style="html=1;whiteSpace=wrap;shape=isoCube2;backgroundOutline=1;isoAngle=15;fillColor=#dae8fc;strokeColor=#6c8ebf;" parent="1" vertex="1">
          <mxGeometry x="160" y="150" width="40" height="40" as="geometry" />
        </mxCell>
        <mxCell id="KzxnbteXfyFtNd1PhaOD-342" value="" style="html=1;whiteSpace=wrap;shape=isoCube2;backgroundOutline=1;isoAngle=15;fillColor=#dae8fc;strokeColor=#6c8ebf;" parent="1" vertex="1">
          <mxGeometry x="140" y="160" width="40" height="40" as="geometry" />
        </mxCell>
        <mxCell id="KzxnbteXfyFtNd1PhaOD-343" value="E" style="text;html=1;align=center;verticalAlign=middle;whiteSpace=wrap;rounded=0;fontStyle=1" parent="1" vertex="1">
          <mxGeometry x="50" y="165" width="20" height="30" as="geometry" />
        </mxCell>
        <mxCell id="KzxnbteXfyFtNd1PhaOD-344" value="T" style="text;html=1;align=center;verticalAlign=middle;whiteSpace=wrap;rounded=0;fontStyle=1" parent="1" vertex="1">
          <mxGeometry x="100" y="240" width="20" height="30" as="geometry" />
        </mxCell>
        <mxCell id="KzxnbteXfyFtNd1PhaOD-345" value="B" style="text;html=1;align=center;verticalAlign=middle;whiteSpace=wrap;rounded=0;fontStyle=1" parent="1" vertex="1">
          <mxGeometry x="90" y="93" width="40" height="30" as="geometry" />
        </mxCell>
        <mxCell id="KzxnbteXfyFtNd1PhaOD-346" value="" style="html=1;whiteSpace=wrap;shape=isoCube2;backgroundOutline=1;isoAngle=15;fillColor=#ffe6cc;strokeColor=#d79b00;" parent="1" vertex="1">
          <mxGeometry x="220" y="200" width="40" height="40" as="geometry" />
        </mxCell>
        <mxCell id="KzxnbteXfyFtNd1PhaOD-347" value="" style="html=1;whiteSpace=wrap;shape=isoCube2;backgroundOutline=1;isoAngle=15;fillColor=#ffe6cc;strokeColor=#d79b00;" parent="1" vertex="1">
          <mxGeometry x="200" y="210" width="40" height="40" as="geometry" />
        </mxCell>
        <mxCell id="KzxnbteXfyFtNd1PhaOD-348" value="" style="html=1;whiteSpace=wrap;shape=isoCube2;backgroundOutline=1;isoAngle=15;fillColor=#dae8fc;strokeColor=#6c8ebf;" parent="1" vertex="1">
          <mxGeometry x="180" y="220" width="40" height="40" as="geometry" />
        </mxCell>
        <mxCell id="KzxnbteXfyFtNd1PhaOD-349" value="" style="html=1;whiteSpace=wrap;shape=isoCube2;backgroundOutline=1;isoAngle=15;fillColor=#dae8fc;strokeColor=#6c8ebf;" parent="1" vertex="1">
          <mxGeometry x="160" y="230" width="40" height="40" as="geometry" />
        </mxCell>
        <mxCell id="KzxnbteXfyFtNd1PhaOD-350" value="" style="html=1;whiteSpace=wrap;shape=isoCube2;backgroundOutline=1;isoAngle=15;fillColor=#ffe6cc;strokeColor=#d79b00;" parent="1" vertex="1">
          <mxGeometry x="220" y="180" width="40" height="40" as="geometry" />
        </mxCell>
        <mxCell id="KzxnbteXfyFtNd1PhaOD-351" value="" style="html=1;whiteSpace=wrap;shape=isoCube2;backgroundOutline=1;isoAngle=15;fillColor=#ffe6cc;strokeColor=#d79b00;" parent="1" vertex="1">
          <mxGeometry x="200" y="190" width="40" height="40" as="geometry" />
        </mxCell>
        <mxCell id="KzxnbteXfyFtNd1PhaOD-352" value="" style="html=1;whiteSpace=wrap;shape=isoCube2;backgroundOutline=1;isoAngle=15;fillColor=#dae8fc;strokeColor=#6c8ebf;" parent="1" vertex="1">
          <mxGeometry x="180" y="200" width="40" height="40" as="geometry" />
        </mxCell>
        <mxCell id="KzxnbteXfyFtNd1PhaOD-353" value="" style="html=1;whiteSpace=wrap;shape=isoCube2;backgroundOutline=1;isoAngle=15;fillColor=#dae8fc;strokeColor=#6c8ebf;" parent="1" vertex="1">
          <mxGeometry x="160" y="210" width="40" height="40" as="geometry" />
        </mxCell>
        <mxCell id="KzxnbteXfyFtNd1PhaOD-354" value="" style="html=1;whiteSpace=wrap;shape=isoCube2;backgroundOutline=1;isoAngle=15;fillColor=#ffe6cc;strokeColor=#d79b00;" parent="1" vertex="1">
          <mxGeometry x="220" y="160" width="40" height="40" as="geometry" />
        </mxCell>
        <mxCell id="KzxnbteXfyFtNd1PhaOD-355" value="" style="html=1;whiteSpace=wrap;shape=isoCube2;backgroundOutline=1;isoAngle=15;fillColor=#ffe6cc;strokeColor=#d79b00;" parent="1" vertex="1">
          <mxGeometry x="200" y="170" width="40" height="40" as="geometry" />
        </mxCell>
        <mxCell id="KzxnbteXfyFtNd1PhaOD-356" value="" style="html=1;whiteSpace=wrap;shape=isoCube2;backgroundOutline=1;isoAngle=15;fillColor=#dae8fc;strokeColor=#6c8ebf;" parent="1" vertex="1">
          <mxGeometry x="180" y="180" width="40" height="40" as="geometry" />
        </mxCell>
        <mxCell id="KzxnbteXfyFtNd1PhaOD-357" value="" style="html=1;whiteSpace=wrap;shape=isoCube2;backgroundOutline=1;isoAngle=15;fillColor=#dae8fc;strokeColor=#6c8ebf;" parent="1" vertex="1">
          <mxGeometry x="160" y="190" width="40" height="40" as="geometry" />
        </mxCell>
        <mxCell id="KzxnbteXfyFtNd1PhaOD-358" value="" style="html=1;whiteSpace=wrap;shape=isoCube2;backgroundOutline=1;isoAngle=15;fillColor=#ffe6cc;strokeColor=#d79b00;" parent="1" vertex="1">
          <mxGeometry x="220" y="140" width="40" height="40" as="geometry" />
        </mxCell>
        <mxCell id="KzxnbteXfyFtNd1PhaOD-359" value="" style="html=1;whiteSpace=wrap;shape=isoCube2;backgroundOutline=1;isoAngle=15;fillColor=#ffe6cc;strokeColor=#d79b00;" parent="1" vertex="1">
          <mxGeometry x="200" y="150" width="40" height="40" as="geometry" />
        </mxCell>
        <mxCell id="KzxnbteXfyFtNd1PhaOD-360" value="" style="html=1;whiteSpace=wrap;shape=isoCube2;backgroundOutline=1;isoAngle=15;fillColor=#dae8fc;strokeColor=#6c8ebf;" parent="1" vertex="1">
          <mxGeometry x="180" y="160" width="40" height="40" as="geometry" />
        </mxCell>
        <mxCell id="KzxnbteXfyFtNd1PhaOD-361" value="" style="html=1;whiteSpace=wrap;shape=isoCube2;backgroundOutline=1;isoAngle=15;fillColor=#dae8fc;strokeColor=#6c8ebf;" parent="1" vertex="1">
          <mxGeometry x="160" y="170" width="40" height="40" as="geometry" />
        </mxCell>
        <mxCell id="KzxnbteXfyFtNd1PhaOD-362" value="Data Parallelism" style="text;strokeColor=none;fillColor=none;align=left;verticalAlign=middle;spacingLeft=4;spacingRight=4;overflow=hidden;points=[[0,0.5],[1,0.5]];portConstraint=eastwest;rotatable=0;whiteSpace=wrap;html=1;fontSize=18;" parent="1" vertex="1">
          <mxGeometry x="45" y="58" width="340" height="30" as="geometry" />
        </mxCell>
        <mxCell id="Um0Cb-BG9jEUE1YHMW2H-1" value="before MHA" style="html=1;shadow=0;dashed=0;align=center;verticalAlign=middle;shape=mxgraph.arrows2.arrow;dy=0.32;dx=19.14;notch=11.85;fillColor=#f5f5f5;fontColor=#333333;strokeColor=#B3B3B3;fontSize=14;" parent="1" vertex="1">
          <mxGeometry x="293" y="678" width="100" height="30" as="geometry" />
        </mxCell>
        <mxCell id="Um0Cb-BG9jEUE1YHMW2H-2" value="" style="html=1;shadow=0;align=center;verticalAlign=middle;shape=mxgraph.arrows2.arrow;dy=0.36;dx=12.24;notch=12.85;fontSize=14;strokeColor=#B3B3B3;fillColor=#f5f5f5;fontColor=#333333;rotation=-180;" parent="1" vertex="1">
          <mxGeometry x="294" y="720" width="100" height="30" as="geometry" />
        </mxCell>
        <mxCell id="Um0Cb-BG9jEUE1YHMW2H-3" value="&lt;span style=&quot;color: rgb(51, 51, 51); font-family: Helvetica; font-size: 14px; font-style: normal; font-variant-ligatures: normal; font-variant-caps: normal; font-weight: 400; letter-spacing: normal; orphans: 2; text-align: center; text-indent: 0px; text-transform: none; widows: 2; word-spacing: 0px; -webkit-text-stroke-width: 0px; white-space: nowrap; background-color: rgb(251, 251, 251); text-decoration-thickness: initial; text-decoration-style: initial; text-decoration-color: initial; display: inline !important; float: none;&quot;&gt;after MHA&lt;/span&gt;" style="text;whiteSpace=wrap;html=1;fillColor=none;" parent="1" vertex="1">
          <mxGeometry x="314" y="721" width="61" height="27" as="geometry" />
        </mxCell>
        <mxCell id="ZMOJJ3-2EahHvgSbeS1f-84" value="Tensor Parallelism" style="text;strokeColor=none;fillColor=none;align=left;verticalAlign=middle;spacingLeft=4;spacingRight=4;overflow=hidden;points=[[0,0.5],[1,0.5]];portConstraint=eastwest;rotatable=0;whiteSpace=wrap;html=1;fontSize=18;" parent="1" vertex="1">
          <mxGeometry x="810" y="327" width="340" height="30" as="geometry" />
        </mxCell>
        <mxCell id="ZMOJJ3-2EahHvgSbeS1f-86" value="" style="html=1;whiteSpace=wrap;shape=isoCube2;backgroundOutline=1;isoAngle=15;" parent="1" vertex="1">
          <mxGeometry x="895" y="440" width="40" height="40" as="geometry" />
        </mxCell>
        <mxCell id="ZMOJJ3-2EahHvgSbeS1f-87" value="" style="html=1;whiteSpace=wrap;shape=isoCube2;backgroundOutline=1;isoAngle=15;" parent="1" vertex="1">
          <mxGeometry x="875" y="450" width="40" height="40" as="geometry" />
        </mxCell>
        <mxCell id="ZMOJJ3-2EahHvgSbeS1f-88" value="" style="html=1;whiteSpace=wrap;shape=isoCube2;backgroundOutline=1;isoAngle=15;" parent="1" vertex="1">
          <mxGeometry x="855" y="460" width="40" height="40" as="geometry" />
        </mxCell>
        <mxCell id="ZMOJJ3-2EahHvgSbeS1f-89" value="" style="html=1;whiteSpace=wrap;shape=isoCube2;backgroundOutline=1;isoAngle=15;fillColor=#d5e8d4;strokeColor=#82b366;" parent="1" vertex="1">
          <mxGeometry x="835" y="470" width="40" height="40" as="geometry" />
        </mxCell>
        <mxCell id="ZMOJJ3-2EahHvgSbeS1f-90" value="" style="html=1;whiteSpace=wrap;shape=isoCube2;backgroundOutline=1;isoAngle=15;" parent="1" vertex="1">
          <mxGeometry x="915" y="450" width="40" height="40" as="geometry" />
        </mxCell>
        <mxCell id="ZMOJJ3-2EahHvgSbeS1f-91" value="" style="html=1;whiteSpace=wrap;shape=isoCube2;backgroundOutline=1;isoAngle=15;" parent="1" vertex="1">
          <mxGeometry x="895" y="460" width="40" height="40" as="geometry" />
        </mxCell>
        <mxCell id="ZMOJJ3-2EahHvgSbeS1f-92" value="" style="html=1;whiteSpace=wrap;shape=isoCube2;backgroundOutline=1;isoAngle=15;" parent="1" vertex="1">
          <mxGeometry x="875" y="470" width="40" height="40" as="geometry" />
        </mxCell>
        <mxCell id="ZMOJJ3-2EahHvgSbeS1f-93" value="" style="html=1;whiteSpace=wrap;shape=isoCube2;backgroundOutline=1;isoAngle=15;fillColor=#d5e8d4;strokeColor=#82b366;" parent="1" vertex="1">
          <mxGeometry x="855" y="480" width="40" height="40" as="geometry" />
        </mxCell>
        <mxCell id="ZMOJJ3-2EahHvgSbeS1f-94" value="" style="html=1;whiteSpace=wrap;shape=isoCube2;backgroundOutline=1;isoAngle=15;" parent="1" vertex="1">
          <mxGeometry x="935" y="460" width="40" height="40" as="geometry" />
        </mxCell>
        <mxCell id="ZMOJJ3-2EahHvgSbeS1f-95" value="" style="html=1;whiteSpace=wrap;shape=isoCube2;backgroundOutline=1;isoAngle=15;" parent="1" vertex="1">
          <mxGeometry x="915" y="470" width="40" height="40" as="geometry" />
        </mxCell>
        <mxCell id="ZMOJJ3-2EahHvgSbeS1f-96" value="" style="html=1;whiteSpace=wrap;shape=isoCube2;backgroundOutline=1;isoAngle=15;" parent="1" vertex="1">
          <mxGeometry x="895" y="480" width="40" height="40" as="geometry" />
        </mxCell>
        <mxCell id="ZMOJJ3-2EahHvgSbeS1f-97" value="" style="html=1;whiteSpace=wrap;shape=isoCube2;backgroundOutline=1;isoAngle=15;fillColor=#d5e8d4;strokeColor=#82b366;" parent="1" vertex="1">
          <mxGeometry x="875" y="490" width="40" height="40" as="geometry" />
        </mxCell>
        <mxCell id="ZMOJJ3-2EahHvgSbeS1f-98" value="" style="html=1;whiteSpace=wrap;shape=isoCube2;backgroundOutline=1;isoAngle=15;" parent="1" vertex="1">
          <mxGeometry x="955" y="470" width="40" height="40" as="geometry" />
        </mxCell>
        <mxCell id="ZMOJJ3-2EahHvgSbeS1f-99" value="" style="html=1;whiteSpace=wrap;shape=isoCube2;backgroundOutline=1;isoAngle=15;" parent="1" vertex="1">
          <mxGeometry x="935" y="480" width="40" height="40" as="geometry" />
        </mxCell>
        <mxCell id="ZMOJJ3-2EahHvgSbeS1f-100" value="" style="html=1;whiteSpace=wrap;shape=isoCube2;backgroundOutline=1;isoAngle=15;" parent="1" vertex="1">
          <mxGeometry x="915" y="490" width="40" height="40" as="geometry" />
        </mxCell>
        <mxCell id="ZMOJJ3-2EahHvgSbeS1f-101" value="" style="html=1;whiteSpace=wrap;shape=isoCube2;backgroundOutline=1;isoAngle=15;fillColor=#d5e8d4;strokeColor=#82b366;" parent="1" vertex="1">
          <mxGeometry x="895" y="500" width="40" height="40" as="geometry" />
        </mxCell>
        <mxCell id="ZMOJJ3-2EahHvgSbeS1f-102" value="" style="html=1;whiteSpace=wrap;shape=isoCube2;backgroundOutline=1;isoAngle=15;" parent="1" vertex="1">
          <mxGeometry x="895" y="420" width="40" height="40" as="geometry" />
        </mxCell>
        <mxCell id="ZMOJJ3-2EahHvgSbeS1f-103" value="" style="html=1;whiteSpace=wrap;shape=isoCube2;backgroundOutline=1;isoAngle=15;" parent="1" vertex="1">
          <mxGeometry x="875" y="430" width="40" height="40" as="geometry" />
        </mxCell>
        <mxCell id="ZMOJJ3-2EahHvgSbeS1f-104" value="" style="html=1;whiteSpace=wrap;shape=isoCube2;backgroundOutline=1;isoAngle=15;" parent="1" vertex="1">
          <mxGeometry x="855" y="440" width="40" height="40" as="geometry" />
        </mxCell>
        <mxCell id="ZMOJJ3-2EahHvgSbeS1f-105" value="" style="html=1;whiteSpace=wrap;shape=isoCube2;backgroundOutline=1;isoAngle=15;fillColor=#d5e8d4;strokeColor=#82b366;" parent="1" vertex="1">
          <mxGeometry x="835" y="450" width="40" height="40" as="geometry" />
        </mxCell>
        <mxCell id="ZMOJJ3-2EahHvgSbeS1f-106" value="" style="html=1;whiteSpace=wrap;shape=isoCube2;backgroundOutline=1;isoAngle=15;" parent="1" vertex="1">
          <mxGeometry x="915" y="430" width="40" height="40" as="geometry" />
        </mxCell>
        <mxCell id="ZMOJJ3-2EahHvgSbeS1f-107" value="" style="html=1;whiteSpace=wrap;shape=isoCube2;backgroundOutline=1;isoAngle=15;" parent="1" vertex="1">
          <mxGeometry x="895" y="440" width="40" height="40" as="geometry" />
        </mxCell>
        <mxCell id="ZMOJJ3-2EahHvgSbeS1f-108" value="" style="html=1;whiteSpace=wrap;shape=isoCube2;backgroundOutline=1;isoAngle=15;" parent="1" vertex="1">
          <mxGeometry x="875" y="450" width="40" height="40" as="geometry" />
        </mxCell>
        <mxCell id="ZMOJJ3-2EahHvgSbeS1f-109" value="" style="html=1;whiteSpace=wrap;shape=isoCube2;backgroundOutline=1;isoAngle=15;fillColor=#d5e8d4;strokeColor=#82b366;" parent="1" vertex="1">
          <mxGeometry x="855" y="460" width="40" height="40" as="geometry" />
        </mxCell>
        <mxCell id="ZMOJJ3-2EahHvgSbeS1f-110" value="" style="html=1;whiteSpace=wrap;shape=isoCube2;backgroundOutline=1;isoAngle=15;" parent="1" vertex="1">
          <mxGeometry x="935" y="440" width="40" height="40" as="geometry" />
        </mxCell>
        <mxCell id="ZMOJJ3-2EahHvgSbeS1f-111" value="" style="html=1;whiteSpace=wrap;shape=isoCube2;backgroundOutline=1;isoAngle=15;" parent="1" vertex="1">
          <mxGeometry x="915" y="450" width="40" height="40" as="geometry" />
        </mxCell>
        <mxCell id="ZMOJJ3-2EahHvgSbeS1f-112" value="" style="html=1;whiteSpace=wrap;shape=isoCube2;backgroundOutline=1;isoAngle=15;" parent="1" vertex="1">
          <mxGeometry x="895" y="460" width="40" height="40" as="geometry" />
        </mxCell>
        <mxCell id="ZMOJJ3-2EahHvgSbeS1f-113" value="" style="html=1;whiteSpace=wrap;shape=isoCube2;backgroundOutline=1;isoAngle=15;fillColor=#d5e8d4;strokeColor=#82b366;" parent="1" vertex="1">
          <mxGeometry x="875" y="470" width="40" height="40" as="geometry" />
        </mxCell>
        <mxCell id="ZMOJJ3-2EahHvgSbeS1f-114" value="" style="html=1;whiteSpace=wrap;shape=isoCube2;backgroundOutline=1;isoAngle=15;" parent="1" vertex="1">
          <mxGeometry x="955" y="450" width="40" height="40" as="geometry" />
        </mxCell>
        <mxCell id="ZMOJJ3-2EahHvgSbeS1f-115" value="" style="html=1;whiteSpace=wrap;shape=isoCube2;backgroundOutline=1;isoAngle=15;" parent="1" vertex="1">
          <mxGeometry x="935" y="460" width="40" height="40" as="geometry" />
        </mxCell>
        <mxCell id="ZMOJJ3-2EahHvgSbeS1f-116" value="" style="html=1;whiteSpace=wrap;shape=isoCube2;backgroundOutline=1;isoAngle=15;" parent="1" vertex="1">
          <mxGeometry x="915" y="470" width="40" height="40" as="geometry" />
        </mxCell>
        <mxCell id="ZMOJJ3-2EahHvgSbeS1f-117" value="" style="html=1;whiteSpace=wrap;shape=isoCube2;backgroundOutline=1;isoAngle=15;fillColor=#d5e8d4;strokeColor=#82b366;" parent="1" vertex="1">
          <mxGeometry x="895" y="480" width="40" height="40" as="geometry" />
        </mxCell>
        <mxCell id="ZMOJJ3-2EahHvgSbeS1f-118" value="" style="html=1;whiteSpace=wrap;shape=isoCube2;backgroundOutline=1;isoAngle=15;" parent="1" vertex="1">
          <mxGeometry x="895" y="400" width="40" height="40" as="geometry" />
        </mxCell>
        <mxCell id="ZMOJJ3-2EahHvgSbeS1f-119" value="" style="html=1;whiteSpace=wrap;shape=isoCube2;backgroundOutline=1;isoAngle=15;" parent="1" vertex="1">
          <mxGeometry x="875" y="410" width="40" height="40" as="geometry" />
        </mxCell>
        <mxCell id="ZMOJJ3-2EahHvgSbeS1f-120" value="" style="html=1;whiteSpace=wrap;shape=isoCube2;backgroundOutline=1;isoAngle=15;" parent="1" vertex="1">
          <mxGeometry x="855" y="420" width="40" height="40" as="geometry" />
        </mxCell>
        <mxCell id="ZMOJJ3-2EahHvgSbeS1f-121" value="" style="html=1;whiteSpace=wrap;shape=isoCube2;backgroundOutline=1;isoAngle=15;fillColor=#dae8fc;strokeColor=#6c8ebf;" parent="1" vertex="1">
          <mxGeometry x="835" y="430" width="40" height="40" as="geometry" />
        </mxCell>
        <mxCell id="ZMOJJ3-2EahHvgSbeS1f-122" value="" style="html=1;whiteSpace=wrap;shape=isoCube2;backgroundOutline=1;isoAngle=15;" parent="1" vertex="1">
          <mxGeometry x="915" y="410" width="40" height="40" as="geometry" />
        </mxCell>
        <mxCell id="ZMOJJ3-2EahHvgSbeS1f-123" value="" style="html=1;whiteSpace=wrap;shape=isoCube2;backgroundOutline=1;isoAngle=15;" parent="1" vertex="1">
          <mxGeometry x="895" y="420" width="40" height="40" as="geometry" />
        </mxCell>
        <mxCell id="ZMOJJ3-2EahHvgSbeS1f-124" value="" style="html=1;whiteSpace=wrap;shape=isoCube2;backgroundOutline=1;isoAngle=15;" parent="1" vertex="1">
          <mxGeometry x="875" y="430" width="40" height="40" as="geometry" />
        </mxCell>
        <mxCell id="ZMOJJ3-2EahHvgSbeS1f-125" value="" style="html=1;whiteSpace=wrap;shape=isoCube2;backgroundOutline=1;isoAngle=15;fillColor=#dae8fc;strokeColor=#6c8ebf;" parent="1" vertex="1">
          <mxGeometry x="855" y="440" width="40" height="40" as="geometry" />
        </mxCell>
        <mxCell id="ZMOJJ3-2EahHvgSbeS1f-126" value="" style="html=1;whiteSpace=wrap;shape=isoCube2;backgroundOutline=1;isoAngle=15;" parent="1" vertex="1">
          <mxGeometry x="935" y="420" width="40" height="40" as="geometry" />
        </mxCell>
        <mxCell id="ZMOJJ3-2EahHvgSbeS1f-127" value="" style="html=1;whiteSpace=wrap;shape=isoCube2;backgroundOutline=1;isoAngle=15;" parent="1" vertex="1">
          <mxGeometry x="915" y="430" width="40" height="40" as="geometry" />
        </mxCell>
        <mxCell id="ZMOJJ3-2EahHvgSbeS1f-128" value="" style="html=1;whiteSpace=wrap;shape=isoCube2;backgroundOutline=1;isoAngle=15;" parent="1" vertex="1">
          <mxGeometry x="895" y="440" width="40" height="40" as="geometry" />
        </mxCell>
        <mxCell id="ZMOJJ3-2EahHvgSbeS1f-129" value="" style="html=1;whiteSpace=wrap;shape=isoCube2;backgroundOutline=1;isoAngle=15;fillColor=#dae8fc;strokeColor=#6c8ebf;" parent="1" vertex="1">
          <mxGeometry x="875" y="450" width="40" height="40" as="geometry" />
        </mxCell>
        <mxCell id="ZMOJJ3-2EahHvgSbeS1f-130" value="" style="html=1;whiteSpace=wrap;shape=isoCube2;backgroundOutline=1;isoAngle=15;" parent="1" vertex="1">
          <mxGeometry x="955" y="430" width="40" height="40" as="geometry" />
        </mxCell>
        <mxCell id="ZMOJJ3-2EahHvgSbeS1f-131" value="" style="html=1;whiteSpace=wrap;shape=isoCube2;backgroundOutline=1;isoAngle=15;" parent="1" vertex="1">
          <mxGeometry x="935" y="440" width="40" height="40" as="geometry" />
        </mxCell>
        <mxCell id="ZMOJJ3-2EahHvgSbeS1f-132" value="" style="html=1;whiteSpace=wrap;shape=isoCube2;backgroundOutline=1;isoAngle=15;" parent="1" vertex="1">
          <mxGeometry x="915" y="450" width="40" height="40" as="geometry" />
        </mxCell>
        <mxCell id="ZMOJJ3-2EahHvgSbeS1f-133" value="" style="html=1;whiteSpace=wrap;shape=isoCube2;backgroundOutline=1;isoAngle=15;fillColor=#dae8fc;strokeColor=#6c8ebf;" parent="1" vertex="1">
          <mxGeometry x="895" y="460" width="40" height="40" as="geometry" />
        </mxCell>
        <mxCell id="ZMOJJ3-2EahHvgSbeS1f-134" value="" style="html=1;whiteSpace=wrap;shape=isoCube2;backgroundOutline=1;isoAngle=15;fillColor=#dae8fc;strokeColor=#6c8ebf;" parent="1" vertex="1">
          <mxGeometry x="895" y="380" width="40" height="40" as="geometry" />
        </mxCell>
        <mxCell id="ZMOJJ3-2EahHvgSbeS1f-135" value="" style="html=1;whiteSpace=wrap;shape=isoCube2;backgroundOutline=1;isoAngle=15;fillColor=#dae8fc;strokeColor=#6c8ebf;" parent="1" vertex="1">
          <mxGeometry x="875" y="390" width="40" height="40" as="geometry" />
        </mxCell>
        <mxCell id="ZMOJJ3-2EahHvgSbeS1f-136" value="" style="html=1;whiteSpace=wrap;shape=isoCube2;backgroundOutline=1;isoAngle=15;fillColor=#dae8fc;strokeColor=#6c8ebf;" parent="1" vertex="1">
          <mxGeometry x="855" y="400" width="40" height="40" as="geometry" />
        </mxCell>
        <mxCell id="ZMOJJ3-2EahHvgSbeS1f-137" value="" style="html=1;whiteSpace=wrap;shape=isoCube2;backgroundOutline=1;isoAngle=15;fillColor=#dae8fc;strokeColor=#6c8ebf;" parent="1" vertex="1">
          <mxGeometry x="835" y="410" width="40" height="40" as="geometry" />
        </mxCell>
        <mxCell id="ZMOJJ3-2EahHvgSbeS1f-138" value="" style="html=1;whiteSpace=wrap;shape=isoCube2;backgroundOutline=1;isoAngle=15;fillColor=#dae8fc;strokeColor=#6c8ebf;" parent="1" vertex="1">
          <mxGeometry x="915" y="390" width="40" height="40" as="geometry" />
        </mxCell>
        <mxCell id="ZMOJJ3-2EahHvgSbeS1f-139" value="" style="html=1;whiteSpace=wrap;shape=isoCube2;backgroundOutline=1;isoAngle=15;fillColor=#dae8fc;strokeColor=#6c8ebf;" parent="1" vertex="1">
          <mxGeometry x="895" y="400" width="40" height="40" as="geometry" />
        </mxCell>
        <mxCell id="ZMOJJ3-2EahHvgSbeS1f-140" value="" style="html=1;whiteSpace=wrap;shape=isoCube2;backgroundOutline=1;isoAngle=15;fillColor=#dae8fc;strokeColor=#6c8ebf;" parent="1" vertex="1">
          <mxGeometry x="875" y="410" width="40" height="40" as="geometry" />
        </mxCell>
        <mxCell id="ZMOJJ3-2EahHvgSbeS1f-141" value="" style="html=1;whiteSpace=wrap;shape=isoCube2;backgroundOutline=1;isoAngle=15;fillColor=#dae8fc;strokeColor=#6c8ebf;" parent="1" vertex="1">
          <mxGeometry x="855" y="420" width="40" height="40" as="geometry" />
        </mxCell>
        <mxCell id="ZMOJJ3-2EahHvgSbeS1f-142" value="" style="html=1;whiteSpace=wrap;shape=isoCube2;backgroundOutline=1;isoAngle=15;fillColor=#dae8fc;strokeColor=#6c8ebf;" parent="1" vertex="1">
          <mxGeometry x="935" y="400" width="40" height="40" as="geometry" />
        </mxCell>
        <mxCell id="ZMOJJ3-2EahHvgSbeS1f-143" value="" style="html=1;whiteSpace=wrap;shape=isoCube2;backgroundOutline=1;isoAngle=15;fillColor=#dae8fc;strokeColor=#6c8ebf;" parent="1" vertex="1">
          <mxGeometry x="915" y="410" width="40" height="40" as="geometry" />
        </mxCell>
        <mxCell id="ZMOJJ3-2EahHvgSbeS1f-144" value="" style="html=1;whiteSpace=wrap;shape=isoCube2;backgroundOutline=1;isoAngle=15;fillColor=#dae8fc;strokeColor=#6c8ebf;" parent="1" vertex="1">
          <mxGeometry x="895" y="420" width="40" height="40" as="geometry" />
        </mxCell>
        <mxCell id="ZMOJJ3-2EahHvgSbeS1f-145" value="" style="html=1;whiteSpace=wrap;shape=isoCube2;backgroundOutline=1;isoAngle=15;fillColor=#dae8fc;strokeColor=#6c8ebf;" parent="1" vertex="1">
          <mxGeometry x="875" y="430" width="40" height="40" as="geometry" />
        </mxCell>
        <mxCell id="ZMOJJ3-2EahHvgSbeS1f-146" value="" style="html=1;whiteSpace=wrap;shape=isoCube2;backgroundOutline=1;isoAngle=15;fillColor=#dae8fc;strokeColor=#6c8ebf;" parent="1" vertex="1">
          <mxGeometry x="955" y="410" width="40" height="40" as="geometry" />
        </mxCell>
        <mxCell id="ZMOJJ3-2EahHvgSbeS1f-147" value="" style="html=1;whiteSpace=wrap;shape=isoCube2;backgroundOutline=1;isoAngle=15;fillColor=#dae8fc;strokeColor=#6c8ebf;" parent="1" vertex="1">
          <mxGeometry x="935" y="420" width="40" height="40" as="geometry" />
        </mxCell>
        <mxCell id="ZMOJJ3-2EahHvgSbeS1f-148" value="" style="html=1;whiteSpace=wrap;shape=isoCube2;backgroundOutline=1;isoAngle=15;fillColor=#dae8fc;strokeColor=#6c8ebf;" parent="1" vertex="1">
          <mxGeometry x="915" y="430" width="40" height="40" as="geometry" />
        </mxCell>
        <mxCell id="ZMOJJ3-2EahHvgSbeS1f-149" value="" style="html=1;whiteSpace=wrap;shape=isoCube2;backgroundOutline=1;isoAngle=15;fillColor=#dae8fc;strokeColor=#6c8ebf;" parent="1" vertex="1">
          <mxGeometry x="895" y="440" width="40" height="40" as="geometry" />
        </mxCell>
        <mxCell id="ZMOJJ3-2EahHvgSbeS1f-150" value="E" style="text;html=1;align=center;verticalAlign=middle;whiteSpace=wrap;rounded=0;fontStyle=1" parent="1" vertex="1">
          <mxGeometry x="810" y="440" width="20" height="30" as="geometry" />
        </mxCell>
        <mxCell id="ZMOJJ3-2EahHvgSbeS1f-151" value="T" style="text;html=1;align=center;verticalAlign=middle;whiteSpace=wrap;rounded=0;fontStyle=1" parent="1" vertex="1">
          <mxGeometry x="870" y="520" width="20" height="30" as="geometry" />
        </mxCell>
        <mxCell id="ZMOJJ3-2EahHvgSbeS1f-152" value="B" style="text;html=1;align=center;verticalAlign=middle;whiteSpace=wrap;rounded=0;fontStyle=1" parent="1" vertex="1">
          <mxGeometry x="837" y="380" width="40" height="30" as="geometry" />
        </mxCell>
        <mxCell id="ZMOJJ3-2EahHvgSbeS1f-153" value="" style="html=1;whiteSpace=wrap;shape=isoCube2;backgroundOutline=1;isoAngle=15;fillColor=#d5e8d4;strokeColor=#82b366;" parent="1" vertex="1">
          <mxGeometry x="975" y="480" width="40" height="40" as="geometry" />
        </mxCell>
        <mxCell id="ZMOJJ3-2EahHvgSbeS1f-154" value="" style="html=1;whiteSpace=wrap;shape=isoCube2;backgroundOutline=1;isoAngle=15;fillColor=#d5e8d4;strokeColor=#82b366;" parent="1" vertex="1">
          <mxGeometry x="955" y="490" width="40" height="40" as="geometry" />
        </mxCell>
        <mxCell id="ZMOJJ3-2EahHvgSbeS1f-155" value="" style="html=1;whiteSpace=wrap;shape=isoCube2;backgroundOutline=1;isoAngle=15;fillColor=#d5e8d4;strokeColor=#82b366;" parent="1" vertex="1">
          <mxGeometry x="935" y="500" width="40" height="40" as="geometry" />
        </mxCell>
        <mxCell id="ZMOJJ3-2EahHvgSbeS1f-156" value="" style="html=1;whiteSpace=wrap;shape=isoCube2;backgroundOutline=1;isoAngle=15;fillColor=#d5e8d4;strokeColor=#82b366;" parent="1" vertex="1">
          <mxGeometry x="915" y="510" width="40" height="40" as="geometry" />
        </mxCell>
        <mxCell id="ZMOJJ3-2EahHvgSbeS1f-157" value="" style="html=1;whiteSpace=wrap;shape=isoCube2;backgroundOutline=1;isoAngle=15;fillColor=#d5e8d4;strokeColor=#82b366;" parent="1" vertex="1">
          <mxGeometry x="975" y="460" width="40" height="40" as="geometry" />
        </mxCell>
        <mxCell id="ZMOJJ3-2EahHvgSbeS1f-158" value="" style="html=1;whiteSpace=wrap;shape=isoCube2;backgroundOutline=1;isoAngle=15;fillColor=#d5e8d4;strokeColor=#82b366;" parent="1" vertex="1">
          <mxGeometry x="955" y="470" width="40" height="40" as="geometry" />
        </mxCell>
        <mxCell id="ZMOJJ3-2EahHvgSbeS1f-159" value="" style="html=1;whiteSpace=wrap;shape=isoCube2;backgroundOutline=1;isoAngle=15;fillColor=#d5e8d4;strokeColor=#82b366;" parent="1" vertex="1">
          <mxGeometry x="935" y="480" width="40" height="40" as="geometry" />
        </mxCell>
        <mxCell id="ZMOJJ3-2EahHvgSbeS1f-160" value="" style="html=1;whiteSpace=wrap;shape=isoCube2;backgroundOutline=1;isoAngle=15;fillColor=#d5e8d4;strokeColor=#82b366;" parent="1" vertex="1">
          <mxGeometry x="915" y="490" width="40" height="40" as="geometry" />
        </mxCell>
        <mxCell id="ZMOJJ3-2EahHvgSbeS1f-161" value="" style="html=1;whiteSpace=wrap;shape=isoCube2;backgroundOutline=1;isoAngle=15;fillColor=#dae8fc;strokeColor=#6c8ebf;" parent="1" vertex="1">
          <mxGeometry x="975" y="440" width="40" height="40" as="geometry" />
        </mxCell>
        <mxCell id="ZMOJJ3-2EahHvgSbeS1f-162" value="" style="html=1;whiteSpace=wrap;shape=isoCube2;backgroundOutline=1;isoAngle=15;fillColor=#dae8fc;strokeColor=#6c8ebf;" parent="1" vertex="1">
          <mxGeometry x="955" y="450" width="40" height="40" as="geometry" />
        </mxCell>
        <mxCell id="ZMOJJ3-2EahHvgSbeS1f-163" value="" style="html=1;whiteSpace=wrap;shape=isoCube2;backgroundOutline=1;isoAngle=15;fillColor=#dae8fc;strokeColor=#6c8ebf;" parent="1" vertex="1">
          <mxGeometry x="935" y="460" width="40" height="40" as="geometry" />
        </mxCell>
        <mxCell id="ZMOJJ3-2EahHvgSbeS1f-164" value="" style="html=1;whiteSpace=wrap;shape=isoCube2;backgroundOutline=1;isoAngle=15;fillColor=#dae8fc;strokeColor=#6c8ebf;" parent="1" vertex="1">
          <mxGeometry x="915" y="470" width="40" height="40" as="geometry" />
        </mxCell>
        <mxCell id="ZMOJJ3-2EahHvgSbeS1f-165" value="" style="html=1;whiteSpace=wrap;shape=isoCube2;backgroundOutline=1;isoAngle=15;fillColor=#dae8fc;strokeColor=#6c8ebf;" parent="1" vertex="1">
          <mxGeometry x="975" y="420" width="40" height="40" as="geometry" />
        </mxCell>
        <mxCell id="ZMOJJ3-2EahHvgSbeS1f-166" value="" style="html=1;whiteSpace=wrap;shape=isoCube2;backgroundOutline=1;isoAngle=15;fillColor=#dae8fc;strokeColor=#6c8ebf;" parent="1" vertex="1">
          <mxGeometry x="955" y="430" width="40" height="40" as="geometry" />
        </mxCell>
        <mxCell id="ZMOJJ3-2EahHvgSbeS1f-167" value="" style="html=1;whiteSpace=wrap;shape=isoCube2;backgroundOutline=1;isoAngle=15;fillColor=#dae8fc;strokeColor=#6c8ebf;" parent="1" vertex="1">
          <mxGeometry x="935" y="440" width="40" height="40" as="geometry" />
        </mxCell>
        <mxCell id="ZMOJJ3-2EahHvgSbeS1f-168" value="" style="html=1;whiteSpace=wrap;shape=isoCube2;backgroundOutline=1;isoAngle=15;fillColor=#dae8fc;strokeColor=#6c8ebf;" parent="1" vertex="1">
          <mxGeometry x="915" y="450" width="40" height="40" as="geometry" />
        </mxCell>
        <mxCell id="ZMOJJ3-2EahHvgSbeS1f-252" value="Pipeline Parallelism" style="text;strokeColor=none;fillColor=none;align=left;verticalAlign=middle;spacingLeft=4;spacingRight=4;overflow=hidden;points=[[0,0.5],[1,0.5]];portConstraint=eastwest;rotatable=0;whiteSpace=wrap;html=1;fontSize=18;" parent="1" vertex="1">
          <mxGeometry x="310" y="58" width="340" height="30" as="geometry" />
        </mxCell>
        <mxCell id="ZMOJJ3-2EahHvgSbeS1f-253" value="" style="html=1;whiteSpace=wrap;shape=isoCube2;backgroundOutline=1;isoAngle=15;" parent="1" vertex="1">
          <mxGeometry x="380" y="166" width="40" height="40" as="geometry" />
        </mxCell>
        <mxCell id="ZMOJJ3-2EahHvgSbeS1f-254" value="" style="html=1;whiteSpace=wrap;shape=isoCube2;backgroundOutline=1;isoAngle=15;" parent="1" vertex="1">
          <mxGeometry x="360" y="176" width="40" height="40" as="geometry" />
        </mxCell>
        <mxCell id="ZMOJJ3-2EahHvgSbeS1f-255" value="" style="html=1;whiteSpace=wrap;shape=isoCube2;backgroundOutline=1;isoAngle=15;" parent="1" vertex="1">
          <mxGeometry x="340" y="186" width="40" height="40" as="geometry" />
        </mxCell>
        <mxCell id="ZMOJJ3-2EahHvgSbeS1f-256" value="" style="html=1;whiteSpace=wrap;shape=isoCube2;backgroundOutline=1;isoAngle=15;fillColor=#dae8fc;strokeColor=#6c8ebf;" parent="1" vertex="1">
          <mxGeometry x="320" y="196" width="40" height="40" as="geometry" />
        </mxCell>
        <mxCell id="ZMOJJ3-2EahHvgSbeS1f-257" value="" style="html=1;whiteSpace=wrap;shape=isoCube2;backgroundOutline=1;isoAngle=15;" parent="1" vertex="1">
          <mxGeometry x="400" y="176" width="40" height="40" as="geometry" />
        </mxCell>
        <mxCell id="ZMOJJ3-2EahHvgSbeS1f-258" value="" style="html=1;whiteSpace=wrap;shape=isoCube2;backgroundOutline=1;isoAngle=15;" parent="1" vertex="1">
          <mxGeometry x="380" y="186" width="40" height="40" as="geometry" />
        </mxCell>
        <mxCell id="ZMOJJ3-2EahHvgSbeS1f-259" value="" style="html=1;whiteSpace=wrap;shape=isoCube2;backgroundOutline=1;isoAngle=15;" parent="1" vertex="1">
          <mxGeometry x="360" y="196" width="40" height="40" as="geometry" />
        </mxCell>
        <mxCell id="ZMOJJ3-2EahHvgSbeS1f-260" value="" style="html=1;whiteSpace=wrap;shape=isoCube2;backgroundOutline=1;isoAngle=15;fillColor=#dae8fc;strokeColor=#6c8ebf;" parent="1" vertex="1">
          <mxGeometry x="340" y="206" width="40" height="40" as="geometry" />
        </mxCell>
        <mxCell id="ZMOJJ3-2EahHvgSbeS1f-261" value="" style="html=1;whiteSpace=wrap;shape=isoCube2;backgroundOutline=1;isoAngle=15;fillColor=#f8cecc;strokeColor=#b85450;" parent="1" vertex="1">
          <mxGeometry x="420" y="186" width="40" height="40" as="geometry" />
        </mxCell>
        <mxCell id="ZMOJJ3-2EahHvgSbeS1f-262" value="" style="html=1;whiteSpace=wrap;shape=isoCube2;backgroundOutline=1;isoAngle=15;" parent="1" vertex="1">
          <mxGeometry x="400" y="196" width="40" height="40" as="geometry" />
        </mxCell>
        <mxCell id="ZMOJJ3-2EahHvgSbeS1f-263" value="" style="html=1;whiteSpace=wrap;shape=isoCube2;backgroundOutline=1;isoAngle=15;" parent="1" vertex="1">
          <mxGeometry x="380" y="206" width="40" height="40" as="geometry" />
        </mxCell>
        <mxCell id="ZMOJJ3-2EahHvgSbeS1f-264" value="" style="html=1;whiteSpace=wrap;shape=isoCube2;backgroundOutline=1;isoAngle=15;fillColor=#f8cecc;strokeColor=#b85450;" parent="1" vertex="1">
          <mxGeometry x="360" y="216" width="40" height="40" as="geometry" />
        </mxCell>
        <mxCell id="ZMOJJ3-2EahHvgSbeS1f-265" value="" style="html=1;whiteSpace=wrap;shape=isoCube2;backgroundOutline=1;isoAngle=15;fillColor=#f8cecc;strokeColor=#b85450;" parent="1" vertex="1">
          <mxGeometry x="440" y="196" width="40" height="40" as="geometry" />
        </mxCell>
        <mxCell id="ZMOJJ3-2EahHvgSbeS1f-266" value="" style="html=1;whiteSpace=wrap;shape=isoCube2;backgroundOutline=1;isoAngle=15;fillColor=#f8cecc;strokeColor=#b85450;" parent="1" vertex="1">
          <mxGeometry x="420" y="206" width="40" height="40" as="geometry" />
        </mxCell>
        <mxCell id="ZMOJJ3-2EahHvgSbeS1f-267" value="" style="html=1;whiteSpace=wrap;shape=isoCube2;backgroundOutline=1;isoAngle=15;" parent="1" vertex="1">
          <mxGeometry x="400" y="216" width="40" height="40" as="geometry" />
        </mxCell>
        <mxCell id="ZMOJJ3-2EahHvgSbeS1f-268" value="" style="html=1;whiteSpace=wrap;shape=isoCube2;backgroundOutline=1;isoAngle=15;fillColor=#f8cecc;strokeColor=#b85450;" parent="1" vertex="1">
          <mxGeometry x="380" y="226" width="40" height="40" as="geometry" />
        </mxCell>
        <mxCell id="ZMOJJ3-2EahHvgSbeS1f-269" value="" style="html=1;whiteSpace=wrap;shape=isoCube2;backgroundOutline=1;isoAngle=15;" parent="1" vertex="1">
          <mxGeometry x="380" y="146" width="40" height="40" as="geometry" />
        </mxCell>
        <mxCell id="ZMOJJ3-2EahHvgSbeS1f-270" value="" style="html=1;whiteSpace=wrap;shape=isoCube2;backgroundOutline=1;isoAngle=15;" parent="1" vertex="1">
          <mxGeometry x="360" y="156" width="40" height="40" as="geometry" />
        </mxCell>
        <mxCell id="ZMOJJ3-2EahHvgSbeS1f-271" value="" style="html=1;whiteSpace=wrap;shape=isoCube2;backgroundOutline=1;isoAngle=15;" parent="1" vertex="1">
          <mxGeometry x="340" y="166" width="40" height="40" as="geometry" />
        </mxCell>
        <mxCell id="ZMOJJ3-2EahHvgSbeS1f-272" value="" style="html=1;whiteSpace=wrap;shape=isoCube2;backgroundOutline=1;isoAngle=15;fillColor=#dae8fc;strokeColor=#6c8ebf;" parent="1" vertex="1">
          <mxGeometry x="320" y="176" width="40" height="40" as="geometry" />
        </mxCell>
        <mxCell id="ZMOJJ3-2EahHvgSbeS1f-273" value="" style="html=1;whiteSpace=wrap;shape=isoCube2;backgroundOutline=1;isoAngle=15;" parent="1" vertex="1">
          <mxGeometry x="400" y="156" width="40" height="40" as="geometry" />
        </mxCell>
        <mxCell id="ZMOJJ3-2EahHvgSbeS1f-274" value="" style="html=1;whiteSpace=wrap;shape=isoCube2;backgroundOutline=1;isoAngle=15;" parent="1" vertex="1">
          <mxGeometry x="380" y="166" width="40" height="40" as="geometry" />
        </mxCell>
        <mxCell id="ZMOJJ3-2EahHvgSbeS1f-275" value="" style="html=1;whiteSpace=wrap;shape=isoCube2;backgroundOutline=1;isoAngle=15;" parent="1" vertex="1">
          <mxGeometry x="360" y="176" width="40" height="40" as="geometry" />
        </mxCell>
        <mxCell id="ZMOJJ3-2EahHvgSbeS1f-276" value="" style="html=1;whiteSpace=wrap;shape=isoCube2;backgroundOutline=1;isoAngle=15;fillColor=#dae8fc;strokeColor=#6c8ebf;" parent="1" vertex="1">
          <mxGeometry x="340" y="186" width="40" height="40" as="geometry" />
        </mxCell>
        <mxCell id="ZMOJJ3-2EahHvgSbeS1f-277" value="" style="html=1;whiteSpace=wrap;shape=isoCube2;backgroundOutline=1;isoAngle=15;fillColor=#f8cecc;strokeColor=#b85450;" parent="1" vertex="1">
          <mxGeometry x="420" y="166" width="40" height="40" as="geometry" />
        </mxCell>
        <mxCell id="ZMOJJ3-2EahHvgSbeS1f-278" value="" style="html=1;whiteSpace=wrap;shape=isoCube2;backgroundOutline=1;isoAngle=15;" parent="1" vertex="1">
          <mxGeometry x="400" y="176" width="40" height="40" as="geometry" />
        </mxCell>
        <mxCell id="ZMOJJ3-2EahHvgSbeS1f-279" value="" style="html=1;whiteSpace=wrap;shape=isoCube2;backgroundOutline=1;isoAngle=15;" parent="1" vertex="1">
          <mxGeometry x="380" y="186" width="40" height="40" as="geometry" />
        </mxCell>
        <mxCell id="ZMOJJ3-2EahHvgSbeS1f-280" value="" style="html=1;whiteSpace=wrap;shape=isoCube2;backgroundOutline=1;isoAngle=15;fillColor=#f8cecc;strokeColor=#b85450;" parent="1" vertex="1">
          <mxGeometry x="360" y="196" width="40" height="40" as="geometry" />
        </mxCell>
        <mxCell id="ZMOJJ3-2EahHvgSbeS1f-281" value="" style="html=1;whiteSpace=wrap;shape=isoCube2;backgroundOutline=1;isoAngle=15;fillColor=#f8cecc;strokeColor=#b85450;" parent="1" vertex="1">
          <mxGeometry x="440" y="176" width="40" height="40" as="geometry" />
        </mxCell>
        <mxCell id="ZMOJJ3-2EahHvgSbeS1f-282" value="" style="html=1;whiteSpace=wrap;shape=isoCube2;backgroundOutline=1;isoAngle=15;fillColor=#f8cecc;strokeColor=#b85450;" parent="1" vertex="1">
          <mxGeometry x="420" y="186" width="40" height="40" as="geometry" />
        </mxCell>
        <mxCell id="ZMOJJ3-2EahHvgSbeS1f-283" value="" style="html=1;whiteSpace=wrap;shape=isoCube2;backgroundOutline=1;isoAngle=15;" parent="1" vertex="1">
          <mxGeometry x="400" y="196" width="40" height="40" as="geometry" />
        </mxCell>
        <mxCell id="ZMOJJ3-2EahHvgSbeS1f-284" value="" style="html=1;whiteSpace=wrap;shape=isoCube2;backgroundOutline=1;isoAngle=15;fillColor=#f8cecc;strokeColor=#b85450;" parent="1" vertex="1">
          <mxGeometry x="380" y="206" width="40" height="40" as="geometry" />
        </mxCell>
        <mxCell id="ZMOJJ3-2EahHvgSbeS1f-285" value="" style="html=1;whiteSpace=wrap;shape=isoCube2;backgroundOutline=1;isoAngle=15;" parent="1" vertex="1">
          <mxGeometry x="380" y="126" width="40" height="40" as="geometry" />
        </mxCell>
        <mxCell id="ZMOJJ3-2EahHvgSbeS1f-286" value="" style="html=1;whiteSpace=wrap;shape=isoCube2;backgroundOutline=1;isoAngle=15;" parent="1" vertex="1">
          <mxGeometry x="360" y="136" width="40" height="40" as="geometry" />
        </mxCell>
        <mxCell id="ZMOJJ3-2EahHvgSbeS1f-287" value="" style="html=1;whiteSpace=wrap;shape=isoCube2;backgroundOutline=1;isoAngle=15;" parent="1" vertex="1">
          <mxGeometry x="340" y="146" width="40" height="40" as="geometry" />
        </mxCell>
        <mxCell id="ZMOJJ3-2EahHvgSbeS1f-288" value="" style="html=1;whiteSpace=wrap;shape=isoCube2;backgroundOutline=1;isoAngle=15;fillColor=#dae8fc;strokeColor=#6c8ebf;" parent="1" vertex="1">
          <mxGeometry x="320" y="156" width="40" height="40" as="geometry" />
        </mxCell>
        <mxCell id="ZMOJJ3-2EahHvgSbeS1f-289" value="" style="html=1;whiteSpace=wrap;shape=isoCube2;backgroundOutline=1;isoAngle=15;" parent="1" vertex="1">
          <mxGeometry x="400" y="136" width="40" height="40" as="geometry" />
        </mxCell>
        <mxCell id="ZMOJJ3-2EahHvgSbeS1f-290" value="" style="html=1;whiteSpace=wrap;shape=isoCube2;backgroundOutline=1;isoAngle=15;" parent="1" vertex="1">
          <mxGeometry x="380" y="146" width="40" height="40" as="geometry" />
        </mxCell>
        <mxCell id="ZMOJJ3-2EahHvgSbeS1f-291" value="" style="html=1;whiteSpace=wrap;shape=isoCube2;backgroundOutline=1;isoAngle=15;" parent="1" vertex="1">
          <mxGeometry x="360" y="156" width="40" height="40" as="geometry" />
        </mxCell>
        <mxCell id="ZMOJJ3-2EahHvgSbeS1f-292" value="" style="html=1;whiteSpace=wrap;shape=isoCube2;backgroundOutline=1;isoAngle=15;fillColor=#dae8fc;strokeColor=#6c8ebf;" parent="1" vertex="1">
          <mxGeometry x="340" y="166" width="40" height="40" as="geometry" />
        </mxCell>
        <mxCell id="ZMOJJ3-2EahHvgSbeS1f-293" value="" style="html=1;whiteSpace=wrap;shape=isoCube2;backgroundOutline=1;isoAngle=15;fillColor=#f8cecc;strokeColor=#b85450;" parent="1" vertex="1">
          <mxGeometry x="420" y="146" width="40" height="40" as="geometry" />
        </mxCell>
        <mxCell id="ZMOJJ3-2EahHvgSbeS1f-294" value="" style="html=1;whiteSpace=wrap;shape=isoCube2;backgroundOutline=1;isoAngle=15;" parent="1" vertex="1">
          <mxGeometry x="400" y="156" width="40" height="40" as="geometry" />
        </mxCell>
        <mxCell id="ZMOJJ3-2EahHvgSbeS1f-295" value="" style="html=1;whiteSpace=wrap;shape=isoCube2;backgroundOutline=1;isoAngle=15;" parent="1" vertex="1">
          <mxGeometry x="380" y="166" width="40" height="40" as="geometry" />
        </mxCell>
        <mxCell id="ZMOJJ3-2EahHvgSbeS1f-296" value="" style="html=1;whiteSpace=wrap;shape=isoCube2;backgroundOutline=1;isoAngle=15;fillColor=#f8cecc;strokeColor=#b85450;" parent="1" vertex="1">
          <mxGeometry x="360" y="176" width="40" height="40" as="geometry" />
        </mxCell>
        <mxCell id="ZMOJJ3-2EahHvgSbeS1f-297" value="" style="html=1;whiteSpace=wrap;shape=isoCube2;backgroundOutline=1;isoAngle=15;fillColor=#f8cecc;strokeColor=#b85450;" parent="1" vertex="1">
          <mxGeometry x="440" y="156" width="40" height="40" as="geometry" />
        </mxCell>
        <mxCell id="ZMOJJ3-2EahHvgSbeS1f-298" value="" style="html=1;whiteSpace=wrap;shape=isoCube2;backgroundOutline=1;isoAngle=15;fillColor=#f8cecc;strokeColor=#b85450;" parent="1" vertex="1">
          <mxGeometry x="420" y="166" width="40" height="40" as="geometry" />
        </mxCell>
        <mxCell id="ZMOJJ3-2EahHvgSbeS1f-299" value="" style="html=1;whiteSpace=wrap;shape=isoCube2;backgroundOutline=1;isoAngle=15;" parent="1" vertex="1">
          <mxGeometry x="400" y="176" width="40" height="40" as="geometry" />
        </mxCell>
        <mxCell id="ZMOJJ3-2EahHvgSbeS1f-300" value="" style="html=1;whiteSpace=wrap;shape=isoCube2;backgroundOutline=1;isoAngle=15;fillColor=#f8cecc;strokeColor=#b85450;" parent="1" vertex="1">
          <mxGeometry x="380" y="186" width="40" height="40" as="geometry" />
        </mxCell>
        <mxCell id="ZMOJJ3-2EahHvgSbeS1f-301" value="" style="html=1;whiteSpace=wrap;shape=isoCube2;backgroundOutline=1;isoAngle=15;fillColor=#dae8fc;strokeColor=#6c8ebf;" parent="1" vertex="1">
          <mxGeometry x="380" y="106" width="40" height="40" as="geometry" />
        </mxCell>
        <mxCell id="ZMOJJ3-2EahHvgSbeS1f-302" value="" style="html=1;whiteSpace=wrap;shape=isoCube2;backgroundOutline=1;isoAngle=15;fillColor=#dae8fc;strokeColor=#6c8ebf;" parent="1" vertex="1">
          <mxGeometry x="360" y="116" width="40" height="40" as="geometry" />
        </mxCell>
        <mxCell id="ZMOJJ3-2EahHvgSbeS1f-303" value="" style="html=1;whiteSpace=wrap;shape=isoCube2;backgroundOutline=1;isoAngle=15;fillColor=#dae8fc;strokeColor=#6c8ebf;" parent="1" vertex="1">
          <mxGeometry x="340" y="126" width="40" height="40" as="geometry" />
        </mxCell>
        <mxCell id="ZMOJJ3-2EahHvgSbeS1f-304" value="" style="html=1;whiteSpace=wrap;shape=isoCube2;backgroundOutline=1;isoAngle=15;fillColor=#dae8fc;strokeColor=#6c8ebf;" parent="1" vertex="1">
          <mxGeometry x="320" y="136" width="40" height="40" as="geometry" />
        </mxCell>
        <mxCell id="ZMOJJ3-2EahHvgSbeS1f-305" value="" style="html=1;whiteSpace=wrap;shape=isoCube2;backgroundOutline=1;isoAngle=15;fillColor=#dae8fc;strokeColor=#6c8ebf;" parent="1" vertex="1">
          <mxGeometry x="400" y="116" width="40" height="40" as="geometry" />
        </mxCell>
        <mxCell id="ZMOJJ3-2EahHvgSbeS1f-306" value="" style="html=1;whiteSpace=wrap;shape=isoCube2;backgroundOutline=1;isoAngle=15;fillColor=#dae8fc;strokeColor=#6c8ebf;" parent="1" vertex="1">
          <mxGeometry x="380" y="126" width="40" height="40" as="geometry" />
        </mxCell>
        <mxCell id="ZMOJJ3-2EahHvgSbeS1f-307" value="" style="html=1;whiteSpace=wrap;shape=isoCube2;backgroundOutline=1;isoAngle=15;fillColor=#dae8fc;strokeColor=#6c8ebf;" parent="1" vertex="1">
          <mxGeometry x="360" y="136" width="40" height="40" as="geometry" />
        </mxCell>
        <mxCell id="ZMOJJ3-2EahHvgSbeS1f-308" value="" style="html=1;whiteSpace=wrap;shape=isoCube2;backgroundOutline=1;isoAngle=15;fillColor=#dae8fc;strokeColor=#6c8ebf;" parent="1" vertex="1">
          <mxGeometry x="340" y="146" width="40" height="40" as="geometry" />
        </mxCell>
        <mxCell id="ZMOJJ3-2EahHvgSbeS1f-309" value="" style="html=1;whiteSpace=wrap;shape=isoCube2;backgroundOutline=1;isoAngle=15;fillColor=#f8cecc;strokeColor=#b85450;" parent="1" vertex="1">
          <mxGeometry x="420" y="126" width="40" height="40" as="geometry" />
        </mxCell>
        <mxCell id="ZMOJJ3-2EahHvgSbeS1f-310" value="" style="html=1;whiteSpace=wrap;shape=isoCube2;backgroundOutline=1;isoAngle=15;fillColor=#f8cecc;strokeColor=#b85450;" parent="1" vertex="1">
          <mxGeometry x="400" y="136" width="40" height="40" as="geometry" />
        </mxCell>
        <mxCell id="ZMOJJ3-2EahHvgSbeS1f-311" value="" style="html=1;whiteSpace=wrap;shape=isoCube2;backgroundOutline=1;isoAngle=15;fillColor=#f8cecc;strokeColor=#b85450;" parent="1" vertex="1">
          <mxGeometry x="380" y="146" width="40" height="40" as="geometry" />
        </mxCell>
        <mxCell id="ZMOJJ3-2EahHvgSbeS1f-312" value="" style="html=1;whiteSpace=wrap;shape=isoCube2;backgroundOutline=1;isoAngle=15;fillColor=#f8cecc;strokeColor=#b85450;" parent="1" vertex="1">
          <mxGeometry x="360" y="156" width="40" height="40" as="geometry" />
        </mxCell>
        <mxCell id="ZMOJJ3-2EahHvgSbeS1f-313" value="" style="html=1;whiteSpace=wrap;shape=isoCube2;backgroundOutline=1;isoAngle=15;fillColor=#f8cecc;strokeColor=#b85450;" parent="1" vertex="1">
          <mxGeometry x="440" y="136" width="40" height="40" as="geometry" />
        </mxCell>
        <mxCell id="ZMOJJ3-2EahHvgSbeS1f-314" value="" style="html=1;whiteSpace=wrap;shape=isoCube2;backgroundOutline=1;isoAngle=15;fillColor=#f8cecc;strokeColor=#b85450;" parent="1" vertex="1">
          <mxGeometry x="420" y="146" width="40" height="40" as="geometry" />
        </mxCell>
        <mxCell id="ZMOJJ3-2EahHvgSbeS1f-315" value="" style="html=1;whiteSpace=wrap;shape=isoCube2;backgroundOutline=1;isoAngle=15;fillColor=#f8cecc;strokeColor=#b85450;" parent="1" vertex="1">
          <mxGeometry x="400" y="156" width="40" height="40" as="geometry" />
        </mxCell>
        <mxCell id="ZMOJJ3-2EahHvgSbeS1f-316" value="" style="html=1;whiteSpace=wrap;shape=isoCube2;backgroundOutline=1;isoAngle=15;fillColor=#f8cecc;strokeColor=#b85450;" parent="1" vertex="1">
          <mxGeometry x="380" y="166" width="40" height="40" as="geometry" />
        </mxCell>
        <mxCell id="ZMOJJ3-2EahHvgSbeS1f-317" value="E" style="text;html=1;align=center;verticalAlign=middle;whiteSpace=wrap;rounded=0;fontStyle=1" parent="1" vertex="1">
          <mxGeometry x="295" y="166" width="20" height="30" as="geometry" />
        </mxCell>
        <mxCell id="ZMOJJ3-2EahHvgSbeS1f-318" value="L" style="text;html=1;align=center;verticalAlign=middle;whiteSpace=wrap;rounded=0;fontStyle=1" parent="1" vertex="1">
          <mxGeometry x="355" y="246" width="20" height="30" as="geometry" />
        </mxCell>
        <mxCell id="ZMOJJ3-2EahHvgSbeS1f-319" value="B" style="text;html=1;align=center;verticalAlign=middle;whiteSpace=wrap;rounded=0;fontStyle=1" parent="1" vertex="1">
          <mxGeometry x="322" y="106" width="40" height="30" as="geometry" />
        </mxCell>
        <mxCell id="ZMOJJ3-2EahHvgSbeS1f-320" value="" style="html=1;whiteSpace=wrap;shape=isoCube2;backgroundOutline=1;isoAngle=15;fillColor=#f8cecc;strokeColor=#b85450;" parent="1" vertex="1">
          <mxGeometry x="460" y="206" width="40" height="40" as="geometry" />
        </mxCell>
        <mxCell id="ZMOJJ3-2EahHvgSbeS1f-321" value="" style="html=1;whiteSpace=wrap;shape=isoCube2;backgroundOutline=1;isoAngle=15;fillColor=#f8cecc;strokeColor=#b85450;" parent="1" vertex="1">
          <mxGeometry x="440" y="216" width="40" height="40" as="geometry" />
        </mxCell>
        <mxCell id="ZMOJJ3-2EahHvgSbeS1f-322" value="" style="html=1;whiteSpace=wrap;shape=isoCube2;backgroundOutline=1;isoAngle=15;fillColor=#f8cecc;strokeColor=#b85450;" parent="1" vertex="1">
          <mxGeometry x="420" y="226" width="40" height="40" as="geometry" />
        </mxCell>
        <mxCell id="ZMOJJ3-2EahHvgSbeS1f-323" value="" style="html=1;whiteSpace=wrap;shape=isoCube2;backgroundOutline=1;isoAngle=15;fillColor=#f8cecc;strokeColor=#b85450;" parent="1" vertex="1">
          <mxGeometry x="400" y="236" width="40" height="40" as="geometry" />
        </mxCell>
        <mxCell id="ZMOJJ3-2EahHvgSbeS1f-324" value="" style="html=1;whiteSpace=wrap;shape=isoCube2;backgroundOutline=1;isoAngle=15;fillColor=#f8cecc;strokeColor=#b85450;" parent="1" vertex="1">
          <mxGeometry x="460" y="186" width="40" height="40" as="geometry" />
        </mxCell>
        <mxCell id="ZMOJJ3-2EahHvgSbeS1f-325" value="" style="html=1;whiteSpace=wrap;shape=isoCube2;backgroundOutline=1;isoAngle=15;fillColor=#f8cecc;strokeColor=#b85450;" parent="1" vertex="1">
          <mxGeometry x="440" y="196" width="40" height="40" as="geometry" />
        </mxCell>
        <mxCell id="ZMOJJ3-2EahHvgSbeS1f-326" value="" style="html=1;whiteSpace=wrap;shape=isoCube2;backgroundOutline=1;isoAngle=15;fillColor=#f8cecc;strokeColor=#b85450;" parent="1" vertex="1">
          <mxGeometry x="420" y="206" width="40" height="40" as="geometry" />
        </mxCell>
        <mxCell id="ZMOJJ3-2EahHvgSbeS1f-327" value="" style="html=1;whiteSpace=wrap;shape=isoCube2;backgroundOutline=1;isoAngle=15;fillColor=#f8cecc;strokeColor=#b85450;" parent="1" vertex="1">
          <mxGeometry x="400" y="216" width="40" height="40" as="geometry" />
        </mxCell>
        <mxCell id="ZMOJJ3-2EahHvgSbeS1f-328" value="" style="html=1;whiteSpace=wrap;shape=isoCube2;backgroundOutline=1;isoAngle=15;fillColor=#f8cecc;strokeColor=#b85450;" parent="1" vertex="1">
          <mxGeometry x="460" y="166" width="40" height="40" as="geometry" />
        </mxCell>
        <mxCell id="ZMOJJ3-2EahHvgSbeS1f-329" value="" style="html=1;whiteSpace=wrap;shape=isoCube2;backgroundOutline=1;isoAngle=15;fillColor=#f8cecc;strokeColor=#b85450;" parent="1" vertex="1">
          <mxGeometry x="440" y="176" width="40" height="40" as="geometry" />
        </mxCell>
        <mxCell id="ZMOJJ3-2EahHvgSbeS1f-330" value="" style="html=1;whiteSpace=wrap;shape=isoCube2;backgroundOutline=1;isoAngle=15;fillColor=#f8cecc;strokeColor=#b85450;" parent="1" vertex="1">
          <mxGeometry x="420" y="186" width="40" height="40" as="geometry" />
        </mxCell>
        <mxCell id="ZMOJJ3-2EahHvgSbeS1f-331" value="" style="html=1;whiteSpace=wrap;shape=isoCube2;backgroundOutline=1;isoAngle=15;fillColor=#f8cecc;strokeColor=#b85450;" parent="1" vertex="1">
          <mxGeometry x="400" y="196" width="40" height="40" as="geometry" />
        </mxCell>
        <mxCell id="ZMOJJ3-2EahHvgSbeS1f-332" value="" style="html=1;whiteSpace=wrap;shape=isoCube2;backgroundOutline=1;isoAngle=15;fillColor=#f8cecc;strokeColor=#b85450;" parent="1" vertex="1">
          <mxGeometry x="460" y="146" width="40" height="40" as="geometry" />
        </mxCell>
        <mxCell id="ZMOJJ3-2EahHvgSbeS1f-333" value="" style="html=1;whiteSpace=wrap;shape=isoCube2;backgroundOutline=1;isoAngle=15;fillColor=#f8cecc;strokeColor=#b85450;" parent="1" vertex="1">
          <mxGeometry x="440" y="156" width="40" height="40" as="geometry" />
        </mxCell>
        <mxCell id="ZMOJJ3-2EahHvgSbeS1f-334" value="" style="html=1;whiteSpace=wrap;shape=isoCube2;backgroundOutline=1;isoAngle=15;fillColor=#f8cecc;strokeColor=#b85450;" parent="1" vertex="1">
          <mxGeometry x="420" y="166" width="40" height="40" as="geometry" />
        </mxCell>
        <mxCell id="ZMOJJ3-2EahHvgSbeS1f-335" value="" style="html=1;whiteSpace=wrap;shape=isoCube2;backgroundOutline=1;isoAngle=15;fillColor=#f8cecc;strokeColor=#b85450;" parent="1" vertex="1">
          <mxGeometry x="400" y="176" width="40" height="40" as="geometry" />
        </mxCell>
        <mxCell id="ZMOJJ3-2EahHvgSbeS1f-336" value="Data and Pipeline Parallelism" style="text;strokeColor=none;fillColor=none;align=left;verticalAlign=middle;spacingLeft=4;spacingRight=4;overflow=hidden;points=[[0,0.5],[1,0.5]];portConstraint=eastwest;rotatable=0;whiteSpace=wrap;html=1;fontSize=18;" parent="1" vertex="1">
          <mxGeometry x="575" y="58" width="255" height="30" as="geometry" />
        </mxCell>
        <mxCell id="ZMOJJ3-2EahHvgSbeS1f-337" value="" style="html=1;whiteSpace=wrap;shape=isoCube2;backgroundOutline=1;isoAngle=15;" parent="1" vertex="1">
          <mxGeometry x="680" y="166" width="40" height="40" as="geometry" />
        </mxCell>
        <mxCell id="ZMOJJ3-2EahHvgSbeS1f-338" value="" style="html=1;whiteSpace=wrap;shape=isoCube2;backgroundOutline=1;isoAngle=15;fontStyle=1" parent="1" vertex="1">
          <mxGeometry x="660" y="176" width="40" height="40" as="geometry" />
        </mxCell>
        <mxCell id="ZMOJJ3-2EahHvgSbeS1f-339" value="" style="html=1;whiteSpace=wrap;shape=isoCube2;backgroundOutline=1;isoAngle=15;fontStyle=1" parent="1" vertex="1">
          <mxGeometry x="640" y="186" width="40" height="40" as="geometry" />
        </mxCell>
        <mxCell id="ZMOJJ3-2EahHvgSbeS1f-340" value="" style="html=1;whiteSpace=wrap;shape=isoCube2;backgroundOutline=1;isoAngle=15;fillColor=#dae8fc;strokeColor=#6c8ebf;fontStyle=1" parent="1" vertex="1">
          <mxGeometry x="620" y="196" width="40" height="40" as="geometry" />
        </mxCell>
        <mxCell id="ZMOJJ3-2EahHvgSbeS1f-341" value="" style="html=1;whiteSpace=wrap;shape=isoCube2;backgroundOutline=1;isoAngle=15;fillColor=#d5e8d4;strokeColor=#82b366;" parent="1" vertex="1">
          <mxGeometry x="700" y="176" width="40" height="40" as="geometry" />
        </mxCell>
        <mxCell id="ZMOJJ3-2EahHvgSbeS1f-342" value="" style="html=1;whiteSpace=wrap;shape=isoCube2;backgroundOutline=1;isoAngle=15;" parent="1" vertex="1">
          <mxGeometry x="680" y="186" width="40" height="40" as="geometry" />
        </mxCell>
        <mxCell id="ZMOJJ3-2EahHvgSbeS1f-343" value="" style="html=1;whiteSpace=wrap;shape=isoCube2;backgroundOutline=1;isoAngle=15;fontStyle=1" parent="1" vertex="1">
          <mxGeometry x="660" y="196" width="40" height="40" as="geometry" />
        </mxCell>
        <mxCell id="ZMOJJ3-2EahHvgSbeS1f-344" value="" style="html=1;whiteSpace=wrap;shape=isoCube2;backgroundOutline=1;isoAngle=15;fillColor=#dae8fc;strokeColor=#6c8ebf;fontStyle=1" parent="1" vertex="1">
          <mxGeometry x="640" y="206" width="40" height="40" as="geometry" />
        </mxCell>
        <mxCell id="ZMOJJ3-2EahHvgSbeS1f-345" value="" style="html=1;whiteSpace=wrap;shape=isoCube2;backgroundOutline=1;isoAngle=15;fillColor=#d5e8d4;strokeColor=#82b366;" parent="1" vertex="1">
          <mxGeometry x="720" y="186" width="40" height="40" as="geometry" />
        </mxCell>
        <mxCell id="ZMOJJ3-2EahHvgSbeS1f-346" value="" style="html=1;whiteSpace=wrap;shape=isoCube2;backgroundOutline=1;isoAngle=15;fillColor=#d5e8d4;strokeColor=#82b366;" parent="1" vertex="1">
          <mxGeometry x="700" y="196" width="40" height="40" as="geometry" />
        </mxCell>
        <mxCell id="ZMOJJ3-2EahHvgSbeS1f-347" value="" style="html=1;whiteSpace=wrap;shape=isoCube2;backgroundOutline=1;isoAngle=15;" parent="1" vertex="1">
          <mxGeometry x="680" y="206" width="40" height="40" as="geometry" />
        </mxCell>
        <mxCell id="ZMOJJ3-2EahHvgSbeS1f-348" value="" style="html=1;whiteSpace=wrap;shape=isoCube2;backgroundOutline=1;isoAngle=15;fillColor=#d5e8d4;strokeColor=#82b366;fontStyle=1" parent="1" vertex="1">
          <mxGeometry x="660" y="216" width="40" height="40" as="geometry" />
        </mxCell>
        <mxCell id="ZMOJJ3-2EahHvgSbeS1f-349" value="" style="html=1;whiteSpace=wrap;shape=isoCube2;backgroundOutline=1;isoAngle=15;fillColor=#d5e8d4;strokeColor=#82b366;" parent="1" vertex="1">
          <mxGeometry x="740" y="196" width="40" height="40" as="geometry" />
        </mxCell>
        <mxCell id="ZMOJJ3-2EahHvgSbeS1f-350" value="" style="html=1;whiteSpace=wrap;shape=isoCube2;backgroundOutline=1;isoAngle=15;fillColor=#d5e8d4;strokeColor=#82b366;" parent="1" vertex="1">
          <mxGeometry x="720" y="206" width="40" height="40" as="geometry" />
        </mxCell>
        <mxCell id="ZMOJJ3-2EahHvgSbeS1f-351" value="" style="html=1;whiteSpace=wrap;shape=isoCube2;backgroundOutline=1;isoAngle=15;fillColor=#d5e8d4;strokeColor=#82b366;" parent="1" vertex="1">
          <mxGeometry x="700" y="216" width="40" height="40" as="geometry" />
        </mxCell>
        <mxCell id="ZMOJJ3-2EahHvgSbeS1f-352" value="" style="html=1;whiteSpace=wrap;shape=isoCube2;backgroundOutline=1;isoAngle=15;fillColor=#d5e8d4;strokeColor=#82b366;" parent="1" vertex="1">
          <mxGeometry x="680" y="226" width="40" height="40" as="geometry" />
        </mxCell>
        <mxCell id="ZMOJJ3-2EahHvgSbeS1f-353" value="" style="html=1;whiteSpace=wrap;shape=isoCube2;backgroundOutline=1;isoAngle=15;fillColor=#d5e8d4;strokeColor=#82b366;" parent="1" vertex="1">
          <mxGeometry x="680" y="146" width="40" height="40" as="geometry" />
        </mxCell>
        <mxCell id="ZMOJJ3-2EahHvgSbeS1f-354" value="" style="html=1;whiteSpace=wrap;shape=isoCube2;backgroundOutline=1;isoAngle=15;fontStyle=1" parent="1" vertex="1">
          <mxGeometry x="660" y="156" width="40" height="40" as="geometry" />
        </mxCell>
        <mxCell id="ZMOJJ3-2EahHvgSbeS1f-355" value="" style="html=1;whiteSpace=wrap;shape=isoCube2;backgroundOutline=1;isoAngle=15;fontStyle=1" parent="1" vertex="1">
          <mxGeometry x="640" y="166" width="40" height="40" as="geometry" />
        </mxCell>
        <mxCell id="ZMOJJ3-2EahHvgSbeS1f-356" value="" style="html=1;whiteSpace=wrap;shape=isoCube2;backgroundOutline=1;isoAngle=15;fillColor=#dae8fc;strokeColor=#6c8ebf;fontStyle=1" parent="1" vertex="1">
          <mxGeometry x="620" y="176" width="40" height="40" as="geometry" />
        </mxCell>
        <mxCell id="ZMOJJ3-2EahHvgSbeS1f-357" value="" style="html=1;whiteSpace=wrap;shape=isoCube2;backgroundOutline=1;isoAngle=15;" parent="1" vertex="1">
          <mxGeometry x="700" y="156" width="40" height="40" as="geometry" />
        </mxCell>
        <mxCell id="ZMOJJ3-2EahHvgSbeS1f-358" value="" style="html=1;whiteSpace=wrap;shape=isoCube2;backgroundOutline=1;isoAngle=15;" parent="1" vertex="1">
          <mxGeometry x="680" y="166" width="40" height="40" as="geometry" />
        </mxCell>
        <mxCell id="ZMOJJ3-2EahHvgSbeS1f-359" value="" style="html=1;whiteSpace=wrap;shape=isoCube2;backgroundOutline=1;isoAngle=15;fontStyle=1" parent="1" vertex="1">
          <mxGeometry x="660" y="176" width="40" height="40" as="geometry" />
        </mxCell>
        <mxCell id="ZMOJJ3-2EahHvgSbeS1f-360" value="" style="html=1;whiteSpace=wrap;shape=isoCube2;backgroundOutline=1;isoAngle=15;fillColor=#dae8fc;strokeColor=#6c8ebf;fontStyle=1" parent="1" vertex="1">
          <mxGeometry x="640" y="186" width="40" height="40" as="geometry" />
        </mxCell>
        <mxCell id="ZMOJJ3-2EahHvgSbeS1f-361" value="" style="html=1;whiteSpace=wrap;shape=isoCube2;backgroundOutline=1;isoAngle=15;fillColor=#d5e8d4;strokeColor=#82b366;" parent="1" vertex="1">
          <mxGeometry x="720" y="166" width="40" height="40" as="geometry" />
        </mxCell>
        <mxCell id="ZMOJJ3-2EahHvgSbeS1f-362" value="" style="html=1;whiteSpace=wrap;shape=isoCube2;backgroundOutline=1;isoAngle=15;fillColor=#d5e8d4;strokeColor=#82b366;" parent="1" vertex="1">
          <mxGeometry x="700" y="176" width="40" height="40" as="geometry" />
        </mxCell>
        <mxCell id="ZMOJJ3-2EahHvgSbeS1f-363" value="" style="html=1;whiteSpace=wrap;shape=isoCube2;backgroundOutline=1;isoAngle=15;" parent="1" vertex="1">
          <mxGeometry x="680" y="186" width="40" height="40" as="geometry" />
        </mxCell>
        <mxCell id="ZMOJJ3-2EahHvgSbeS1f-364" value="" style="html=1;whiteSpace=wrap;shape=isoCube2;backgroundOutline=1;isoAngle=15;fillColor=#d5e8d4;strokeColor=#82b366;fontStyle=1" parent="1" vertex="1">
          <mxGeometry x="660" y="196" width="40" height="40" as="geometry" />
        </mxCell>
        <mxCell id="ZMOJJ3-2EahHvgSbeS1f-365" value="" style="html=1;whiteSpace=wrap;shape=isoCube2;backgroundOutline=1;isoAngle=15;fillColor=#d5e8d4;strokeColor=#82b366;" parent="1" vertex="1">
          <mxGeometry x="740" y="176" width="40" height="40" as="geometry" />
        </mxCell>
        <mxCell id="ZMOJJ3-2EahHvgSbeS1f-366" value="" style="html=1;whiteSpace=wrap;shape=isoCube2;backgroundOutline=1;isoAngle=15;fillColor=#d5e8d4;strokeColor=#82b366;" parent="1" vertex="1">
          <mxGeometry x="720" y="186" width="40" height="40" as="geometry" />
        </mxCell>
        <mxCell id="ZMOJJ3-2EahHvgSbeS1f-367" value="" style="html=1;whiteSpace=wrap;shape=isoCube2;backgroundOutline=1;isoAngle=15;fillColor=#d5e8d4;strokeColor=#82b366;" parent="1" vertex="1">
          <mxGeometry x="700" y="196" width="40" height="40" as="geometry" />
        </mxCell>
        <mxCell id="ZMOJJ3-2EahHvgSbeS1f-368" value="" style="html=1;whiteSpace=wrap;shape=isoCube2;backgroundOutline=1;isoAngle=15;fillColor=#d5e8d4;strokeColor=#82b366;" parent="1" vertex="1">
          <mxGeometry x="680" y="206" width="40" height="40" as="geometry" />
        </mxCell>
        <mxCell id="ZMOJJ3-2EahHvgSbeS1f-369" value="" style="html=1;whiteSpace=wrap;shape=isoCube2;backgroundOutline=1;isoAngle=15;" parent="1" vertex="1">
          <mxGeometry x="680" y="126" width="40" height="40" as="geometry" />
        </mxCell>
        <mxCell id="ZMOJJ3-2EahHvgSbeS1f-370" value="" style="html=1;whiteSpace=wrap;shape=isoCube2;backgroundOutline=1;isoAngle=15;fontStyle=1" parent="1" vertex="1">
          <mxGeometry x="660" y="136" width="40" height="40" as="geometry" />
        </mxCell>
        <mxCell id="ZMOJJ3-2EahHvgSbeS1f-371" value="" style="html=1;whiteSpace=wrap;shape=isoCube2;backgroundOutline=1;isoAngle=15;fontStyle=1" parent="1" vertex="1">
          <mxGeometry x="640" y="146" width="40" height="40" as="geometry" />
        </mxCell>
        <mxCell id="ZMOJJ3-2EahHvgSbeS1f-372" value="" style="html=1;whiteSpace=wrap;shape=isoCube2;backgroundOutline=1;isoAngle=15;fillColor=#dae8fc;strokeColor=#6c8ebf;fontStyle=1" parent="1" vertex="1">
          <mxGeometry x="620" y="156" width="40" height="40" as="geometry" />
        </mxCell>
        <mxCell id="ZMOJJ3-2EahHvgSbeS1f-373" value="" style="html=1;whiteSpace=wrap;shape=isoCube2;backgroundOutline=1;isoAngle=15;" parent="1" vertex="1">
          <mxGeometry x="700" y="136" width="40" height="40" as="geometry" />
        </mxCell>
        <mxCell id="ZMOJJ3-2EahHvgSbeS1f-374" value="" style="html=1;whiteSpace=wrap;shape=isoCube2;backgroundOutline=1;isoAngle=15;fillColor=#d5e8d4;strokeColor=#82b366;" parent="1" vertex="1">
          <mxGeometry x="680" y="146" width="40" height="40" as="geometry" />
        </mxCell>
        <mxCell id="ZMOJJ3-2EahHvgSbeS1f-375" value="" style="html=1;whiteSpace=wrap;shape=isoCube2;backgroundOutline=1;isoAngle=15;fontStyle=1" parent="1" vertex="1">
          <mxGeometry x="660" y="156" width="40" height="40" as="geometry" />
        </mxCell>
        <mxCell id="ZMOJJ3-2EahHvgSbeS1f-376" value="" style="html=1;whiteSpace=wrap;shape=isoCube2;backgroundOutline=1;isoAngle=15;fillColor=#dae8fc;strokeColor=#6c8ebf;fontStyle=1" parent="1" vertex="1">
          <mxGeometry x="640" y="166" width="40" height="40" as="geometry" />
        </mxCell>
        <mxCell id="ZMOJJ3-2EahHvgSbeS1f-377" value="" style="html=1;whiteSpace=wrap;shape=isoCube2;backgroundOutline=1;isoAngle=15;fillColor=#d5e8d4;strokeColor=#82b366;" parent="1" vertex="1">
          <mxGeometry x="720" y="146" width="40" height="40" as="geometry" />
        </mxCell>
        <mxCell id="ZMOJJ3-2EahHvgSbeS1f-378" value="" style="html=1;whiteSpace=wrap;shape=isoCube2;backgroundOutline=1;isoAngle=15;" parent="1" vertex="1">
          <mxGeometry x="700" y="156" width="40" height="40" as="geometry" />
        </mxCell>
        <mxCell id="ZMOJJ3-2EahHvgSbeS1f-379" value="" style="html=1;whiteSpace=wrap;shape=isoCube2;backgroundOutline=1;isoAngle=15;" parent="1" vertex="1">
          <mxGeometry x="680" y="166" width="40" height="40" as="geometry" />
        </mxCell>
        <mxCell id="ZMOJJ3-2EahHvgSbeS1f-380" value="" style="html=1;whiteSpace=wrap;shape=isoCube2;backgroundOutline=1;isoAngle=15;fillColor=#d5e8d4;strokeColor=#82b366;fontStyle=1" parent="1" vertex="1">
          <mxGeometry x="660" y="176" width="40" height="40" as="geometry" />
        </mxCell>
        <mxCell id="ZMOJJ3-2EahHvgSbeS1f-381" value="" style="html=1;whiteSpace=wrap;shape=isoCube2;backgroundOutline=1;isoAngle=15;fillColor=#d5e8d4;strokeColor=#82b366;" parent="1" vertex="1">
          <mxGeometry x="740" y="156" width="40" height="40" as="geometry" />
        </mxCell>
        <mxCell id="ZMOJJ3-2EahHvgSbeS1f-382" value="" style="html=1;whiteSpace=wrap;shape=isoCube2;backgroundOutline=1;isoAngle=15;fillColor=#d5e8d4;strokeColor=#82b366;" parent="1" vertex="1">
          <mxGeometry x="720" y="166" width="40" height="40" as="geometry" />
        </mxCell>
        <mxCell id="ZMOJJ3-2EahHvgSbeS1f-383" value="" style="html=1;whiteSpace=wrap;shape=isoCube2;backgroundOutline=1;isoAngle=15;fillColor=#d5e8d4;strokeColor=#82b366;" parent="1" vertex="1">
          <mxGeometry x="700" y="176" width="40" height="40" as="geometry" />
        </mxCell>
        <mxCell id="ZMOJJ3-2EahHvgSbeS1f-384" value="" style="html=1;whiteSpace=wrap;shape=isoCube2;backgroundOutline=1;isoAngle=15;fillColor=#d5e8d4;strokeColor=#82b366;" parent="1" vertex="1">
          <mxGeometry x="680" y="186" width="40" height="40" as="geometry" />
        </mxCell>
        <mxCell id="ZMOJJ3-2EahHvgSbeS1f-385" value="" style="html=1;whiteSpace=wrap;shape=isoCube2;backgroundOutline=1;isoAngle=15;fillColor=#ffe6cc;strokeColor=#d79b00;" parent="1" vertex="1">
          <mxGeometry x="680" y="106" width="40" height="40" as="geometry" />
        </mxCell>
        <mxCell id="ZMOJJ3-2EahHvgSbeS1f-386" value="" style="html=1;whiteSpace=wrap;shape=isoCube2;backgroundOutline=1;isoAngle=15;fillColor=#ffe6cc;strokeColor=#d79b00;fontStyle=1" parent="1" vertex="1">
          <mxGeometry x="660" y="116" width="40" height="40" as="geometry" />
        </mxCell>
        <mxCell id="ZMOJJ3-2EahHvgSbeS1f-387" value="" style="html=1;whiteSpace=wrap;shape=isoCube2;backgroundOutline=1;isoAngle=15;fillColor=#dae8fc;strokeColor=#6c8ebf;fontStyle=1" parent="1" vertex="1">
          <mxGeometry x="640" y="126" width="40" height="40" as="geometry" />
        </mxCell>
        <mxCell id="ZMOJJ3-2EahHvgSbeS1f-388" value="" style="html=1;whiteSpace=wrap;shape=isoCube2;backgroundOutline=1;isoAngle=15;fillColor=#dae8fc;strokeColor=#6c8ebf;fontStyle=1" parent="1" vertex="1">
          <mxGeometry x="620" y="136" width="40" height="40" as="geometry" />
        </mxCell>
        <mxCell id="ZMOJJ3-2EahHvgSbeS1f-389" value="" style="html=1;whiteSpace=wrap;shape=isoCube2;backgroundOutline=1;isoAngle=15;fillColor=#ffe6cc;strokeColor=#d79b00;" parent="1" vertex="1">
          <mxGeometry x="700" y="116" width="40" height="40" as="geometry" />
        </mxCell>
        <mxCell id="ZMOJJ3-2EahHvgSbeS1f-390" value="" style="html=1;whiteSpace=wrap;shape=isoCube2;backgroundOutline=1;isoAngle=15;fillColor=#ffe6cc;strokeColor=#d79b00;" parent="1" vertex="1">
          <mxGeometry x="680" y="126" width="40" height="40" as="geometry" />
        </mxCell>
        <mxCell id="ZMOJJ3-2EahHvgSbeS1f-391" value="" style="html=1;whiteSpace=wrap;shape=isoCube2;backgroundOutline=1;isoAngle=15;fillColor=#dae8fc;strokeColor=#6c8ebf;fontStyle=1" parent="1" vertex="1">
          <mxGeometry x="660" y="136" width="40" height="40" as="geometry" />
        </mxCell>
        <mxCell id="ZMOJJ3-2EahHvgSbeS1f-392" value="" style="html=1;whiteSpace=wrap;shape=isoCube2;backgroundOutline=1;isoAngle=15;fillColor=#dae8fc;strokeColor=#6c8ebf;fontStyle=1" parent="1" vertex="1">
          <mxGeometry x="640" y="146" width="40" height="40" as="geometry" />
        </mxCell>
        <mxCell id="ZMOJJ3-2EahHvgSbeS1f-393" value="" style="html=1;whiteSpace=wrap;shape=isoCube2;backgroundOutline=1;isoAngle=15;fillColor=#f8cecc;strokeColor=#b85450;" parent="1" vertex="1">
          <mxGeometry x="720" y="126" width="40" height="40" as="geometry" />
        </mxCell>
        <mxCell id="ZMOJJ3-2EahHvgSbeS1f-394" value="" style="html=1;whiteSpace=wrap;shape=isoCube2;backgroundOutline=1;isoAngle=15;fillColor=#f8cecc;strokeColor=#b85450;" parent="1" vertex="1">
          <mxGeometry x="700" y="136" width="40" height="40" as="geometry" />
        </mxCell>
        <mxCell id="ZMOJJ3-2EahHvgSbeS1f-395" value="" style="html=1;whiteSpace=wrap;shape=isoCube2;backgroundOutline=1;isoAngle=15;fillColor=#d5e8d4;strokeColor=#82b366;" parent="1" vertex="1">
          <mxGeometry x="680" y="146" width="40" height="40" as="geometry" />
        </mxCell>
        <mxCell id="ZMOJJ3-2EahHvgSbeS1f-396" value="" style="html=1;whiteSpace=wrap;shape=isoCube2;backgroundOutline=1;isoAngle=15;fillColor=#d5e8d4;strokeColor=#82b366;fontStyle=1" parent="1" vertex="1">
          <mxGeometry x="660" y="156" width="40" height="40" as="geometry" />
        </mxCell>
        <mxCell id="ZMOJJ3-2EahHvgSbeS1f-397" value="" style="html=1;whiteSpace=wrap;shape=isoCube2;backgroundOutline=1;isoAngle=15;fillColor=#f8cecc;strokeColor=#b85450;" parent="1" vertex="1">
          <mxGeometry x="740" y="136" width="40" height="40" as="geometry" />
        </mxCell>
        <mxCell id="ZMOJJ3-2EahHvgSbeS1f-398" value="" style="html=1;whiteSpace=wrap;shape=isoCube2;backgroundOutline=1;isoAngle=15;fillColor=#f8cecc;strokeColor=#b85450;" parent="1" vertex="1">
          <mxGeometry x="720" y="146" width="40" height="40" as="geometry" />
        </mxCell>
        <mxCell id="ZMOJJ3-2EahHvgSbeS1f-399" value="" style="html=1;whiteSpace=wrap;shape=isoCube2;backgroundOutline=1;isoAngle=15;fillColor=#d5e8d4;strokeColor=#82b366;" parent="1" vertex="1">
          <mxGeometry x="700" y="156" width="40" height="40" as="geometry" />
        </mxCell>
        <mxCell id="ZMOJJ3-2EahHvgSbeS1f-400" value="" style="html=1;whiteSpace=wrap;shape=isoCube2;backgroundOutline=1;isoAngle=15;fillColor=#d5e8d4;strokeColor=#82b366;" parent="1" vertex="1">
          <mxGeometry x="680" y="166" width="40" height="40" as="geometry" />
        </mxCell>
        <mxCell id="ZMOJJ3-2EahHvgSbeS1f-401" value="E" style="text;html=1;align=center;verticalAlign=middle;whiteSpace=wrap;rounded=0;fontStyle=1" parent="1" vertex="1">
          <mxGeometry x="590" y="171" width="20" height="30" as="geometry" />
        </mxCell>
        <mxCell id="ZMOJJ3-2EahHvgSbeS1f-402" value="L" style="text;html=1;align=center;verticalAlign=middle;whiteSpace=wrap;rounded=0;fontStyle=1" parent="1" vertex="1">
          <mxGeometry x="640" y="246" width="20" height="30" as="geometry" />
        </mxCell>
        <mxCell id="ZMOJJ3-2EahHvgSbeS1f-403" value="B" style="text;html=1;align=center;verticalAlign=middle;whiteSpace=wrap;rounded=0;fontStyle=1" parent="1" vertex="1">
          <mxGeometry x="630" y="101" width="40" height="30" as="geometry" />
        </mxCell>
        <mxCell id="ZMOJJ3-2EahHvgSbeS1f-404" value="" style="html=1;whiteSpace=wrap;shape=isoCube2;backgroundOutline=1;isoAngle=15;fillColor=#f8cecc;strokeColor=#b85450;" parent="1" vertex="1">
          <mxGeometry x="760" y="206" width="40" height="40" as="geometry" />
        </mxCell>
        <mxCell id="ZMOJJ3-2EahHvgSbeS1f-405" value="" style="html=1;whiteSpace=wrap;shape=isoCube2;backgroundOutline=1;isoAngle=15;fillColor=#f8cecc;strokeColor=#b85450;" parent="1" vertex="1">
          <mxGeometry x="740" y="216" width="40" height="40" as="geometry" />
        </mxCell>
        <mxCell id="ZMOJJ3-2EahHvgSbeS1f-406" value="" style="html=1;whiteSpace=wrap;shape=isoCube2;backgroundOutline=1;isoAngle=15;fillColor=#d5e8d4;strokeColor=#82b366;" parent="1" vertex="1">
          <mxGeometry x="720" y="226" width="40" height="40" as="geometry" />
        </mxCell>
        <mxCell id="ZMOJJ3-2EahHvgSbeS1f-407" value="" style="html=1;whiteSpace=wrap;shape=isoCube2;backgroundOutline=1;isoAngle=15;fillColor=#d5e8d4;strokeColor=#82b366;" parent="1" vertex="1">
          <mxGeometry x="700" y="236" width="40" height="40" as="geometry" />
        </mxCell>
        <mxCell id="ZMOJJ3-2EahHvgSbeS1f-408" value="" style="html=1;whiteSpace=wrap;shape=isoCube2;backgroundOutline=1;isoAngle=15;fillColor=#f8cecc;strokeColor=#b85450;" parent="1" vertex="1">
          <mxGeometry x="760" y="186" width="40" height="40" as="geometry" />
        </mxCell>
        <mxCell id="ZMOJJ3-2EahHvgSbeS1f-409" value="" style="html=1;whiteSpace=wrap;shape=isoCube2;backgroundOutline=1;isoAngle=15;fillColor=#f8cecc;strokeColor=#b85450;" parent="1" vertex="1">
          <mxGeometry x="740" y="196" width="40" height="40" as="geometry" />
        </mxCell>
        <mxCell id="ZMOJJ3-2EahHvgSbeS1f-410" value="" style="html=1;whiteSpace=wrap;shape=isoCube2;backgroundOutline=1;isoAngle=15;fillColor=#d5e8d4;strokeColor=#82b366;" parent="1" vertex="1">
          <mxGeometry x="720" y="206" width="40" height="40" as="geometry" />
        </mxCell>
        <mxCell id="ZMOJJ3-2EahHvgSbeS1f-411" value="" style="html=1;whiteSpace=wrap;shape=isoCube2;backgroundOutline=1;isoAngle=15;fillColor=#d5e8d4;strokeColor=#82b366;" parent="1" vertex="1">
          <mxGeometry x="700" y="216" width="40" height="40" as="geometry" />
        </mxCell>
        <mxCell id="ZMOJJ3-2EahHvgSbeS1f-412" value="" style="html=1;whiteSpace=wrap;shape=isoCube2;backgroundOutline=1;isoAngle=15;fillColor=#f8cecc;strokeColor=#b85450;" parent="1" vertex="1">
          <mxGeometry x="760" y="166" width="40" height="40" as="geometry" />
        </mxCell>
        <mxCell id="ZMOJJ3-2EahHvgSbeS1f-413" value="" style="html=1;whiteSpace=wrap;shape=isoCube2;backgroundOutline=1;isoAngle=15;fillColor=#f8cecc;strokeColor=#b85450;" parent="1" vertex="1">
          <mxGeometry x="740" y="176" width="40" height="40" as="geometry" />
        </mxCell>
        <mxCell id="ZMOJJ3-2EahHvgSbeS1f-414" value="" style="html=1;whiteSpace=wrap;shape=isoCube2;backgroundOutline=1;isoAngle=15;fillColor=#d5e8d4;strokeColor=#82b366;" parent="1" vertex="1">
          <mxGeometry x="720" y="186" width="40" height="40" as="geometry" />
        </mxCell>
        <mxCell id="ZMOJJ3-2EahHvgSbeS1f-415" value="" style="html=1;whiteSpace=wrap;shape=isoCube2;backgroundOutline=1;isoAngle=15;fillColor=#d5e8d4;strokeColor=#82b366;" parent="1" vertex="1">
          <mxGeometry x="700" y="196" width="40" height="40" as="geometry" />
        </mxCell>
        <mxCell id="ZMOJJ3-2EahHvgSbeS1f-416" value="" style="html=1;whiteSpace=wrap;shape=isoCube2;backgroundOutline=1;isoAngle=15;fillColor=#f8cecc;strokeColor=#b85450;" parent="1" vertex="1">
          <mxGeometry x="760" y="146" width="40" height="40" as="geometry" />
        </mxCell>
        <mxCell id="ZMOJJ3-2EahHvgSbeS1f-417" value="" style="html=1;whiteSpace=wrap;shape=isoCube2;backgroundOutline=1;isoAngle=15;fillColor=#f8cecc;strokeColor=#b85450;" parent="1" vertex="1">
          <mxGeometry x="740" y="156" width="40" height="40" as="geometry" />
        </mxCell>
        <mxCell id="ZMOJJ3-2EahHvgSbeS1f-418" value="" style="html=1;whiteSpace=wrap;shape=isoCube2;backgroundOutline=1;isoAngle=15;fillColor=#d5e8d4;strokeColor=#82b366;" parent="1" vertex="1">
          <mxGeometry x="720" y="166" width="40" height="40" as="geometry" />
        </mxCell>
        <mxCell id="ZMOJJ3-2EahHvgSbeS1f-419" value="" style="html=1;whiteSpace=wrap;shape=isoCube2;backgroundOutline=1;isoAngle=15;fillColor=#d5e8d4;strokeColor=#82b366;" parent="1" vertex="1">
          <mxGeometry x="700" y="176" width="40" height="40" as="geometry" />
        </mxCell>
      </root>
    </mxGraphModel>
  </diagram>
</mxfile>
